<svg width="14" height="14" viewBox="0 0 14 14" fill="none" xmlns="http://www.w3.org/2000/svg">
<g id="&#231;&#188;&#150;&#231;&#187;&#132;" clip-path="url(#clip0_2585_270134)">
<g id="&#231;&#188;&#150;&#231;&#187;&#132;/2&#229;&#164;&#135;&#228;&#187;&#189;">
<g id="ic_imformation">
<path id="&#230;&#164;&#173;&#229;&#156;&#134;&#229;&#189;&#162;" d="M7 13C10.3137 13 13 10.3137 13 7C13 3.68629 10.3137 1 7 1C3.68629 1 1 3.68629 1 7C1 10.3137 3.68629 13 7 13Z" fill="#3772FE"/>
<path id="&#229;&#189;&#162;&#231;&#138;&#182;" d="M7.00013 8.61038C6.85427 8.61038 6.73272 8.61797 6.63548 8.63317C6.53824 8.64836 6.46227 8.68027 6.40758 8.72889C6.35288 8.77751 6.3149 8.8474 6.29363 8.93856C6.27235 9.02972 6.26172 9.15431 6.26172 9.31232C6.26172 9.46426 6.27235 9.58581 6.29363 9.67697C6.3149 9.76813 6.35288 9.83802 6.40758 9.88664C6.46227 9.93526 6.53824 9.96565 6.63548 9.9778C6.73272 9.98996 6.85427 9.99603 7.00013 9.99603C7.15206 9.99603 7.27513 9.98996 7.36933 9.9778C7.46353 9.96565 7.53798 9.93526 7.59268 9.88664C7.64737 9.83802 7.68536 9.76813 7.70663 9.67697C7.7279 9.58581 7.73854 9.46426 7.73854 9.31232C7.73854 9.15431 7.7279 9.02972 7.70663 8.93856C7.68536 8.8474 7.64737 8.77751 7.59268 8.72889C7.53798 8.68027 7.46353 8.64836 7.36933 8.63317C7.27513 8.61797 7.15206 8.61038 7.00013 8.61038ZM6.33465 7.92667H7.65649V4.00394H6.33465V7.92667Z" fill="white"/>
</g>
</g>
</g>
<defs>
<clipPath id="clip0_2585_270134">
<rect width="14" height="14" fill="white"/>
</clipPath>
</defs>
</svg>
