<?xml version="1.0" encoding="UTF-8"?>
<svg width="13px" height="12px" viewBox="0 0 13 12" version="1.1" xmlns="http://www.w3.org/2000/svg" xmlns:xlink="http://www.w3.org/1999/xlink">
    <title>ic_add</title>
    <defs>
        <linearGradient x1="50%" y1="35.7569214%" x2="50%" y2="82.9786095%" id="linearGradient-1">
            <stop stop-color="#FFFFFF" offset="0%"></stop>
            <stop stop-color="#FFFFFF" stop-opacity="0.8" offset="39.5710364%"></stop>
            <stop stop-color="#FFFFFF" offset="100%"></stop>
        </linearGradient>
        <linearGradient x1="50%" y1="35.7569214%" x2="50%" y2="82.9786095%" id="linearGradient-2">
            <stop stop-color="#364052" offset="0%"></stop>
            <stop stop-color="#364052" stop-opacity="0.8" offset="39.5710364%"></stop>
            <stop stop-color="#364052" offset="100%"></stop>
        </linearGradient>
        <linearGradient x1="0%" y1="50%" x2="100%" y2="50%" id="linearGradient-3">
            <stop stop-color="#FFFFFF" offset="0%"></stop>
            <stop stop-color="#FFFFFF" stop-opacity="0.8" offset="62.5322653%"></stop>
            <stop stop-color="#FFFFFF" offset="100%"></stop>
        </linearGradient>
        <linearGradient x1="0%" y1="50%" x2="100%" y2="50%" id="linearGradient-4">
            <stop stop-color="#364052" offset="0%"></stop>
            <stop stop-color="#364052" stop-opacity="0.8" offset="62.5322653%"></stop>
            <stop stop-color="#364052" offset="100%"></stop>
        </linearGradient>
    </defs>
    <g id="Voicesage-X" stroke="none" stroke-width="1" fill="none" fill-rule="evenodd">
        <g id="模型管理-添加预训练模型-文本生成" transform="translate(-1522.000000, -408.000000)">
            <g id="ic_add" transform="translate(1522.500000, 408.000000)">
                <path d="M6.75,7.5 L6.75,11.25 C6.75,11.6642136 6.41421356,12 6,12 C5.58578644,12 5.25,11.6642136 5.25,11.25 L5.25,7.5 L6.75,7.5 Z M6,0 C6.41421356,-7.6089797e-17 6.75,0.335786438 6.75,0.75 L6.75,6.75 L5.25,6.75 L5.25,0.75 C5.25,0.335786438 5.58578644,5.07265313e-17 6,0 Z" id="形状结合" fill="url(#linearGradient-2)"></path>
                <path d="M6.75,5.25 L6.75,6.75 L0.75,6.75 C0.335786438,6.75 2.53632657e-17,6.41421356 0,6 C-5.07265313e-17,5.58578644 0.335786438,5.25 0.75,5.25 L6.75,5.25 Z M11.25,5.25 C11.6642136,5.25 12,5.58578644 12,6 C12,6.41421356 11.6642136,6.75 11.25,6.75 L7.5,6.75 L7.5,5.25 L11.25,5.25 Z" id="形状结合" fill="url(#linearGradient-4)"></path>
            </g>
        </g>
    </g>
</svg>