<?xml version="1.0" encoding="UTF-8"?>
<svg width="16px" height="16px" viewBox="0 0 16 16" version="1.1" xmlns="http://www.w3.org/2000/svg" xmlns:xlink="http://www.w3.org/1999/xlink">
    <title>ic/2备份 11</title>
    <g id="页面-1" stroke="none" stroke-width="1" fill="none" fill-rule="evenodd">
        <g id="模型管理-添加算法模型4备份" transform="translate(-1852.000000, -739.000000)">
            <g id="矩形备份-34" transform="translate(1232.000000, 717.000000)">
                <g id="编组备份" transform="translate(620.000000, 22.000000)">
                    <rect id="矩形复制-6" fill="#666E82" x="0" y="3.5" width="16" height="1.5" rx="0.75"></rect>
                    <rect id="矩形复制-6备份" fill="#666E82" x="5.5" y="7" width="1.5" height="5" rx="0.75"></rect>
                    <rect id="矩形复制-6备份-3" fill="#666E82" x="9" y="7" width="1.5" height="5" rx="0.75"></rect>
                    <path d="M13,4.25 L13.25,13 C13.25,13.6213203 12.9981602,14.1838203 12.5909903,14.5909903 C12.1838203,14.9981602 11.6213203,15.25 11,15.25 L5,15.25 C4.37867966,15.25 3.81617966,14.9981602 3.40900974,14.5909903 C3.00183983,14.1838203 2.75,13.6213203 2.75,13 L2.75,4.5 L13,4.25 Z" id="矩形" stroke="#666E82" stroke-width="1.5"></path>
                    <path d="M8,0.75 C8.89746272,0.75 9.70996272,1.11376864 10.298097,1.70190296 C10.8862314,2.29003728 11.25,3.10253728 11.25,4 L4.75949947,4.25076134 C4.75,3.10253728 5.11376864,2.29003728 5.70190296,1.70190296 C6.29003728,1.11376864 7.10253728,0.75 8,0.75 Z" id="形状结合" stroke="#666E82" stroke-width="1.5"></path>
                </g>
            </g>
        </g>
    </g>
</svg>