<svg width="24" height="24" viewBox="0 0 24 24" fill="none" xmlns="http://www.w3.org/2000/svg">
<g id="&#231;&#159;&#169;&#229;&#189;&#162;">
<g id="ic_&#230;&#148;&#175;&#230;&#140;&#129;&#229;&#190;&#174;&#232;&#176;&#131;">
<rect id="&#231;&#159;&#169;&#229;&#189;&#162;_2" width="24" height="24" rx="8" fill="#7D77F5" fill-opacity="0.8"/>
</g>
<path id="Vector" d="M13.6758 13.3086H16.1133C16.1914 13.3086 16.2682 13.3293 16.3359 13.3682C16.4037 13.4072 16.4607 13.4636 16.5 13.5312V13.5322L17.7129 15.6172C17.7525 15.6854 17.7734 15.7629 17.7734 15.8418C17.7734 15.9206 17.7525 15.9982 17.7129 16.0664V16.0674L16.5 18.1523C16.4607 18.2201 16.4038 18.2764 16.3359 18.3154C16.2682 18.3544 16.1914 18.375 16.1133 18.375H13.6758L13.6182 18.3711C13.5602 18.3635 13.5041 18.3448 13.4531 18.3154C13.4023 18.2862 13.3578 18.2473 13.3223 18.2012L13.29 18.1523L12.0771 16.0674V16.0664C12.0375 15.9982 12.0166 15.9207 12.0166 15.8418C12.0166 15.7826 12.0282 15.7242 12.0508 15.6699L12.0771 15.6172L13.2891 13.5312C13.3284 13.4637 13.3844 13.4072 13.4521 13.3682C13.52 13.3291 13.5975 13.3086 13.6758 13.3086ZM6.7832 9.61133H9.22266C9.30076 9.61133 9.37758 9.63201 9.44531 9.6709C9.50803 9.70701 9.56092 9.75839 9.59961 9.81934L9.6084 9.83496L10.8193 11.9199C10.8589 11.9881 10.8799 12.0657 10.8799 12.1445C10.8798 12.2233 10.8589 12.301 10.8193 12.3691L9.6084 14.4541C9.56911 14.5216 9.513 14.5782 9.44531 14.6172C9.37746 14.6562 9.29993 14.6768 9.22168 14.6768H6.78418C6.7061 14.6767 6.62922 14.6561 6.56152 14.6172C6.49376 14.5782 6.43678 14.5217 6.39746 14.4541H6.39648L5.18555 12.3691C5.14596 12.301 5.12506 12.2233 5.125 12.1445C5.125 12.0855 5.13667 12.0268 5.15918 11.9727L5.18555 11.9199L6.39648 9.83496L6.39746 9.83398C6.43676 9.76645 6.49283 9.70989 6.56055 9.6709C6.62823 9.63196 6.70512 9.6114 6.7832 9.61133ZM13.3838 5.625H15.8213C15.8996 5.62499 15.9771 5.64551 16.0449 5.68457C16.11 5.72208 16.1641 5.77574 16.2031 5.83984L16.208 5.84863L17.4209 7.93262C17.4605 8.00075 17.4814 8.07842 17.4814 8.15723C17.4814 8.2163 17.4698 8.27491 17.4473 8.3291L17.4209 8.38184L16.208 10.4678C16.1686 10.5354 16.1118 10.5919 16.0439 10.6309C15.9762 10.6697 15.8994 10.6904 15.8213 10.6904H13.3838C13.3057 10.6904 13.2288 10.6698 13.1611 10.6309C13.1103 10.6016 13.0659 10.5627 13.0303 10.5166L12.998 10.4678L11.7861 8.38184C11.7465 8.31362 11.7256 8.23612 11.7256 8.15723C11.7256 8.07842 11.7465 8.00075 11.7861 7.93262L12.9971 5.84766C13.0364 5.77994 13.0933 5.72363 13.1611 5.68457C13.2289 5.64562 13.3056 5.625 13.3838 5.625Z" stroke="white" stroke-width="1.25"/>
</g>
</svg>
