<?xml version="1.0" encoding="UTF-8"?>
<svg width="24px" height="24px" viewBox="0 0 24 24" version="1.1" xmlns="http://www.w3.org/2000/svg" xmlns:xlink="http://www.w3.org/1999/xlink">
    <title>ic_支持文档</title>
    <g id="页面-1" stroke="none" stroke-width="1" fill="none" fill-rule="evenodd">
        <g id="模型管理-添加算法模型3" transform="translate(-1244.000000, -480.000000)">
            <g id="矩形备份-148" transform="translate(1232.000000, 464.000000)">
                <g id="ic_支持文档" transform="translate(12.000000, 16.000000)">
                    <rect id="矩形" fill-opacity="0.8" fill="#7D77F5" x="0" y="0" width="24" height="24" rx="8"></rect>
                    <g id="ic_文档_unselected" transform="translate(5.000000, 5.000000)">
                        <rect id="矩形" fill="#000000" fill-rule="nonzero" opacity="0" x="0" y="0" width="14" height="14"></rect>
                        <g id="ic_文档" transform="translate(1.400000, 0.700000)">
                            <path d="M9,0.625 C9.65583814,0.625 10.2495881,0.89083093 10.6793786,1.32062139 C11.1091691,1.75041186 11.375,2.34416186 11.375,3 L11.375,8.11296337 C11.375,8.7583935 11.1123154,9.37602664 10.647399,9.82372388 L8.68778405,11.7107605 C8.24523564,12.1369182 7.65476238,12.375 7.04038504,12.375 L3,12.375 C2.34416186,12.375 1.75041186,12.1091691 1.32062139,11.6793786 C0.89083093,11.2495881 0.625,10.6558381 0.625,10 L0.625,3 C0.625,2.34416186 0.89083093,1.75041186 1.32062139,1.32062139 C1.75041186,0.89083093 2.34416186,0.625 3,0.625 Z" id="矩形备份-4" stroke="#FFFFFF" stroke-width="1.25" transform="translate(6.000000, 6.500000) scale(1, -1) translate(-6.000000, -6.500000) "></path>
                            <path d="M3.075,3.5 L7.425,3.5 C7.77017797,3.5 8.05,3.77982203 8.05,4.125 C8.05,4.47017797 7.77017797,4.75 7.425,4.75 L3.075,4.75 C2.72982203,4.75 2.45,4.47017797 2.45,4.125 C2.45,3.77982203 2.72982203,3.5 3.075,3.5 Z" id="矩形备份-7" fill="#FFFFFF"></path>
                            <path d="M3.075,5.75 L4.275,5.75 C4.62017797,5.75 4.9,6.02982203 4.9,6.375 C4.9,6.72017797 4.62017797,7 4.275,7 L3.075,7 C2.72982203,7 2.45,6.72017797 2.45,6.375 C2.45,6.02982203 2.72982203,5.75 3.075,5.75 Z" id="矩形备份-9" fill="#FFFFFF"></path>
                        </g>
                    </g>
                </g>
            </g>
        </g>
    </g>
</svg>