<?xml version="1.0" encoding="UTF-8"?>
<svg width="16px" height="16px" viewBox="0 0 16 16" version="1.1" xmlns="http://www.w3.org/2000/svg" xmlns:xlink="http://www.w3.org/1999/xlink">
    <title>ic_编辑备份</title>
    <g id="页面-1" stroke="none" stroke-width="1" fill="none" fill-rule="evenodd">
        <g id="模型管理-未上架" transform="translate(-259.000000, -256.000000)">
            <g id="编组-2" transform="translate(255.000000, 252.000000)">
                <g id="编组" transform="translate(4.000000, 4.000000)">
                    <g id="232编辑、输入备份" fill-rule="nonzero">
                        <rect id="矩形" fill="#000000" opacity="0" x="0" y="0" width="16" height="16"></rect>
                        <path d="M1,14.25 C1,14.6642136 1.33578644,15 1.75,15 L14.25,15 C14.6642136,15 15,14.6642136 15,14.25 C15,13.8357864 14.6642136,13.5 14.25,13.5 L1.75,13.5 C1.33578644,13.5 1,13.8357864 1,14.25 Z" id="路径" fill="#364052"></path>
                    </g>
                    <path d="M11.7573593,1.57842712 C12.0772622,1.57842712 12.3971651,1.70046597 12.6412428,1.94454365 L14.0554564,3.35875721 C14.299534,3.60283489 14.4215729,3.92273779 14.4215729,4.24264069 C14.4215729,4.56254358 14.299534,4.88244648 14.0554853,5.12649518 L7.43178755,11.7494691 L4.24990556,11.7498987 L4.24950479,8.56709526 L10.8734758,1.94454365 C11.1175535,1.70046597 11.4374564,1.57842712 11.7573593,1.57842712 Z" id="形状结合" stroke="#364052" stroke-width="1.5"></path>
                    <rect id="矩形复制-6备份-4" fill="#364052" transform="translate(10.757210, 5.199686) rotate(-45.000000) translate(-10.757210, -5.199686) " x="10.0072099" y="2.69968567" width="1.5" height="5" rx="0.75"></rect>
                </g>
            </g>
        </g>
    </g>
</svg>