<svg width="12" height="12" viewBox="0 0 12 12" fill="none" xmlns="http://www.w3.org/2000/svg">
<g id="Component 1611/&#233;&#187;&#152;&#232;&#174;&#164;/&#231;&#138;&#182;&#230;&#128;&#129;6">
<path id="Subtract" d="M6.00391 0.999512C8.76533 0.999512 11.0039 3.23809 11.0039 5.99951C11.0039 8.76094 8.76533 10.9995 6.00391 10.9995C3.24248 10.9995 1.00391 8.76094 1.00391 5.99951C1.00391 3.23809 3.24248 0.999512 6.00391 0.999512ZM5.69434 7.59131C5.67577 7.59131 5.66057 7.60605 5.66016 7.62451V8.23877C5.66034 8.25744 5.67562 8.27295 5.69434 8.27295H6.30762C6.32595 8.27249 6.34162 8.25716 6.3418 8.23877V7.62451C6.34139 7.60632 6.32581 7.59174 6.30762 7.59131H5.69434ZM5.69434 3.72607C5.67572 3.72607 5.6605 3.74172 5.66016 3.76025V6.87451C5.66042 6.89312 5.67567 6.90869 5.69434 6.90869H6.30762C6.3259 6.90823 6.34155 6.89284 6.3418 6.87451V3.76025C6.34146 3.74199 6.32586 3.72652 6.30762 3.72607H5.69434Z" fill="#EE5A55"/>
</g>
</svg>
