<?xml version="1.0" encoding="UTF-8"?>
<svg width="24px" height="24px" viewBox="0 0 24 24" version="1.1" xmlns="http://www.w3.org/2000/svg" xmlns:xlink="http://www.w3.org/1999/xlink">
    <title>ic_支持视觉</title>
    <defs>
        <linearGradient x1="50%" y1="27.6439996%" x2="50%" y2="100%" id="linearGradient-1">
            <stop stop-color="#FFFFFF" offset="0%"></stop>
            <stop stop-color="#FFFFFF" stop-opacity="0.6" offset="100%"></stop>
        </linearGradient>
    </defs>
    <g id="页面-1" stroke="none" stroke-width="1" fill="none" fill-rule="evenodd">
        <g id="模型管理-添加算法模型3" transform="translate(-1244.000000, -420.000000)">
            <g id="矩形备份-147" transform="translate(1232.000000, 404.000000)">
                <g id="ic_支持视觉" transform="translate(12.000000, 16.000000)">
                    <rect id="矩形" fill-opacity="0.8" fill="#7D77F5" x="0" y="0" width="24" height="24" rx="8"></rect>
                    <g id="编组-2" transform="translate(5.000000, 6.750000)" stroke="#FFFFFF" stroke-width="1.25">
                        <g id="编组">
                            <path d="M7,0.625 C8.72337313,0.625 10.1040699,1.20144666 11.1361436,1.97550197 C12.5713993,3.05194375 13.375,4.51500865 13.375,5.25 C13.375,5.98499135 12.5713993,7.44805625 11.1361436,8.52449803 C10.1040699,9.29855334 8.72337313,9.875 7,9.875 C5.27662687,9.875 3.89593012,9.29855334 2.86385637,8.52449803 C1.42860067,7.44805625 0.625,5.98499135 0.625,5.25 C0.625,4.51500865 1.42860067,3.05194375 2.86385637,1.97550197 C3.89593012,1.20144666 5.27662687,0.625 7,0.625 Z" id="椭圆形"></path>
                        </g>
                    </g>
                    <path d="M14.0747214,10.718557 C14.0747214,11.1724751 13.718626,11.5358166 13.2714365,11.5358166 C12.8221106,11.5357696 12.457885,11.1715059 12.457885,10.72218 C12.457885,10.2728542 12.8221106,9.9085905 13.2714365,9.90854353 C13.3273351,9.90854353 13.3763328,9.92941928 13.4322315,9.93649288 C13.0140755,9.63842126 12.5137738,9.47736026 12.0002588,9.47550119 C10.6172837,9.47550119 9.5,10.6069321 9.5,12.0035368 C9.5,13.3930679 10.6172837,14.5244988 12.0002588,14.5244988 C13.3832338,14.5244988 14.5,13.3930679 14.5,12.0035368 C14.4992788,11.4856838 14.3382417,10.9807554 14.0390083,10.558107 C14.0531555,10.6141783 14.0735137,10.6630033 14.0735137,10.718557 L14.0747214,10.718557 Z" id="路径" fill="url(#linearGradient-1)" fill-rule="nonzero"></path>
                </g>
            </g>
        </g>
    </g>
</svg>