<?xml version="1.0" encoding="UTF-8"?>
<svg width="24px" height="24px" viewBox="0 0 24 24" version="1.1" xmlns="http://www.w3.org/2000/svg" xmlns:xlink="http://www.w3.org/1999/xlink">
    <title>切片</title>
    <defs>
        <linearGradient x1="13.2742712%" y1="40.5026113%" x2="83.6632784%" y2="59.421294%" id="linearGradient-1">
            <stop stop-color="#37FFFA" offset="0%"></stop>
            <stop stop-color="#3B6FF6" offset="54.2531687%"></stop>
            <stop stop-color="#9C79FF" offset="100%"></stop>
        </linearGradient>
        <path d="M24,10.2857143 L24,21.0857143 C24,21.748456 23.4627417,22.2857143 22.8,22.2857143 L1.2,22.2857143 C0.5372583,22.2857143 0,21.748456 0,21.0857143 L0,10.2857143 L24,10.2857143 Z" id="path-2"></path>
    </defs>
    <g id="页面-1" stroke="none" stroke-width="1" fill="none" fill-rule="evenodd">
        <g id="模型管理-添加算法模型4备份" transform="translate(-1248.000000, -733.000000)">
            <g id="矩形备份-34" transform="translate(1232.000000, 717.000000)">
                <g id="ic_pdf备份" transform="translate(16.000000, 16.000000)">
                    <g id="编组" transform="translate(0.000000, 0.000000)">
                        <g id="zip" fill-rule="nonzero">
                            <path d="M1.2,0 L22.8,0 C23.6,0 24,0.4 24,1.2 L24,22.8 C24,23.6 23.6,24 22.8,24 L1.2,24 C0.4,24 0,23.6 0,22.8 L0,1.2 C0,0.4 0.4,0 1.2,0 Z" id="路径" fill="#EBECF0"></path>
                            <path d="M24,21.6 L24,22.8 C24,23.4627417 23.4627417,24 22.8,24 L1.2,24 C0.5372583,24 0,23.4627417 0,22.8 L0,21.6 L0,12.3437634 L24,12.3437634 L24,21.6 Z" id="路径" fill="#5E6C84"></path>
                            <g id="路径">
                                <use fill="#97A0AF" xlink:href="#path-2"></use>
                                <use fill-opacity="0.1" fill="url(#linearGradient-1)" xlink:href="#path-2"></use>
                            </g>
                            <path d="M9.12,0 L11.28,0 C11.56,0 11.7,0.14 11.7,0.42 L11.7,0.78 C11.7,1.06 11.56,1.2 11.28,1.2 L9.12,1.2 C8.84,1.2 8.7,1.06 8.7,0.78 L8.7,0.42 C8.7,0.14 8.84,0 9.12,0 Z M12.72,1.2 L14.88,1.2 C15.16,1.2 15.3,1.34 15.3,1.62 L15.3,1.98 C15.3,2.26 15.16,2.4 14.88,2.4 L12.72,2.4 C12.44,2.4 12.3,2.26 12.3,1.98 L12.3,1.62 C12.3,1.34 12.44,1.2 12.72,1.2 Z M9.12,2.4 L11.28,2.4 C11.56,2.4 11.7,2.54 11.7,2.82 L11.7,3.18 C11.7,3.46 11.56,3.6 11.28,3.6 L9.12,3.6 C8.84,3.6 8.7,3.46 8.7,3.18 L8.7,2.82 C8.7,2.54 8.84,2.4 9.12,2.4 Z M12.72,3.6 L14.88,3.6 C15.16,3.6 15.3,3.74 15.3,4.02 L15.3,4.38 C15.3,4.66 15.16,4.8 14.88,4.8 L12.72,4.8 C12.44,4.8 12.3,4.66 12.3,4.38 L12.3,4.02 C12.3,3.74 12.44,3.6 12.72,3.6 L12.72,3.6 Z M9.12,4.8 L11.28,4.8 C11.56,4.8 11.7,4.94 11.7,5.22 L11.7,5.58 C11.7,5.86 11.56,6 11.28,6 L9.12,6 C8.84,6 8.7,5.86 8.7,5.58 L8.7,5.22 C8.7,4.94 8.84,4.8 9.12,4.8 Z M12.72,6 L14.88,6 C15.16,6 15.3,6.14 15.3,6.42 L15.3,6.78 C15.3,7.06 15.16,7.2 14.88,7.2 L12.72,7.2 C12.44,7.2 12.3,7.06 12.3,6.78 L12.3,6.42 C12.3,6.14 12.44,6 12.72,6 Z M12.72,8.4 L14.88,8.4 C15.16,8.4 15.3,8.54 15.3,8.82 L15.3,9.18 C15.3,9.46 15.16,9.6 14.88,9.6 L12.72,9.6 C12.44,9.6 12.3,9.46 12.3,9.18 L12.3,8.82 C12.3,8.54 12.44,8.4 12.72,8.4 Z M9.12,9.6 L11.28,9.6 C11.56,9.6 11.7,9.74 11.7,10.02 L11.7,10.38 C11.7,10.66 11.56,10.8 11.28,10.8 L9.12,10.8 C8.84,10.8 8.7,10.66 8.7,10.38 L8.7,10.02 C8.7,9.74 8.84,9.6 9.12,9.6 Z M9.12,7.2 L11.28,7.2 C11.56,7.2 11.7,7.34 11.7,7.62 L11.7,7.98 C11.7,8.26 11.56,8.4 11.28,8.4 L9.12,8.4 C8.84,8.4 8.7,8.26 8.7,7.98 L8.7,7.62 C8.7,7.34 8.84,7.2 9.12,7.2 Z" id="形状" fill="#5E6C84"></path>
                            <path d="M10.968,18.636 L7.2,18.636 L7.2,18 L9.816,14.628 L7.416,14.628 L7.416,13.848 L11.016,13.848 L11.016,14.4 L8.316,17.844 L10.968,17.844 L10.968,18.636 Z M12.72,18.66 L11.892,18.66 L11.892,13.86 L12.72,13.86 L12.72,18.66 Z M13.824,13.86 L15.96,13.86 C16.3512004,13.8429331 16.732482,13.9859137 17.016,14.256 C17.2904154,14.5277538 17.4383985,14.9020639 17.424,15.288 C17.4386652,15.6716763 17.2955592,16.0446191 17.028,16.32 C16.7334232,16.5957027 16.3388246,16.7387989 15.936,16.716 L14.64,16.716 L14.64,18.636 L13.812,18.636 L13.824,13.86 Z M14.652,15.924 L15.756,15.924 C15.9831769,15.943317 16.2105044,15.88859 16.404,15.768 C16.544155,15.6398525 16.6153681,15.4529182 16.596,15.264 C16.596,14.848 16.32,14.64 15.768,14.64 L14.64,14.64 L14.652,15.924 Z" id="形状" fill="#FFFFFF"></path>
                        </g>
                        <rect id="矩形备份-3" fill="#4E6FD2" style="mix-blend-mode: lighten;" x="0" y="0" width="24" height="24" rx="1"></rect>
                    </g>
                </g>
            </g>
        </g>
    </g>
</svg>