<svg width="24" height="24" viewBox="0 0 24 24" fill="none" xmlns="http://www.w3.org/2000/svg">
<g id="&#230;&#149;&#176;&#230;&#141;&#174;&#229;&#164;&#132;&#231;&#144;&#134;&#230;&#181;&#129;&#233;&#133;&#141;&#231;&#189;&#174;">
<rect id="Rectangle 1004" width="24" height="24" rx="6" fill="#1677FF"/>
<g id="Frame" clip-path="url(#clip0_2977_229063)">
<path id="Vector" d="M10.8781 5C10.8784 5 10.8787 5.00006 10.8789 5.00019L15.3582 7.26114C15.653 7.40995 15.8389 7.71205 15.8389 8.04228V9.02758H14.7374V8.07558L11.9801 6.68811V17.3185L14.73 15.9311V14.9791H15.8316V15.9577C15.8316 16.288 15.6457 16.5901 15.3509 16.7389L12.1404 18.3593C11.5585 18.6531 10.8712 18.2301 10.8712 17.5782V5.00695C10.8712 5.00311 10.8743 5 10.8781 5ZM6.80674 17.6449C6.56774 17.643 6.33909 17.5472 6.17009 17.3782C6.00109 17.2092 5.90529 16.9806 5.90337 16.7416C5.90337 16.4203 6.07432 16.1189 6.35505 15.962C6.49137 15.8795 6.64979 15.8389 6.806 15.8389C7.04487 15.8409 7.27341 15.9366 7.44239 16.1054C7.61137 16.2742 7.70725 16.5027 7.70937 16.7416C7.70937 17.0636 7.53842 17.3649 7.25842 17.5226C7.12137 17.6037 6.96589 17.6457 6.80674 17.6449ZM7.93558 14.9356C7.63697 14.9335 7.35119 14.8139 7.13997 14.6029C6.92875 14.3918 6.80905 14.1061 6.80674 13.8075C6.80674 13.4044 7.02558 13.0308 7.37411 12.8297C7.55242 12.7332 7.744 12.6772 7.93558 12.6772C8.12716 12.6772 8.32611 12.7265 8.49558 12.8297C8.84484 13.0308 9.06442 13.4044 9.06442 13.8067C9.06211 14.1054 8.94244 14.3912 8.73124 14.6024C8.52004 14.8136 8.23425 14.9333 7.93558 14.9356ZM18.0966 14.0322C17.9419 14.0322 17.7798 13.9917 17.6449 13.9099C17.5085 13.8299 17.3951 13.7159 17.316 13.579C17.2368 13.4421 17.1945 13.287 17.1933 13.1288C17.1933 12.8105 17.3686 12.5114 17.6442 12.3478C17.7798 12.2667 17.9345 12.2255 18.0966 12.2255C18.2514 12.2255 18.4135 12.2667 18.5476 12.3478C18.8246 12.5114 19 12.8098 19 13.1288C19 13.4479 18.8246 13.7478 18.5483 13.9099C18.4113 13.9909 18.2551 14.0337 18.0966 14.0322ZM15.3836 14.0322C15.156 14.0321 14.9368 13.946 14.77 13.7912C14.6032 13.6364 14.501 13.4243 14.4839 13.1974V13.1296C14.4839 12.6337 14.8906 12.2255 15.3909 12.2255C15.892 12.2255 16.2899 12.6337 16.2899 13.1296C16.2878 13.3689 16.1915 13.5979 16.0219 13.7668C15.8523 13.9357 15.623 14.0311 15.3836 14.0322ZM9.06516 11.7745C8.90747 11.7745 8.74979 11.7333 8.61347 11.6507C8.47671 11.5714 8.36303 11.4578 8.28367 11.3211C8.20432 11.1843 8.16205 11.0292 8.16105 10.8712C8.16105 10.5499 8.33274 10.2485 8.61274 10.0908C8.74979 10.0083 8.90747 9.96779 9.06442 9.96779C9.22211 9.96779 9.37905 10.0083 9.51684 10.0908C9.65342 10.1701 9.76679 10.2839 9.84559 10.4208C9.92439 10.5577 9.96586 10.7129 9.96586 10.8708C9.96586 11.0287 9.92439 11.1839 9.84559 11.3208C9.76679 11.4576 9.65342 11.5714 9.51684 11.6507C9.37896 11.729 9.22369 11.7716 9.06516 11.7745ZM15.3836 11.7745C15.1559 11.7744 14.9366 11.6882 14.7698 11.5333C14.6029 11.3783 14.5008 11.166 14.4839 10.9389V10.8704C14.4839 10.3753 14.8906 9.96779 15.3909 9.96779C15.892 9.96779 16.2899 10.3753 16.2899 10.8712C16.288 11.1107 16.1918 11.3398 16.0221 11.5088C15.8525 11.6779 15.6231 11.7734 15.3836 11.7745ZM18.0966 11.7745C17.9419 11.7745 17.7798 11.7333 17.6449 11.6522C17.5085 11.5722 17.3951 11.4582 17.316 11.3213C17.2368 11.1844 17.1945 11.0293 17.1933 10.8712C17.1933 10.5514 17.3686 10.2522 17.6442 10.0901C17.7798 10.0091 17.9345 9.96779 18.0966 9.96779C18.2514 9.96779 18.4135 10.0091 18.5476 10.0901C18.8246 10.2522 19 10.5514 19 10.8712C19 11.1895 18.8246 11.4886 18.5483 11.6522C18.4113 11.7333 18.2551 11.776 18.0966 11.7745ZM5.90337 9.96705C5.66427 9.96589 5.43528 9.87044 5.26613 9.70144C5.09699 9.53244 5.00136 9.30352 5 9.06442C5 8.74316 5.17095 8.44179 5.45095 8.28484C5.58874 8.20232 5.74568 8.16105 5.90337 8.16105C6.06105 8.16105 6.218 8.20232 6.35432 8.28484C6.63505 8.44842 6.80674 8.74316 6.80674 9.06442C6.80674 9.38568 6.63505 9.68705 6.35505 9.84474C6.218 9.92505 6.06253 9.96705 5.90337 9.96705ZM8.16105 7.70937C7.92231 7.70725 7.69395 7.61148 7.52513 7.44266C7.35631 7.27384 7.26054 7.04548 7.25842 6.80674C7.25842 6.48474 7.43011 6.18411 7.71011 6.02642C7.84716 5.94389 8.00411 5.90337 8.16105 5.90337C8.40005 5.90529 8.6287 6.00109 8.7977 6.17009C8.9667 6.33909 9.06249 6.56774 9.06442 6.80674C9.06442 7.128 8.89347 7.42937 8.61347 7.58632C8.47642 7.66737 8.32021 7.71011 8.16105 7.70937Z" fill="white"/>
</g>
</g>
<defs>
<clipPath id="clip0_2977_229063">
<rect width="14" height="14" fill="white" transform="translate(5 5)"/>
</clipPath>
</defs>
</svg>
