<svg width="24" height="24" viewBox="0 0 24 24" fill="none" xmlns="http://www.w3.org/2000/svg">
<g id="&#230;&#149;&#176;&#230;&#141;&#174;&#229;&#164;&#132;&#231;&#144;&#134;&#230;&#181;&#129;&#233;&#133;&#141;&#231;&#189;&#174;">
<rect id="Rectangle 1004" width="24" height="24" rx="6" fill="#9E67EB"/>
<g id="Frame">
<path id="Vector" d="M15.283 8.7698H13.995V10.059H15.2842V8.7698H15.283ZM12.6732 8.7698H11.3846V10.059H12.6738V8.7698H12.6732ZM10.0056 8.7698H8.71642V10.059H10.0056V8.7698ZM10.0056 11.3598H8.71642V12.649H10.0056V11.3598ZM10.0056 14.0793H8.71642V15.3685H10.0056V14.0793ZM12.6732 14.0793H11.3846V15.3685H12.6738V14.0793H12.6732ZM15.283 14.0793H13.995V15.3685H15.2842V14.0793H15.283ZM15.283 11.3604H13.995V12.6495H15.2842V11.3604H15.283ZM7.93708 15.362H6.90575C6.77034 15.362 6.63626 15.3354 6.51116 15.2835C6.38607 15.2317 6.27242 15.1557 6.17669 15.0599C6.08097 14.9642 6.00506 14.8505 5.95329 14.7253C5.90153 14.6002 5.87492 14.4661 5.875 14.3307V7.19713C5.875 6.6278 6.33642 6.16638 6.90575 6.16638H14.2523C14.8216 6.16638 15.283 6.6278 15.283 7.19713V8.13513H13.995V7.45497H7.16358V14.0729H7.93708V15.362ZM17.0942 17.9783H9.74425C9.47106 17.9774 9.20933 17.8684 9.01621 17.6752C8.82309 17.4819 8.71427 17.2202 8.7135 16.947V15.9804H10.0027V16.6891H16.8358V10.0689H16.0816V8.77972H17.0937C17.3669 8.78048 17.6286 8.88931 17.8219 9.08243C18.0151 9.27555 18.1241 9.53728 18.125 9.81047V16.947C18.1242 17.2202 18.0154 17.4819 17.8223 17.6752C17.6292 17.8684 17.3674 17.9774 17.0942 17.9783Z" fill="white"/>
</g>
</g>
</svg>
