<svg width="24" height="24" viewBox="0 0 24 24" fill="none" xmlns="http://www.w3.org/2000/svg">
<g id="&#230;&#149;&#176;&#230;&#141;&#174;&#229;&#164;&#132;&#231;&#144;&#134;&#230;&#181;&#129;&#233;&#133;&#141;&#231;&#189;&#174;">
<rect id="Rectangle 1004" width="24" height="24" rx="6" fill="#13C2C2"/>
<g id="Frame" clip-path="url(#clip0_2977_281982)">
<path id="Vector" d="M11.7965 16.5647C12.0526 17.3024 12.4921 17.9627 13.0737 18.4838C12.6144 18.5327 12.1368 18.5582 11.6461 18.5582C11.5818 18.5582 11.519 18.5539 11.4562 18.5539C11.392 18.5539 11.3292 18.5582 11.2642 18.5582C8.58575 18.5582 6.31184 17.7966 5.44141 16.7312V14.8188C5.45353 14.8049 5.4662 14.7915 5.47937 14.7786C6.37391 15.8228 8.62079 16.5647 11.2642 16.5647C11.3292 16.5647 11.392 16.5633 11.4562 16.5611C11.5212 16.5633 11.584 16.5647 11.6483 16.5647H11.7965ZM11.2664 10.999C8.62298 10.999 6.37609 10.2571 5.48303 9.21285C5.47008 9.19972 5.45766 9.18608 5.44578 9.17196V7.26024C6.31548 6.19413 8.59012 5.43323 11.2686 5.43323C11.3314 5.43323 11.3942 5.43762 11.4606 5.43762C11.5234 5.43762 11.5855 5.43323 11.6505 5.43323C14.3297 5.43323 16.6036 6.19485 17.4711 7.26024V9.17196C17.4608 9.18657 17.4484 9.19971 17.436 9.21285C16.5408 10.2571 14.2917 10.999 11.6483 10.999C11.584 10.999 11.5212 10.9968 11.4584 10.9946C11.3942 10.9946 11.3314 10.999 11.2664 10.999ZM11.2664 14.7808C8.58791 14.7808 6.31329 14.0192 5.44141 12.9552V11.0421L5.48011 11.0004C6.37464 12.0447 8.62152 12.7873 11.2649 12.7873C11.3299 12.7873 11.3927 12.7851 11.457 12.7829C11.522 12.7851 11.5848 12.7873 11.649 12.7873C11.8097 12.7873 11.9703 12.7851 12.1288 12.7785C11.785 13.3918 11.5866 14.0758 11.549 14.7779L11.4592 14.7757C11.3949 14.7757 11.3321 14.7801 11.2671 14.7801L11.2664 14.7808ZM12.6684 14.4558C12.8495 12.9888 14.0792 11.8519 15.5762 11.8519C16.4685 11.8519 17.2593 12.263 17.7997 12.8997L18.3875 12.4594L18.573 14.9239L16.3093 14.0133L16.9124 13.5628C16.7435 13.3759 16.5373 13.2264 16.3072 13.1238C16.0771 13.0212 15.8281 12.9677 15.5762 12.9669C14.705 12.9669 13.9565 13.5905 13.7813 14.4558H12.6684ZM15.5747 16.6903C16.4604 16.6903 17.1994 16.0492 17.3725 15.2036H18.4832C18.3021 16.6699 17.0709 17.8068 15.5762 17.8068C15.1318 17.8066 14.6934 17.7046 14.2947 17.5085C13.8959 17.3124 13.5474 17.0275 13.276 16.6757L12.7254 17.0394L12.6743 14.7669L14.7028 15.7294L14.2019 16.0609C14.5487 16.4596 15.0497 16.6896 15.5747 16.6896V16.6903Z" fill="white"/>
</g>
</g>
<defs>
<clipPath id="clip0_2977_281982">
<rect width="14" height="14" fill="white" transform="translate(5 5)"/>
</clipPath>
</defs>
</svg>
