<svg width="24" height="24" viewBox="0 0 24 24" fill="none" xmlns="http://www.w3.org/2000/svg">
<g id="&#230;&#149;&#176;&#230;&#141;&#174;&#229;&#164;&#132;&#231;&#144;&#134;&#230;&#181;&#129;&#233;&#133;&#141;&#231;&#189;&#174;">
<rect id="Rectangle 1004" width="24" height="24" rx="6" fill="#FAAD14"/>
<g id="Frame" clip-path="url(#clip0_2977_281990)">
<path id="Vector" d="M12.5944 9.76665C12.7484 9.66865 12.9024 9.61965 13.1054 9.61965C13.3084 9.61965 13.5114 9.67565 13.7074 9.82965L14.8344 8.73765C14.6874 8.53465 14.6384 8.33165 14.6384 8.12865C14.6454 7.57565 15.1074 7.12765 15.6674 7.14165C16.2274 7.14865 16.6754 7.61065 16.6684 8.16365C16.6614 8.71665 16.1994 9.16465 15.6394 9.15065C15.4854 9.15065 15.3384 9.09465 15.1844 9.04565L14.0014 10.1867C14.0504 10.3407 14.0994 10.4877 14.0994 10.6417C14.0924 11.1947 13.6304 11.6427 13.0704 11.6287C12.5104 11.6217 12.0624 11.1597 12.0694 10.6067C12.0694 10.4037 12.1254 10.2567 12.2304 10.1097L11.8804 9.75265C11.6774 9.94865 11.3694 10.0957 11.0614 10.0957C10.8584 10.0957 10.6554 10.0397 10.4594 9.88565L9.33944 10.9777C9.48644 11.1807 9.53544 11.3837 9.53544 11.5867C9.52844 12.1397 9.06644 12.5877 8.50644 12.5737C7.94644 12.5667 7.49844 12.1047 7.50544 11.5517C7.51244 10.9987 7.97444 10.5507 8.53444 10.5647C8.68844 10.5647 8.83544 10.6207 8.94044 10.6697L10.1234 9.52865C10.1234 9.37465 10.0744 9.22765 10.0814 9.07365C10.0884 8.52065 10.5504 8.07265 11.1104 8.08665C11.6704 8.09365 12.1184 8.55565 12.1114 9.10865V9.26265L12.5944 9.76665ZM14.4984 17.4247H7.77144C7.05744 17.4247 6.47644 16.8437 6.47644 16.1297V7.71565C6.47644 7.00165 7.05744 6.42065 7.77144 6.42065H16.2274C16.9414 6.42065 17.5224 7.00165 17.5224 7.71565V12.0277C17.5224 12.3287 17.7674 12.5667 18.0614 12.5667C18.3624 12.5667 18.6004 12.3217 18.6004 12.0277V7.71565C18.6004 6.40665 17.5364 5.34265 16.2274 5.34265H7.77144C6.46244 5.34265 5.39844 6.39965 5.39844 7.71565V16.1297C5.39844 17.4387 6.46244 18.5027 7.77144 18.5027H14.4984C14.7994 18.5027 15.0374 18.2577 15.0374 17.9637C15.0374 17.6627 14.7994 17.4247 14.4984 17.4247ZM15.1914 11.8737C13.8824 11.8737 12.8184 12.9377 12.8184 14.2467C12.8184 15.5557 13.8824 16.6197 15.1914 16.6197C16.5004 16.6197 17.5644 15.5557 17.5644 14.2467C17.5644 12.9377 16.5074 11.8737 15.1914 11.8737ZM15.1914 15.7517C14.3654 15.7517 13.6934 15.0797 13.6934 14.2537C13.6934 13.4277 14.3654 12.7557 15.1914 12.7557C16.0174 12.7557 16.6894 13.4277 16.6894 14.2537C16.6894 15.0797 16.0174 15.7517 15.1914 15.7517ZM17.7184 17.3757L16.4654 16.1227C16.2624 15.9197 16.2624 15.5907 16.4654 15.3877C16.6684 15.1847 16.9974 15.1847 17.2004 15.3877L18.4534 16.6407C18.6564 16.8437 18.6564 17.1727 18.4534 17.3757C18.2504 17.5717 17.9144 17.5717 17.7184 17.3757ZM8.37344 16.1577H7.98844C7.71544 16.1577 7.49144 15.9337 7.49144 15.6607V13.8407C7.49144 13.5677 7.71544 13.3437 7.98844 13.3437H8.37344C8.64644 13.3437 8.87044 13.5677 8.87044 13.8407V15.6607C8.87044 15.9337 8.64644 16.1577 8.37344 16.1577ZM10.1234 16.1577H9.84344C9.57044 16.1577 9.34644 15.9337 9.34644 15.6607V14.6177C9.34644 14.3447 9.57044 14.1207 9.84344 14.1207H10.1234C10.3964 14.1207 10.6204 14.3447 10.6204 14.6177V15.6607C10.6204 15.9337 10.3964 16.1577 10.1234 16.1577ZM11.9224 16.1577H11.6424C11.3694 16.1577 11.1454 15.9337 11.1454 15.6607V13.3367C11.1454 13.0637 11.3694 12.8397 11.6424 12.8397H11.9224C12.1954 12.8397 12.4194 13.0637 12.4194 13.3367V15.6607C12.4194 15.9337 12.1954 16.1577 11.9224 16.1577Z" fill="white"/>
</g>
</g>
<defs>
<clipPath id="clip0_2977_281990">
<rect width="14" height="14" fill="white" transform="translate(5 5)"/>
</clipPath>
</defs>
</svg>
