<svg width="24" height="24" viewBox="0 0 24 24" fill="none" xmlns="http://www.w3.org/2000/svg">
<g id="&#230;&#149;&#176;&#230;&#141;&#174;&#229;&#164;&#132;&#231;&#144;&#134;&#230;&#181;&#129;&#233;&#133;&#141;&#231;&#189;&#174;">
<rect id="Rectangle 1004" width="24" height="24" rx="6" fill="#FB58B1"/>
<g id="Frame" clip-path="url(#clip0_2977_281961)">
<path id="Vector" d="M12.0015 5.03503C12.3092 5.03512 12.6132 5.10314 12.8917 5.23425C13.1701 5.36536 13.4162 5.55633 13.6124 5.79352C13.8085 6.03071 13.9499 6.30827 14.0264 6.6064C14.1029 6.90452 14.1126 7.21586 14.0549 7.51818L16.9967 9.21758C17.2674 9.37391 17.4341 9.66271 17.4341 9.97525V13.3512C17.7435 13.4315 18.0303 13.5816 18.2726 13.7901C18.5149 13.9985 18.7062 14.2597 18.8318 14.5536C18.9574 14.8476 19.0139 15.1664 18.9971 15.4855C18.9802 15.8047 18.8904 16.1158 18.7346 16.3948C18.5788 16.6739 18.361 16.9135 18.0981 17.0953C17.8352 17.2771 17.5341 17.3961 17.218 17.4434C16.9019 17.4906 16.5792 17.4648 16.2746 17.3678C15.9701 17.2709 15.6918 17.1054 15.4611 16.8841L12.439 18.6276C12.1682 18.7838 11.8347 18.7837 11.5641 18.6274L8.54073 16.881C8.31021 17.1027 8.03189 17.2686 7.72719 17.3659C7.42249 17.4632 7.09953 17.4893 6.78315 17.4422C6.46678 17.3951 6.16543 17.2761 5.90228 17.0942C5.63914 16.9124 5.42122 16.6726 5.26529 16.3933C5.10936 16.114 5.01958 15.8027 5.00286 15.4833C4.98614 15.1639 5.04291 14.8449 5.16882 14.5508C5.29474 14.2568 5.48642 13.9956 5.72914 13.7872C5.97185 13.5789 6.25912 13.429 6.56885 13.3491V9.97418C6.56885 9.66166 6.73554 9.37286 7.00615 9.21653L9.94593 7.51818C9.88819 7.21569 9.89798 6.90417 9.97459 6.60589C10.0512 6.30761 10.1928 6.02994 10.3891 5.79271C10.5855 5.55549 10.8319 5.36456 11.1106 5.23358C11.3893 5.10261 11.6935 5.03481 12.0015 5.03503ZM10.4938 14.0559L9.11055 14.8349C9.21206 15.2143 9.20482 15.6146 9.08964 15.9902L11.5641 17.4189C11.8348 17.5751 12.1682 17.5752 12.4389 17.419L14.9101 15.9933C14.7941 15.6173 14.7864 15.2161 14.8882 14.8359L13.5081 14.057C13.3131 14.2601 13.079 14.4216 12.8198 14.5317C12.5607 14.6419 12.282 14.6984 12.0004 14.6979C11.719 14.6981 11.4404 14.6414 11.1814 14.531C10.9225 14.4207 10.6886 14.2591 10.4938 14.0559ZM10.3966 8.46753L8.05082 9.82193C7.78011 9.97823 7.61334 10.2671 7.61334 10.5797V13.3512C7.99392 13.4495 8.33267 13.6513 8.59615 13.9263L9.97939 13.1463C9.90866 12.8797 9.89127 12.6018 9.92825 12.3285C9.96522 12.0552 10.0558 11.7918 10.1948 11.5536C10.3339 11.3154 10.5186 11.107 10.7383 10.9404C10.9581 10.7738 11.2087 10.6522 11.4756 10.5827L11.4766 9.15236C11.054 9.04276 10.6764 8.80365 10.3966 8.46858V8.46753ZM13.6064 8.46753C13.3256 8.80373 12.9463 9.04327 12.5221 9.15236V10.5806C12.7898 10.6494 13.0411 10.7705 13.2616 10.9371C13.4821 11.1036 13.6674 11.3122 13.8069 11.5508C13.9463 11.7893 14.037 12.0532 14.0739 12.3271C14.1107 12.6009 14.0929 12.8794 14.0214 13.1463L15.4026 13.9242C15.6671 13.6492 16.0069 13.4474 16.3875 13.3491L16.3884 10.5787C16.3885 10.2661 16.2217 9.97714 15.951 9.82077L13.6064 8.46649V8.46753Z" fill="white"/>
</g>
</g>
<defs>
<clipPath id="clip0_2977_281961">
<rect width="14" height="14" fill="white" transform="translate(5 5)"/>
</clipPath>
</defs>
</svg>
