<svg xmlns="http://www.w3.org/2000/svg" xmlns:xlink="http://www.w3.org/1999/xlink" version="1.1" width="20" height="20" viewBox="0 0 20 20"><defs><clipPath id="master_svg0_253_21635"><rect x="0" y="0" width="20" height="20" rx="0"/></clipPath><linearGradient x1="0.5" y1="0" x2="0.5" y2="1" id="master_svg1_9_3591"><stop offset="0%" stop-color="#04D9BC" stop-opacity="1"/><stop offset="100%" stop-color="#03C0A6" stop-opacity="1"/></linearGradient></defs><g clip-path="url(#master_svg0_253_21635)"><g><path d="M13.269475,9.87637C13.269475,10.8004,12.777575,11.6154,12.018775,12.141L11.458775,11.6472C11.144275,11.375,10.677665,11.375,10.363225,11.6472C10.026645,11.9355,10.026645,12.4562,10.363225,12.7445L10.377745,12.7572C10.254305,12.7754,10.110895,12.7754,9.987465,12.7754C8.183055,12.7754,6.706315,11.4711,6.706315,9.87637C6.706315,8.28254,8.183055,6.97825,9.987465,6.97825C11.792775,6.97825,13.269475,8.28254,13.269475,9.87637ZM17.418375,2.78855C18.424075,3.19881,19.073875,4.13005,19.073875,5.16114L19.073875,9.00684C19.073875,13.8619,15.598575,18.4074,10.824315,19.8759C10.292135,20.0391,9.723445,20.0404,9.190545,19.8796C4.3981650000000005,18.4246,0.921875,13.8619,0.921875,9.00684L0.921875,5.16205C0.921875,4.13096,1.573566,3.19881,2.5792349999999997,2.78946L8.915524999999999,0.212645C9.616165,-0.0711953,10.399835,-0.0708697,11.100275,0.213552L17.418375,2.78855ZM13.187875,13.1739C14.233475,12.3769,14.910575,11.1988,14.910575,9.87637C14.910575,7.46747,12.715875,5.52874,9.987465,5.52874C7.259975,5.52874,5.065285,7.48563,5.065285,9.87637C5.065285,12.268,7.259975,14.2249,9.987465,14.2249C10.602845,14.2249,11.177375,14.116,11.731075,13.9526L12.680475,14.7913C12.989075,15.0636,13.468275,15.0636,13.776875,14.7913C14.112875,14.5026,14.112875,13.9826,13.776875,13.6939L13.187875,13.1739Z" fill="url(#master_svg1_9_3591)" fill-opacity="1"/></g></g></svg>