<svg xmlns="http://www.w3.org/2000/svg" xmlns:xlink="http://www.w3.org/1999/xlink" version="1.1" width="20" height="20" viewBox="0 0 20 20"><defs><clipPath id="master_svg0_259_12303"><rect x="0" y="0" width="20" height="20" rx="0"/></clipPath><linearGradient x1="-0.023528343066573143" y1="0" x2="0.622615396976471" y2="0.660778820514679" id="master_svg1_253_21867"><stop offset="0%" stop-color="#82A1FC" stop-opacity="1"/><stop offset="100%" stop-color="#4070FD" stop-opacity="1"/></linearGradient><filter id="master_svg2_259_12309" filterUnits="objectBoundingBox" color-interpolation-filters="sRGB" x="0" y="0" width="19.545373916625977" height="12.083642959594727"><feFlood flood-opacity="0" result="BackgroundImageFix"/><feBlend mode="normal" in="SourceGraphic" in2="BackgroundImageFix" result="shape"/><feGaussianBlur in="BackgroundImage" stdDeviation="1.8518520593643188"/><feComposite in2="SourceAlpha" operator="in" result="effect1_foregroundBlur"/><feBlend mode="normal" in="SourceGraphic" in2="effect1_foregroundBlur" result="shape"/></filter><linearGradient x1="0.23616255819797516" y1="0.05189855396747589" x2="0.9084680676460266" y2="0.60155189037323" id="master_svg3_253_21870"><stop offset="0%" stop-color="#FFFFFF" stop-opacity="1"/><stop offset="100%" stop-color="#FFFFFF" stop-opacity="0"/></linearGradient><filter id="master_svg4_259_12305" filterUnits="objectBoundingBox" color-interpolation-filters="sRGB" x="-3.333333730697632" y="-3.333333730697632" width="17.824076175689697" height="11.157408475875854"><feFlood flood-opacity="0" result="BackgroundImageFix"/><feColorMatrix in="SourceAlpha" type="matrix" values="0 0 0 0 0 0 0 0 0 0 0 0 0 0 0 0 0 0 127 0"/><feOffset dy="0.37037038803100586" dx="0.37037038803100586"/><feGaussianBlur stdDeviation="0.9259260296821594"/><feColorMatrix type="matrix" values="0 0 0 0 0.250980406999588 0 0 0 0 0.43921568989753723 0 0 0 0 0.9921568632125854 0 0 0 0.23999999463558197 0"/><feBlend mode="normal" in2="BackgroundImageFix" result="effect1_dropShadow"/><feBlend mode="normal" in="SourceGraphic" in2="effect1_dropShadow" result="shape"/></filter></defs><g clip-path="url(#master_svg0_259_12303)"><g><path d="M0,2.916015625C0,2.225659625,0.559644,1.666015823682,1.25,1.666015823682L5.67083,1.666015823682C6.03835,1.66580979,6.38734,1.827349625,6.625,2.107682625L7.65833,3.332685625L16.6667,3.332685625C17.357,3.332685625,17.9167,3.892325625,17.9167,4.582685625L17.9167,8.191015625L8.70417,17.941015625C8.46812,18.190915625,8.13959,18.332615625,7.79583,18.332715625L1.25,18.332715625C0.559644,18.332715625,0,17.773015625,0,17.082715625L0,2.916015625Z" fill-rule="evenodd" fill="url(#master_svg1_253_21867)" fill-opacity="1"/></g><g><path d="M6.25003296875,6.25021259L18.36674296875,6.25021259C19.47694296875,6.2325557,20.27064296875,7.31859,19.91674296875,8.37105L17.29584296875,16.129379999999998C16.84364296875,17.4521,15.59794296875,18.339,14.20004296875,18.3335L2.08336296875,18.3335C0.97662596875,18.345399999999998,0.18895096875,17.2618,0.54170096875,16.21271L3.16253296875,8.45438C3.61381296875,7.1345279999999995,4.85516296875,6.2483271,6.25003296875,6.25021259Z" fill-rule="evenodd" fill="#4070FD" fill-opacity="1"/></g><g filter="url(#master_svg2_259_12309)"><path d="M6.25003296875,6.25021259L18.36674296875,6.25021259C19.47694296875,6.2325557,20.27064296875,7.31859,19.91674296875,8.37105L17.29584296875,16.129379999999998C16.84364296875,17.4521,15.59794296875,18.339,14.20004296875,18.3335L2.08336296875,18.3335C0.97662596875,18.345399999999998,0.18895096875,17.2618,0.54170096875,16.21271L3.16253296875,8.45438C3.61381296875,7.1345279999999995,4.85516296875,6.2483271,6.25003296875,6.25021259Z" fill-rule="evenodd" fill="#FFFFFF" fill-opacity="0.6399999856948853"/></g><g style="opacity:0.44999998807907104;mix-blend-mode:screen"><path d="M6.25003296875,6.25021259L18.36674296875,6.25021259C19.47694296875,6.2325557,20.27064296875,7.31859,19.91674296875,8.37105L17.29584296875,16.129379999999998C16.84364296875,17.4521,15.59794296875,18.339,14.20004296875,18.3335L2.08336296875,18.3335C0.97662596875,18.345399999999998,0.18895096875,17.2618,0.54170096875,16.21271L3.16253296875,8.45438C3.61381296875,7.1345279999999995,4.85516296875,6.2483271,6.25003296875,6.25021259ZM6.24953296875,6.620582Q5.32229296875,6.6193290000000005,4.56763296875,7.158082Q3.81297296875,7.69684,3.51342296875,8.57291L0.89275696875,16.3308Q0.68911896875,16.9364,1.0648079687499998,17.453200000000002Q1.44049696875,17.97,2.08336296875,17.9632L14.20144296875,17.9632Q15.13074296875,17.9668,15.88774296875,17.427799999999998Q16.64474296875,16.8889,16.94494296875,16.010849999999998L19.56564296875,8.25298Q19.77004296875,7.6454,19.39174296875,7.1278749999999995Q19.01354296875,6.610343,18.36674296875,6.620583L6.25003296875,6.620583L6.24953296875,6.620582Z" fill-rule="evenodd" fill="url(#master_svg3_253_21870)" fill-opacity="1" style="mix-blend-mode:screen"/></g><g filter="url(#master_svg4_259_12305)"><path d="M7.70833,10L14.79167,10C15.1368,10,15.4167,10.279822,15.4167,10.625C15.4167,10.970178,15.1368,11.25,14.79167,11.25L7.70833,11.25C7.363160000000001,11.25,7.08333,10.970178,7.08333,10.625C7.08333,10.279822,7.363160000000001,10,7.70833,10ZM5.625,12.5L10.20833,12.5C10.55351,12.5,10.83333,12.77982,10.83333,13.125C10.83333,13.47018,10.55351,13.75,10.20833,13.75L5.625,13.75C5.279822,13.75,5,13.47018,5,13.125C5,12.77982,5.279822,12.5,5.625,12.5Z" fill-rule="evenodd" fill="#FFFFFF" fill-opacity="1"/></g></g></svg>