<svg xmlns="http://www.w3.org/2000/svg" xmlns:xlink="http://www.w3.org/1999/xlink" fill="none" version="1.1" width="49" height="49" viewBox="0 0 49 49"><defs><clipPath id="master_svg0_311_27888"><rect x="0" y="0" width="49" height="49" rx="24.5"/></clipPath></defs><g clip-path="url(#master_svg0_311_27888)"><rect x="0.5" y="0.5" width="48" height="48" rx="24" fill="#FFFFFF" fill-opacity="1"/><g><path d="M20.790588171691894,13.75L28.209818171691893,13.75Q28.951718171691894,13.75,28.951718171691894,14.49192Q28.951718171691894,15.23384,28.209818171691893,15.23384L20.790588171691894,15.23384Q20.048668171691894,15.23384,20.048668171691894,14.49192Q20.048668171691894,13.75,20.790588171691894,13.75ZM17.822808171691896,16.71484L31.919318171691895,16.71484Q32.6612181716919,16.71484,32.6612181716919,17.45676Q32.6612181716919,18.19868,31.919318171691895,18.19868L17.822808171691896,18.19868Q17.080888171691896,18.19868,17.080888171691896,17.45676Q17.080888171691896,16.71484,17.822808171691896,16.71484ZM19.361458171691893,35.2522L15.596958171691895,35.2522C14.777455171691894,35.2522,14.113118171691895,34.5878,14.113118171691895,33.768299999999996L14.113118171691895,21.15571C14.113118171691895,20.33621,14.777455171691894,19.67188,15.596958171691895,19.67188L33.4030181716919,19.67188C34.222518171691895,19.67188,34.886918171691896,20.33621,34.886918171691896,21.15571L34.886918171691896,33.768299999999996C34.886918171691896,34.5878,34.222518171691895,35.2522,33.4030181716919,35.2522L29.583618171691896,35.2522C28.370818171691894,34.553200000000004,27.498418171691895,33.3866,27.170918171691895,32.0256C26.968618171691894,31.2964,26.880018171691894,30.5404,26.908218171691892,29.7842L30.450918171691896,29.7842C30.696118171691893,29.5489,30.696118171691893,29.1567,30.450918171691896,28.9214L25.111318171691895,23.56473C24.876018171691896,23.31952,24.483818171691894,23.31952,24.248518171691895,23.56473L18.890338171691894,28.9221C18.649008171691897,29.159100000000002,18.649008171691897,29.548000000000002,18.890338171691894,29.785L22.040528171691896,29.785C22.064268171691893,30.1782,22.188918171691896,33.664500000000004,19.361458171691893,35.2522Z" fill="#4070FD" fill-opacity="1"/></g><rect x="0.5" y="0.5" width="48" height="48" rx="24" fill-opacity="0" stroke-opacity="1" stroke="#D9D9EB" fill="none" stroke-width="1"/></g></svg>