<svg xmlns="http://www.w3.org/2000/svg" xmlns:xlink="http://www.w3.org/1999/xlink" fill="none" version="1.1" width="49" height="49" viewBox="0 0 49 49"><defs><clipPath id="master_svg0_311_27908"><rect x="0" y="0" width="49" height="49" rx="24.5"/></clipPath><clipPath id="master_svg1_311_27910"><rect x="13.500003814697266" y="13.5" width="22.000001907348633" height="22.000001907348633" rx="0"/></clipPath></defs><g clip-path="url(#master_svg0_311_27908)"><rect x="0.5" y="0.5" width="48" height="48" rx="24" fill="#FFFFFF" fill-opacity="1"/><g clip-path="url(#master_svg1_311_27910)"><g><path d="M24.500003814697266,35.5C18.424873814697264,35.5,13.500003814697266,30.5751,13.500003814697266,24.5C13.500003814697266,18.42487,18.424873814697264,13.5,24.500003814697266,13.5C30.575103814697265,13.5,35.500003814697266,18.42487,35.500003814697266,24.5C35.500003814697266,30.5751,30.575103814697265,35.5,24.500003814697266,35.5ZM23.434583814697266,27.3961L20.288573814697266,24.212400000000002L18.214283814697264,26.194000000000003C19.722863814697266,27.0064,21.836433814697266,28.488300000000002,23.646703814697265,30.7857C24.925903814697264,28.3814,28.868603814697266,23.46286,30.785703814697264,23.02285C30.476203814697264,21.783,30.301703814697266,19.45571,30.785703814697264,18.21428Q26.854003814697265,20.80714,23.434583814697266,27.3961Z" fill="#34C7B0" fill-opacity="1"/></g></g><rect x="0.5" y="0.5" width="48" height="48" rx="24" fill-opacity="0" stroke-opacity="1" stroke="#D9D9EB" fill="none" stroke-width="1"/></g></svg>