<svg xmlns="http://www.w3.org/2000/svg" xmlns:xlink="http://www.w3.org/1999/xlink" version="1.1" width="20" height="20" viewBox="0 0 20 20"><defs><clipPath id="master_svg0_253_21631"><rect x="0" y="0" width="20" height="20" rx="0"/></clipPath><linearGradient x1="0" y1="0.0291315708309412" x2="1" y2="1" id="master_svg1_1_341"><stop offset="0%" stop-color="#4070FD" stop-opacity="1"/><stop offset="100%" stop-color="#757BEB" stop-opacity="1"/></linearGradient></defs><g clip-path="url(#master_svg0_253_21631)"><g><path d="M16.37225927734375,1.73894075C17.59605927734375,2.11190975,18.28705927734375,3.40064875,17.91405927734375,4.61446875C17.62105927734375,5.5718587500000005,16.75855927734375,6.19624875,15.80615927734375,6.23787875L15.68795927734375,6.23954875C15.26775927734375,6.17207875,14.84455927734375,6.34172875,14.58735927734375,6.68077875L13.03385927734375,8.727118749999999C12.63425927734375,9.25326875,12.41775927734375,9.89763875,12.41445927734375,10.55865875L12.41115927734375,12.46181875C12.41115927734375,12.97131875,12.67925927734375,13.43921875,13.11375927734375,13.69391875L13.20865927734375,13.74551875C14.08285927734375,14.37321875,14.52405927734375,15.48381875,14.25595927734375,16.56781875L14.21605927734375,16.71101875C13.77595927734375,18.13031875,12.26905927734375,18.92481875,10.84935927734375,18.48591875C9.42655927734375,18.05571875,8.62160927734375,16.553818749999998,9.05108927734375,15.13081875C9.21426927734375,14.59641875,9.53062927734375,14.14851875,9.93855927734375,13.82381875L10.05175927734375,13.74051875C10.55615927734375,13.50091875,10.87715927734375,12.99191875,10.87595927734375,12.43351875L10.87435927734375,10.49371875C10.87415927734375,10.18718875,10.64565927734375,9.92876875,10.34145927734375,9.89097875L7.94217927734375,9.59459875C7.29677927734375,9.51510875,6.65789927734375,9.78537875,6.26547927734375,10.30390875L6.19721927734375,10.40380875C5.30277927734375,11.49468875,3.83737927734375,11.93621875,2.48916927734375,11.52104875C0.66020727734375,10.96818875,-0.37493672265625,9.03800875,0.17642927734375,7.20859875C0.74124227734375,5.382478750000001,2.67927927734375,4.35978875,4.50553927734375,4.92415875C5.47957927734375,5.22220875,6.22884927734375,5.90653875,6.63345927734375,6.75570875L6.69672927734375,6.89889875C6.85212927734375,7.51788875,7.37208927734375,7.97765875,8.00544927734375,8.05609875L10.25655927734375,8.33416875C10.90265927734375,8.414088750000001,11.54035927734375,8.144348749999999,11.93325927734375,7.62651875L13.43515927734375,5.64845875C13.62265927734375,5.40168875,13.66985927734375,5.07576875,13.56005927734375,4.78596875L13.52175927734375,4.70104875C13.36185927734375,4.25148875,13.33855927734375,3.75197875,13.48845927734375,3.2607887499999997C13.85975927734375,2.04530775,15.15345927734375,1.36597175,16.37395927734375,1.73894075L16.37225927734375,1.73894075ZM18.63835927734375,8.843668749999999C19.65735927734375,9.15502875,20.23185927734375,10.22897875,19.92375927734375,11.24132875C19.60985927734375,12.25611875,18.53255927734375,12.82421875,17.51785927734375,12.51011875C16.50125927734375,12.20251875,15.92645927734375,11.12901875,16.23405927734375,10.11242875C16.54805927734375,9.09844875,17.62415927734375,8.53057875,18.63835927734375,8.843668749999999Z" fill="url(#master_svg1_1_341)" fill-opacity="1"/></g></g></svg>