<svg xmlns="http://www.w3.org/2000/svg" xmlns:xlink="http://www.w3.org/1999/xlink" fill="none" version="1.1" width="36" height="36" viewBox="0 0 36 36"><defs><clipPath id="master_svg0_303_30602"><rect x="0" y="0" width="36" height="36" rx="0"/></clipPath></defs><g clip-path="url(#master_svg0_303_30602)"><g><path d="M7.772909374999999,2.453125L22.091059375,2.453125L22.500159375,2.862216L22.500159375,6.544035L26.386559375,10.225855L30.272859375,10.225855L30.681959375,10.634945L30.681959375,31.498625C30.681959375,32.854225,29.583059375,33.953125,28.227459375,33.953125L7.772909374999999,33.953125C6.417299375,33.953125,5.318359375,32.854225,5.318359375,31.498625L5.318359375,4.907674999999999C5.318359375,3.552065,6.417299375,2.453125,7.772909374999999,2.453125Z" fill="#F2502C" fill-opacity="1" style="mix-blend-mode:passthrough"/></g><g><path d="M12.0485109375,22.2316C11.4579409375,21.00739,11.2944309375,20.01228,11.5579309375,19.24621C11.7018909375,18.827837,11.955520937500001,18.507395,12.3188409375,18.284891000000002C12.6290109375,18.0949506,12.984140937500001,18,13.3842709375,18C13.612950937499999,18,13.8305909375,18.0414,14.0371809375,18.124241C14.2666409375,18.216204,14.469470937499999,18.353945,14.6455809375,18.537505C14.9894209375,18.895827,15.2030109375,19.39934,15.2864209375,20.04807C15.4040809375,20.963540000000002,15.2599909375,22.1879,14.8542209375,23.72122C14.9521509375,23.86432,15.055000937500001,24.01278,15.1627509375,24.16664C15.5470109375,24.71535,15.9427709375,25.26194,16.349930937499998,25.80648C16.8993509375,25.762340000000002,17.402570937500002,25.759059999999998,17.8595609375,25.79662C18.803860937499998,25.87422,19.5388609375,26.12389,20.064560937499998,26.54558C20.3256609375,26.755000000000003,20.524960937499998,26.99861,20.6626609375,27.27642C20.7940609375,27.541800000000002,20.8610609375,27.82002,20.8634609375,28.1112C20.8657609375,28.3827,20.8120609375,28.640700000000002,20.7024609375,28.885199999999998C20.5905609375,29.134900000000002,20.4338609375,29.3414,20.232360937499998,29.5049C19.8927609375,29.7804,19.5031609375,29.9226,19.0635609375,29.9315C18.6854609375,29.9391,18.2942609375,29.844,17.8899609375,29.646C17.198470937499998,29.3074,16.508620937499998,28.695700000000002,15.8204509375,27.81078C15.7501709375,27.72033,15.6801709375,27.62984,15.6105009375,27.5393C15.258320937499999,27.59253,14.8854309375,27.661749999999998,14.491840937500001,27.74704C14.082550937499999,27.83569,13.6948909375,27.92929,13.3289609375,28.0278C12.5541809375,29.729300000000002,11.7376409375,30.872500000000002,10.8794109375,31.4574C10.6000809375,31.6478,10.3178909375,31.7783,10.0328809375,31.8488C9.7439809375,31.9202,9.4623209375,31.9285,9.1879409375,31.8738C8.9302109375,31.822400000000002,8.6956819375,31.719099999999997,8.4842629375,31.5639C8.2932179375,31.4237,8.1362909375,31.252499999999998,8.0133999375,31.0503C7.8844949375,30.8382,7.8072176375,30.6079,7.7816089275,30.3597C7.7560407375,30.1117,7.7840636375,29.8613,7.8657183375,29.6084C8.0187589375,29.1341,8.3478719375,28.6876,8.8530609375,28.2686C9.3573009375,27.8505,10.027970937500001,27.46914,10.8650509375,27.12457C11.2542609375,26.96441,11.6769709375,26.81317,12.133230937499999,26.67089C12.2942909375,26.279429999999998,12.4541609375,25.85921,12.6128509375,25.41023C12.787820937500001,24.91494,12.9416409375,24.446170000000002,13.0742209375,24.00382C12.5892909375,23.26263,12.2474109375,22.6719,12.0485109375,22.2316ZM13.6098409375,21.70591C13.6948109375,21.12325,13.7126909375,20.64019,13.6633909375,20.25667C13.6413409375,20.0851,13.6067309375,19.94277,13.5596109375,19.8297C13.5299109375,19.75844,13.4983309375,19.705379999999998,13.4648609375,19.67048C13.4430609375,19.64774,13.4161809375,19.63636,13.3842709375,19.63636C13.2916109375,19.63636,13.2213309375,19.65105,13.1733809375,19.68042C13.1443809375,19.69814,13.121720937500001,19.73086,13.1053109375,19.77852C13.0617409375,19.90522,13.0603509375,20.086570000000002,13.1011409375,20.32253C13.1598409375,20.66224,13.3016309375,21.0645,13.5265109375,21.52927L13.531630937500001,21.53982L13.5364509375,21.550539999999998C13.5585009375,21.59971,13.5829709375,21.6515,13.6098409375,21.70591ZM14.2445509375,25.701050000000002C14.2155409375,25.78516,14.1859309375,25.869970000000002,14.155690937500001,25.95551C14.131190937500001,26.024810000000002,14.1066409375,26.0935,14.0821009375,26.161569999999998C14.1030009375,26.15699,14.1241109375,26.1524,14.1453409375,26.147779999999997C14.2692609375,26.120939999999997,14.3915309375,26.09554,14.5121809375,26.07157C14.4223809375,25.948140000000002,14.3332009375,25.82464,14.2445509375,25.701050000000002ZM11.0600609375,28.825200000000002C10.5790109375,29.0502,10.1915209375,29.2845,9.8976309375,29.5282C9.7512609375,29.6496,9.6351609375,29.767899999999997,9.5493309375,29.8833C9.4871109375,29.966900000000003,9.444970937499999,30.0428,9.422960937500001,30.111C9.4077909375,30.158,9.4041009375,30.1878,9.4118409375,30.2006C9.4345409375,30.238,9.4666509375,30.2608,9.5080909375,30.269C9.543600937499999,30.2761,9.5875809375,30.2732,9.6399909375,30.260199999999998C9.7346509375,30.236800000000002,9.8405609375,30.1851,9.9578509375,30.1052C10.308280937500001,29.8664,10.675680937500001,29.439700000000002,11.0600609375,28.825200000000002ZM17.6425409375,27.42128C17.7352009375,27.51688,17.8276609375,27.606070000000003,17.919860937499998,27.68883C18.1649609375,27.90871,18.3948609375,28.071199999999997,18.6095609375,28.176299999999998C18.8818609375,28.3097,19.0776609375,28.3301,19.196960937500002,28.2377C19.2011609375,28.232100000000003,19.2052609375,28.224899999999998,19.209160937500002,28.216C19.221460937499998,28.1887,19.2274609375,28.1583,19.227160937500003,28.1247C19.2262609375,28.021900000000002,19.1641609375,27.92107,19.0407609375,27.822110000000002C18.9294609375,27.73288,18.7807609375,27.65647,18.594660937500002,27.59294C18.352860937499997,27.510379999999998,18.0631609375,27.45524,17.7255409375,27.427500000000002C17.698090937499998,27.42525,17.6704009375,27.42316,17.6425409375,27.42128Z" fill-rule="evenodd" fill="#FFFFFF" fill-opacity="1" style="mix-blend-mode:passthrough"/></g><g><path d="M22.2569523125,2.453125L22.0908203125,2.453125C22.2217703125,2.584091,22.2953653125,2.761723,22.2953653125,2.946943L22.2953653125,7.975855C22.2953653125,9.331455,23.3943103125,10.430395,24.7499103125,10.430395L30.187920312499998,10.430395C30.3731103125,10.430395,30.550780312500002,10.503995,30.6817303125,10.634945L30.6817303125,10.520605C30.6817303125,10.071295,30.4969403125,9.641715,30.1707703125,9.332685L23.3823603125,2.901566C23.0784073125,2.613616,22.6756563125,2.453125,22.2569523125,2.453125Z" fill="#F79675" fill-opacity="1" style="mix-blend-mode:passthrough"/></g></g></svg>