<svg xmlns="http://www.w3.org/2000/svg" xmlns:xlink="http://www.w3.org/1999/xlink" fill="none" version="1.1" width="12" height="12" viewBox="0 0 12 12"><defs><clipPath id="master_svg0_188_21728"><rect x="0" y="0" width="12" height="12" rx="0"/></clipPath><linearGradient x1="0" y1="0.0291315708309412" x2="1.0000000771239856" y2="0.9999999205618437" id="master_svg1_12_32389"><stop offset="0%" stop-color="#4070FD" stop-opacity="1"/><stop offset="100%" stop-color="#757BEB" stop-opacity="1"/></linearGradient></defs><g clip-path="url(#master_svg0_188_21728)"><g><path d="M6,0C2.68629,-4.82391e-8,0,2.68629,0,6C0,9.31371,2.68629,12,6,12C9.31371,12,12,9.31371,12,6C12,2.68629,9.31371,-7.23587e-8,6,0ZM8.5365,7.03059L5.55288,7.03059C5.27691,7.03059,5.05319,6.80688,5.05319,6.53091L5.05319,2.75892C5.05319,2.48295,5.27691,2.25924,5.55288,2.25924C5.82884,2.25924,6.05256,2.48295,6.05256,2.75892L6.05256,6.03123L8.5365,6.03123C8.82033,6.02015,9.05646,6.24725,9.05646,6.53129C9.05646,6.81534,8.82033,7.04244,8.5365,7.03136L8.5365,7.03059Z" fill="url(#master_svg1_12_32389)" fill-opacity="1"/></g></g></svg>