<svg xmlns="http://www.w3.org/2000/svg" xmlns:xlink="http://www.w3.org/1999/xlink" fill="none" version="1.1" width="36" height="36" viewBox="0 0 36 36"><defs><clipPath id="master_svg0_303_30516"><rect x="0" y="0" width="36" height="36" rx="0"/></clipPath><linearGradient x1="0" y1="0.5" x2="1" y2="0.5" id="master_svg1_1_36423"><stop offset="0%" stop-color="#3B64FC" stop-opacity="1"/><stop offset="100%" stop-color="#5589FF" stop-opacity="1"/></linearGradient></defs><g clip-path="url(#master_svg0_303_30516)"><g><path d="M25.50003515625,4.5019375L31.50003515625,4.5019375C32.328435156249995,4.5019375,33.00003515625,5.1735175,33.00003515625,6.0019375L33.00003515625,30.0019875C33.00003515625,30.8303875,32.328435156249995,31.5019875,31.50003515625,31.5019875L25.50003515625,31.5019875L25.50003515625,4.5019375ZM4.28853515625,4.3174375000000005L23.14353515625,1.62494123C23.59543515625,1.5600471,24.00003515625,1.9107595,24.00003515625,2.3674415L24.00003515625,33.6364875C23.99993515625,34.0923875,23.59643515625,34.4427875,23.14503515625,34.3789875L4.28703515625,31.6864875C3.54777515625,31.5811875,2.99853515625,30.9481875,2.99853515625,30.2014875L2.99853515625,5.8024375C2.99854230881,5.0557275,3.5477821562500003,4.422727500000001,4.28853515625,4.3174375000000005L4.28853515625,4.3174375000000005ZM16.50003515625,12.0019875L16.50003515625,19.4854875L13.50003515625,16.5019875L10.51503515625,19.5019875L10.50003515625,12.0019875L7.50003515625,12.0019875L7.50003515625,24.0019875L10.50003515625,24.0019875L13.50003515625,21.0019875L16.50003515625,24.0019875L19.50003515625,24.0019875L19.50003515625,12.0019875L16.50003515625,12.0019875Z" fill="url(#master_svg1_1_36423)" fill-opacity="1"/></g></g></svg>