<?xml version="1.0" encoding="UTF-8"?>
<svg width="15px" height="14px" viewBox="0 0 15 14" version="1.1" xmlns="http://www.w3.org/2000/svg" xmlns:xlink="http://www.w3.org/1999/xlink">
    <title>ic/2备份 11</title>
    <g id="页面-1" stroke="none" stroke-width="1" fill="none" fill-rule="evenodd">
        <g id="应用-应用管理-管理标签" transform="translate(-890.000000, -561.000000)">
            <g id="矩形备份-8" transform="translate(796.000000, 552.000000)">
                <g id="编组备份" transform="translate(94.554622, 9.000000)">
                    <rect id="矩形复制-6" fill="#EE5A55" x="0" y="3.0625" width="13.6470588" height="1.3125" rx="0.65625"></rect>
                    <rect id="矩形复制-6备份" fill="#EE5A55" x="4.69117647" y="6.125" width="1.27941176" height="4.375" rx="0.639705882"></rect>
                    <rect id="矩形复制-6备份-3" fill="#EE5A55" x="7.67647059" y="6.125" width="1.27941176" height="4.375" rx="0.639705882"></rect>
                    <path d="M10.9411765,3.8125 L11.1911765,11 C11.1911765,11.6213203 10.9393366,12.1838203 10.5321667,12.5909903 C10.1249968,12.9981602 9.56249681,13.25 8.94117647,13.25 L4.70588235,13.25 C4.08456201,13.25 3.52206201,12.9981602 3.1148921,12.5909903 C2.70772218,12.1838203 2.45588235,11.6213203 2.45588235,11 L2.45588235,4.0625 L10.9411765,3.8125 Z" id="矩形" stroke="#EE5A55" stroke-width="1.5"></path>
                    <path d="M6.82352941,0.75 C7.55641031,0.75 8.21899164,1.05626745 8.69895487,1.54864352 C9.18576074,2.0480392 9.48529412,2.73837466 9.48529412,3.5 L4.16449594,3.62594701 C4.16176471,2.73837466 4.46129808,2.0480392 4.94810395,1.54864352 C5.42806718,1.05626745 6.09064851,0.75 6.82352941,0.75 Z" id="形状结合" stroke="#EE5A55" stroke-width="1.5"></path>
                </g>
            </g>
        </g>
    </g>
</svg>