<?xml version="1.0" encoding="UTF-8"?>
<svg width="14px" height="14px" viewBox="0 0 14 14" version="1.1" xmlns="http://www.w3.org/2000/svg" xmlns:xlink="http://www.w3.org/1999/xlink">
    <title>ic/2备份 11</title>
    <g id="页面-1" stroke="none" stroke-width="1" fill="none" fill-rule="evenodd">
        <g id="应用-应用管理-管理标签" transform="translate(-1066.000000, -517.000000)">
            <g id="矩形备份-5" transform="translate(946.000000, 508.000000)">
                <g id="编组备份" transform="translate(120.000000, 9.000000)">
                    <rect id="矩形复制-6" fill="#666E82" x="0" y="3.0625" width="14" height="1.3125" rx="0.65625"></rect>
                    <rect id="矩形复制-6备份" fill="#666E82" x="4.8125" y="6.125" width="1.3125" height="4.375" rx="0.65625"></rect>
                    <rect id="矩形复制-6备份-3" fill="#666E82" x="7.875" y="6.125" width="1.3125" height="4.375" rx="0.65625"></rect>
                    <path d="M11.25,3.8125 L11.5,11 C11.5,11.6213203 11.2481602,12.1838203 10.8409903,12.5909903 C10.4338203,12.9981602 9.87132034,13.25 9.25,13.25 L4.75,13.25 C4.12867966,13.25 3.56617966,12.9981602 3.15900974,12.5909903 C2.75183983,12.1838203 2.5,11.6213203 2.5,11 L2.5,4.0625 L11.25,3.8125 Z" id="矩形" stroke="#666E82" stroke-width="1.5"></path>
                    <path d="M7,0.75 C7.75939153,0.75 8.44689153,1.05780423 8.94454365,1.55545635 C9.44219577,2.05310847 9.75,2.74060847 9.75,3.5 L4.25282121,3.62594701 C4.25,2.74060847 4.55780423,2.05310847 5.05545635,1.55545635 C5.55310847,1.05780423 6.24060847,0.75 7,0.75 Z" id="形状结合" stroke="#666E82" stroke-width="1.5"></path>
                </g>
            </g>
        </g>
    </g>
</svg>