<?xml version="1.0" encoding="UTF-8"?>
<svg width="14px" height="14px" viewBox="0 0 14 14" version="1.1" xmlns="http://www.w3.org/2000/svg" xmlns:xlink="http://www.w3.org/1999/xlink">
    <title>ic_编辑</title>
    <g id="页面-1" stroke="none" stroke-width="1" fill="none" fill-rule="evenodd">
        <g id="应用-应用管理-管理标签" transform="translate(-894.000000, -517.000000)">
            <g id="矩形备份-4" transform="translate(796.000000, 508.000000)">
                <g id="ic_编辑" transform="translate(98.000000, 9.000000)">
                    <rect id="矩形" fill="#000000" fill-rule="nonzero" opacity="0" x="0" y="0" width="14" height="14"></rect>
                    <path d="M0,13.34375 C4.43857149e-17,13.7061869 0.293813133,14 0.65625,14 L13.34375,14 C13.7061869,14 14,13.7061869 14,13.34375 C14,12.9813131 13.7061869,12.6875 13.34375,12.6875 L0.65625,12.6875 C0.293813133,12.6875 -6.65785724e-17,12.9813131 0,13.34375 Z" id="路径" fill="#666E82" fill-rule="nonzero"></path>
                    <path d="M10.2876894,1.57842712 C10.6075923,1.57842712 10.9274952,1.70046597 11.1715729,1.94454365 L12.0554564,2.82842712 C12.299534,3.07250481 12.4215729,3.3924077 12.4215729,3.7123106 C12.4215729,4.0322135 12.299534,4.3521164 12.0554504,4.59619999 L5.58936129,11.0624332 L2.93740554,11.0624853 L2.93707159,8.41105572 L9.40380592,1.94454365 C9.6478836,1.70046597 9.9677865,1.57842712 10.2876894,1.57842712 Z" id="形状结合" stroke="#666E82" stroke-width="1.5"></path>
                    <path d="M9.41255867,2.36222496 C9.77499554,2.36222496 10.0688087,2.6560381 10.0688087,3.01847496 L10.0688087,6.08097496 C10.0688087,6.44341183 9.77499554,6.73722496 9.41255867,6.73722496 C9.0501218,6.73722496 8.75630867,6.44341183 8.75630867,6.08097496 L8.75630867,3.01847496 C8.75630867,2.6560381 9.0501218,2.36222496 9.41255867,2.36222496 Z" id="矩形复制-6备份-4" fill="#666E82" transform="translate(9.412559, 4.549725) rotate(-45.000000) translate(-9.412559, -4.549725) "></path>
                </g>
            </g>
        </g>
    </g>
</svg>