<?xml version="1.0" encoding="UTF-8"?>
<svg width="14px" height="14px" viewBox="0 0 14 14" version="1.1" xmlns="http://www.w3.org/2000/svg" xmlns:xlink="http://www.w3.org/1999/xlink">
    <title>ic_biaoqian</title>
    <g id="页面-1" stroke="none" stroke-width="1" fill="none" fill-rule="evenodd">
        <g id="应用-应用管理" transform="translate(-1068.000000, -600.000000)">
            <g id="编组-4备份-6" transform="translate(1048.000000, 468.000000)">
                <g id="ic_biaoqian" transform="translate(20.000000, 132.000000)">
                    <rect id="矩形" fill-opacity="0" fill="#8D96A7" x="0" y="0" width="14" height="14"></rect>
                    <path d="M8.06066017,1.06066017 L11.4133056,4.4133056 C11.7883239,4.78832391 11.9990331,5.29694098 11.999092,5.82729696 L11.9997778,12 C12.000107,13.0543618 11.1843348,13.9182557 10.1494839,13.9947199 L10,14 L4,14 C2.9456382,14.0002121 2.08183488,13.1843439 2.00548574,12.1494845 L2.0002222,12 L2.00090798,5.82729696 C2.0009669,5.29694098 2.21167609,4.78832391 2.5866944,4.4133056 L5.93933983,1.06066017 C6.52512627,0.474873734 7.47487373,0.474873734 8.06066017,1.06066017 Z M7,4 C6.17157288,4 5.5,4.67157288 5.5,5.5 C5.5,6.32842712 6.17157288,7 7,7 C7.82842712,7 8.5,6.32842712 8.5,5.5 C8.5,4.67157288 7.82842712,4 7,4 Z" id="形状结合" fill="#8D96A7"></path>
                    <rect id="矩形" fill-opacity="0.5" fill="#FFFFFF" x="5" y="11" width="4" height="1" rx="0.5"></rect>
                </g>
            </g>
        </g>
    </g>
</svg>