<?xml version="1.0" encoding="UTF-8"?>
<svg width="32px" height="32px" viewBox="0 0 32 32" version="1.1" xmlns="http://www.w3.org/2000/svg" xmlns:xlink="http://www.w3.org/1999/xlink">
    <title>ic_/工作流应用</title>
    <defs>
        <filter x="-7.8%" y="-21.4%" width="115.7%" height="142.8%" filterUnits="objectBoundingBox" id="filter-1">
            <feOffset dx="2" dy="3" in="SourceAlpha" result="shadowOffsetOuter1"></feOffset>
            <feGaussianBlur stdDeviation="6" in="shadowOffsetOuter1" result="shadowBlurOuter1"></feGaussianBlur>
            <feColorMatrix values="0 0 0 0 0.4   0 0 0 0 0.431372549   0 0 0 0 0.509803922  0 0 0 0.2 0" type="matrix" in="shadowBlurOuter1" result="shadowMatrixOuter1"></feColorMatrix>
            <feMerge>
                <feMergeNode in="shadowMatrixOuter1"></feMergeNode>
                <feMergeNode in="SourceGraphic"></feMergeNode>
            </feMerge>
        </filter>
        <linearGradient x1="81.8407557%" y1="100%" x2="20.110859%" y2="36.0503772%" id="linearGradient-2">
            <stop stop-color="#FFFFFF" stop-opacity="0.6" offset="0%"></stop>
            <stop stop-color="#FFFFFF" offset="100%"></stop>
        </linearGradient>
    </defs>
    <g id="页面-1" stroke="none" stroke-width="1" fill="none" fill-rule="evenodd">
        <g id="应用-应用管理-创建应用" transform="translate(-788.000000, -280.000000)">
            <g id="椭圆形备份-4" filter="url(#filter-1)" transform="translate(772.000000, 262.000000)">
                <g id="ic_/工作流应用" transform="translate(16.000000, 18.000000)">
                    <rect id="矩形" fill="#32BB7B" x="0" y="0" width="32" height="32" rx="8"></rect>
                    <path d="M18.7642221,23.432688 C18.9669689,23.9610271 19.2785719,24.4354261 19.6715729,24.8284271 C19.7620551,24.9189093 19.856852,25.0050768 19.9556286,25.0865945 C18.7627487,25.6712491 17.4197663,26 16,26 C14.5802337,26 13.2372513,25.6712491 12.0430234,25.0857178 L12.1691506,24.9792503 L12.3284271,24.8284271 C12.7214281,24.4354261 13.0330311,23.9610271 13.2357779,23.432688 C14.0825159,23.7976367 15.0176257,24 16,24 C16.9664983,24 17.8872475,23.8041246 18.7247159,23.4499053 Z M12.0019112,8.93457016 L12,9 C12,9.70283467 12.1812684,10.3633318 12.4996046,10.9372908 C10.4079573,12.1463872 9,14.4087706 9,17 C9,17.3475089 9.02532268,17.6891034 9.07422345,18.0230389 C8.36866466,18.0970307 7.71775028,18.3551625 7.17018033,18.7481735 C7.0584232,18.1833873 7,17.5985164 7,17 C7,13.4655191 9.03743869,10.4069075 12.0019112,8.93457016 Z M25,17 C25,17.5985164 24.9415768,18.1833873 24.8301222,18.7492209 C24.2822358,18.3551569 23.6313278,18.0970299 22.9256816,18.0223833 C22.9746773,17.6891034 23,17.3475089 23,17 C23,14.4087706 21.5920427,12.1463872 19.4994158,10.9361374 C19.8187316,10.3633318 20,9.70283467 20,9 C20,8.97875828 19.9998344,8.95755523 19.9995045,8.93639207 C22.9630202,10.4075964 25,13.4659171 25,17 Z" id="形状结合" fill-opacity="0.8" fill="#FFFFFF" fill-rule="nonzero"></path>
                    <path d="M16.8870378,18.3956492 L16.5038105,19.6288462 C16.4173428,19.9070931 16.1216831,20.0625608 15.8434363,19.976093 C15.6775882,19.9245542 15.5477283,19.7946943 15.4961895,19.6288462 L15.1129622,18.3956492 C15.0374735,18.152732 14.847268,17.9625265 14.6043508,17.8870378 L13.3711538,17.5038105 C13.0929069,17.4173428 12.9374392,17.1216831 13.023907,16.8434363 C13.0754458,16.6775882 13.2053057,16.5477283 13.3711538,16.4961895 L14.6043508,16.1129622 C14.847268,16.0374735 15.0374735,15.847268 15.1129622,15.6043508 L15.4961895,14.3711538 C15.5826572,14.0929069 15.8783169,13.9374392 16.1565637,14.023907 C16.3224118,14.0754458 16.4522717,14.2053057 16.5038105,14.3711538 L16.8870378,15.6043508 C16.9625265,15.847268 17.152732,16.0374735 17.3956492,16.1129622 L18.6288462,16.4961895 C18.9070931,16.5826572 19.0625608,16.8783169 18.976093,17.1565637 C18.9245542,17.3224118 18.7946943,17.4522717 18.6288462,17.5038105 L17.3956492,17.8870378 C17.152732,17.9625265 16.9625265,18.152732 16.8870378,18.3956492 Z" id="星形" fill="url(#linearGradient-2)" fill-rule="nonzero"></path>
                    <circle id="椭圆形" stroke-opacity="0.9" stroke="#FFFFFF" stroke-width="2" cx="16" cy="9" r="2"></circle>
                    <circle id="椭圆形备份" stroke-opacity="0.9" stroke="#FFFFFF" stroke-width="2" cx="9.5" cy="22" r="2"></circle>
                    <circle id="椭圆形备份-2" stroke-opacity="0.9" stroke="#FFFFFF" stroke-width="2" cx="22.5" cy="22" r="2"></circle>
                </g>
            </g>
        </g>
    </g>
</svg>