<svg xmlns="http://www.w3.org/2000/svg" xmlns:xlink="http://www.w3.org/1999/xlink"  version="1.1" width="16" height="16" viewBox="0 0 16 16"><defs><clipPath id="master_svg0_115_06286"><rect x="0" y="0" width="16" height="16" rx="0"/></clipPath></defs><g clip-path="url(#master_svg0_115_06286)"><g><path d="M10.311083984375,1.77734375Q10.311083984375,1.69855065,10.326455984375,1.62127175Q10.341827984375,1.54399275,10.371979984375,1.47119675Q10.402132984375,1.39840175,10.445907984375,1.33288775Q10.489682984375,1.26737375,10.545398984375,1.21165875Q10.601113984375,1.15594275,10.666627984375,1.11216775Q10.732141984375,1.0683927500000001,10.804936984375,1.03823975Q10.877732984375,1.00808775,10.955011984375,0.99271575Q11.032290884375,0.97734375,11.111083984375,0.97734375Q11.189877084375,0.97734375,11.267155984375,0.99271575Q11.344434984375,1.00808775,11.417230984375,1.03823975Q11.490025984375,1.0683927500000001,11.555539984375,1.11216775Q11.621053984375,1.15594275,11.676768984375,1.21165875Q11.732484984375,1.26737375,11.776259984375,1.33288775Q11.820034984375,1.39840175,11.850187984375,1.47119675Q11.880339984375,1.54399275,11.895711984375,1.62127175Q11.911083984375,1.69855065,11.911083984375,1.77734375L11.911083984375,4.08845375L14.222193984375,4.08845375Q14.300983984375,4.08845375,14.378263984375,4.10382375Q14.455543984375,4.11919375,14.528343984375,4.1493537499999995Q14.601133984375,4.17950375,14.666653984375,4.22328375Q14.732163984375,4.2670537500000005,14.787883984375,4.32277375Q14.843593984375,4.37848375,14.887373984375,4.443993750000001Q14.931143984375,4.50951375,14.961293984375,4.5823037499999995Q14.991453984375,4.65510375,15.006823984375,4.73238375Q15.022193984375,4.80966375,15.022193984375,4.88845375Q15.022193984375,4.96724375,15.006823984375,5.04452375Q14.991453984375,5.12180375,14.961293984375,5.194603750000001Q14.931143984375,5.26739375,14.887373984375,5.3329137499999995Q14.843593984375,5.39842375,14.787883984375,5.45414375Q14.732163984375,5.5098537499999996,14.666653984375,5.5536337499999995Q14.601133984375,5.59740375,14.528343984375,5.627553750000001Q14.455543984375,5.65771375,14.378263984375,5.67308375Q14.300983984375,5.68845375,14.222193984375,5.68845375L11.111083984375,5.68845375Q11.032290884375,5.68845375,10.955011984375,5.67308375Q10.877732984375,5.65771375,10.804936984375,5.627553750000001Q10.732141984375,5.59740375,10.666627984375,5.5536337499999995Q10.601113984375,5.5098537499999996,10.545398984375,5.45414375Q10.489682984375,5.39842375,10.445907984375,5.3329137499999995Q10.402132984375,5.26739375,10.371979984375,5.194603750000001Q10.341827984375,5.12180375,10.326455984375,5.04452375Q10.311083984375,4.96724375,10.311083984375,4.88845375L10.311083984375,1.77734375L10.311083984375,1.77734375Z" fill-rule="evenodd"  fill-opacity="1"/></g><g><path d="M10.311083984375,11.111328125L10.311083984375,14.222438125Q10.311083984375,14.301228125,10.326455984375,14.378508125Q10.341827984375,14.455788125,10.371979984375,14.528588125Q10.402132984375,14.601378125,10.445907984375,14.666898125Q10.489682984375,14.732408125,10.545398984375,14.788128125Q10.601113984375,14.843838125,10.666627984375,14.887618125Q10.732141984375,14.931388125,10.804936984375,14.961538125Q10.877732984375,14.991698125,10.955011984375,15.007068125Q11.032290884375,15.022438125,11.111083984375,15.022438125Q11.189877084375,15.022438125,11.267155984375,15.007068125Q11.344434984375,14.991698125,11.417230984375,14.961538125Q11.490025984375,14.931388125,11.555539984375,14.887618125Q11.621053984375,14.843838125,11.676768984375,14.788128125Q11.732484984375,14.732408125,11.776259984375,14.666898125Q11.820034984375,14.601378125,11.850187984375,14.528588125Q11.880339984375,14.455788125,11.895711984375,14.378508125Q11.911083984375,14.301228125,11.911083984375,14.222438125L11.911083984375,11.911328125L14.222193984375,11.911328125Q14.300983984375,11.911328125,14.378263984375,11.895956125Q14.455543984375,11.880584125,14.528343984375,11.850432125Q14.601133984375,11.820279125,14.666653984375,11.776504125Q14.732163984375,11.732729125,14.787883984375,11.677013125Q14.843593984375,11.621298125,14.887373984375,11.555784125Q14.931143984375,11.490270125,14.961293984375,11.417475125Q14.991453984375,11.344679125,15.006823984375,11.267400125Q15.022193984375,11.190121225,15.022193984375,11.111328125Q15.022193984375,11.032535025,15.006823984375,10.955256125Q14.991453984375,10.877977125,14.961293984375,10.805181125Q14.931143984375,10.732386125,14.887373984375,10.666872125Q14.843593984375,10.601358125,14.787883984375,10.545643125Q14.732163984375,10.489927125,14.666653984375,10.446152125Q14.601133984375,10.402377125,14.528343984375,10.372224125Q14.455543984375,10.342072125,14.378263984375,10.326700125Q14.300983984375,10.311328125,14.222193984375,10.311328125L11.111083984375,10.311328125Q11.032290884375,10.311328125,10.955011984375,10.326700125Q10.877732984375,10.342072125,10.804936984375,10.372224125Q10.732141984375,10.402377125,10.666627984375,10.446152125Q10.601113984375,10.489927125,10.545398984375,10.545643125Q10.489682984375,10.601358125,10.445907984375,10.666872125Q10.402132984375,10.732386125,10.371979984375,10.805181125Q10.341827984375,10.877977125,10.326455984375,10.955256125Q10.311083984375,11.032535025,10.311083984375,11.111328125Z" fill-rule="evenodd"  fill-opacity="1"/></g><g><path d="M5.68894203125,1.77734375L5.68894203125,4.88845375Q5.68894203125,4.96724375,5.67357203125,5.04452375Q5.65820203125,5.12180375,5.628042031250001,5.194603750000001Q5.59789203125,5.26739375,5.5541220312499995,5.3329137499999995Q5.5103420312499996,5.39842375,5.45463203125,5.45414375Q5.39891203125,5.5098537499999996,5.3334020312499995,5.5536337499999995Q5.26788203125,5.59740375,5.195092031250001,5.627553750000001Q5.12229203125,5.65771375,5.04501203125,5.67308375Q4.96773203125,5.68845375,4.88894203125,5.68845375L1.77783203125,5.68845375Q1.69903893125,5.68845375,1.62176003125,5.67308375Q1.54448103125,5.65771375,1.47168503125,5.627553750000001Q1.39889003125,5.59740375,1.33337603125,5.5536337499999995Q1.26786203125,5.5098537499999996,1.21214703125,5.45414375Q1.15643103125,5.39842375,1.11265603125,5.3329137499999995Q1.0688810312500001,5.26739375,1.03872803125,5.194603750000001Q1.00857603125,5.12180375,0.99320403125,5.04452375Q0.97783203125,4.96724375,0.97783203125,4.88845375Q0.97783203125,4.80966375,0.99320403125,4.73238375Q1.00857603125,4.65510375,1.03872803125,4.5823037499999995Q1.0688810312500001,4.50951375,1.11265603125,4.443993750000001Q1.15643103125,4.37848375,1.21214703125,4.32277375Q1.26786203125,4.2670537500000005,1.33337603125,4.22328375Q1.39889003125,4.17950375,1.47168503125,4.1493537499999995Q1.54448103125,4.11919375,1.62176003125,4.10382375Q1.69903893125,4.08845375,1.77783203125,4.08845375L4.08894203125,4.08845375L4.08894203125,1.77734375Q4.08894203125,1.69855065,4.10431203125,1.62127175Q4.11968203125,1.54399275,4.1498420312499995,1.47119675Q4.17999203125,1.39840175,4.22377203125,1.33288775Q4.2675420312500005,1.26737375,4.32326203125,1.21165875Q4.37897203125,1.15594275,4.444482031250001,1.11216775Q4.51000203125,1.0683927500000001,4.5827920312499995,1.03823975Q4.65559203125,1.00808775,4.73287203125,0.99271575Q4.81015203125,0.97734375,4.88894203125,0.97734375Q4.96773203125,0.97734375,5.04501203125,0.99271575Q5.12229203125,1.00808775,5.195092031250001,1.03823975Q5.26788203125,1.0683927500000001,5.3334020312499995,1.11216775Q5.39891203125,1.15594275,5.45463203125,1.21165875Q5.5103420312499996,1.26737375,5.5541220312499995,1.33288775Q5.59789203125,1.39840175,5.628042031250001,1.47119675Q5.65820203125,1.54399275,5.67357203125,1.62127175Q5.68894203125,1.69855065,5.68894203125,1.77734375Z" fill-rule="evenodd"  fill-opacity="1"/></g><g><path d="M4.08894203125,11.911328125L4.08894203125,14.222438125Q4.08894203125,14.301228125,4.10431203125,14.378508125Q4.11968203125,14.455788125,4.1498420312499995,14.528588125Q4.17999203125,14.601378125,4.22377203125,14.666898125Q4.2675420312500005,14.732408125,4.32326203125,14.788128125Q4.37897203125,14.843838125,4.444482031250001,14.887618125Q4.51000203125,14.931388125,4.5827920312499995,14.961538125Q4.65559203125,14.991698125,4.73287203125,15.007068125Q4.81015203125,15.022438125,4.88894203125,15.022438125Q4.96773203125,15.022438125,5.04501203125,15.007068125Q5.12229203125,14.991698125,5.195092031250001,14.961538125Q5.26788203125,14.931388125,5.3334020312499995,14.887618125Q5.39891203125,14.843838125,5.45463203125,14.788128125Q5.5103420312499996,14.732408125,5.5541220312499995,14.666898125Q5.59789203125,14.601378125,5.628042031250001,14.528588125Q5.65820203125,14.455788125,5.67357203125,14.378508125Q5.68894203125,14.301228125,5.68894203125,14.222438125L5.68894203125,11.111328125Q5.68894203125,11.032535025,5.67357203125,10.955256125Q5.65820203125,10.877977125,5.628042031250001,10.805181125Q5.59789203125,10.732386125,5.5541220312499995,10.666872125Q5.5103420312499996,10.601358125,5.45463203125,10.545643125Q5.39891203125,10.489927125,5.3334020312499995,10.446152125Q5.26788203125,10.402377125,5.195092031250001,10.372224125Q5.12229203125,10.342072125,5.04501203125,10.326700125Q4.96773203125,10.311328125,4.88894203125,10.311328125L1.77783203125,10.311328125Q1.69903893125,10.311328125,1.62176003125,10.326700125Q1.54448103125,10.342072125,1.47168503125,10.372224125Q1.39889003125,10.402377125,1.33337603125,10.446152125Q1.26786203125,10.489927125,1.21214703125,10.545643125Q1.15643103125,10.601358125,1.11265603125,10.666872125Q1.0688810312500001,10.732386125,1.03872803125,10.805181125Q1.00857603125,10.877977125,0.99320403125,10.955256125Q0.97783203125,11.032535025,0.97783203125,11.111328125Q0.97783203125,11.190121225,0.99320403125,11.267400125Q1.00857603125,11.344679125,1.03872803125,11.417475125Q1.0688810312500001,11.490270125,1.11265603125,11.555784125Q1.15643103125,11.621298125,1.21214703125,11.677013125Q1.26786203125,11.732729125,1.33337603125,11.776504125Q1.39889003125,11.820279125,1.47168503125,11.850432125Q1.54448103125,11.880584125,1.62176003125,11.895956125Q1.69903893125,11.911328125,1.77783203125,11.911328125L4.08894203125,11.911328125Z" fill-rule="evenodd"  fill-opacity="1"/></g></g></svg>