<svg xmlns="http://www.w3.org/2000/svg" xmlns:xlink="http://www.w3.org/1999/xlink"  version="1.1" width="16" height="16" viewBox="0 0 16 16"><defs><clipPath id="master_svg0_86_14133"><rect x="0" y="0" width="16" height="16" rx="0"/></clipPath></defs><g clip-path="url(#master_svg0_86_14133)"><g><g><rect x="0" y="3.5" width="16" height="1.5" rx="0.75" fill="#E54D65" fill-opacity="1"/><rect x="0.5" y="4" width="15" height="0.5" rx="0.25" fill-opacity="0" stroke-opacity="1" stroke="#B8B9CE" fill="none" stroke-width="1"/></g><g><rect x="5.5" y="7" width="1.5" height="5" rx="0.75" fill="#E54D65" fill-opacity="1"/><rect x="6" y="7.5" width="0.5" height="4" rx="0.25" fill-opacity="0" stroke-opacity="1" stroke="#B8B9CE" fill="none" stroke-width="1"/></g><g><rect x="9" y="7" width="1.5" height="5" rx="0.75" fill="#E54D65" fill-opacity="1"/><rect x="9.5" y="7.5" width="0.5" height="4" rx="0.25" fill-opacity="0" stroke-opacity="1" stroke="#B8B9CE" fill="none" stroke-width="1"/></g><g><path d="M2.75 5.25C2.75 4.697715250169207 3.1977152501692068 4.25 3.75 4.25L12.25 4.25C12.802284749830793 4.25 13.25 4.697715250169207 13.25 5.25L13.25 12.25C13.25 13.90685424949238 11.90685424949238 15.25 10.25 15.25L5.75 15.25C4.09314575050762 15.25 2.75 13.90685424949238 2.75 12.25Z" fill-opacity="0" stroke-opacity="1" stroke="#B8B9CE" fill="none" stroke-width="1.5"/></g><g><path d="M12,4Q12,4.50807,11.87298,5L4.127017,5Q4,4.50807,4,4Q4,3.80349,4.0192611,3.60793Q4.0385222,3.41237,4.0768589,3.21964Q4.115196,3.02691,4.172239,2.83886Q4.229282,2.65082,4.304482,2.46927Q4.379682,2.28772,4.472315,2.11441Q4.564948,1.94111,4.6741209999999995,1.77772Q4.783295,1.61433,4.907958,1.46243Q5.03262,1.31052,5.17157,1.17157Q5.31052,1.03262,5.4624299999999995,0.907958Q5.61433,0.783295,5.77772,0.674121Q5.94111,0.564948,6.1144099999999995,0.472315Q6.28772,0.379682,6.46927,0.304482Q6.6508199999999995,0.229282,6.83886,0.172239Q7.02691,0.115196,7.21964,0.0768589Q7.41237,0.0385222,7.60793,0.0192611Q7.80349,0,8,0Q8.19651,0,8.39207,0.0192611Q8.58763,0.0385222,8.78036,0.0768589Q8.97309,0.115196,9.16114,0.172239Q9.34918,0.229282,9.53073,0.304482Q9.71228,0.379682,9.88559,0.472315Q10.05889,0.564948,10.22228,0.674121Q10.385670000000001,0.783295,10.537569999999999,0.907958Q10.68948,1.03262,10.82843,1.17157Q10.96738,1.31052,11.09204,1.46243Q11.2167,1.61433,11.32588,1.77772Q11.43505,1.94111,11.52768,2.11441Q11.62032,2.28772,11.69552,2.46927Q11.77072,2.65082,11.82776,2.83886Q11.8848,3.02691,11.92314,3.21964Q11.96148,3.41237,11.98074,3.60793Q12,3.80349,12,4ZM9.767769999999999,2.23223Q10.31649,2.78095,10.45401,3.5L5.54599,3.5Q5.68351,2.78095,6.2322299999999995,2.23223Q6.96447,1.5,8,1.5Q9.03553,1.5,9.767769999999999,2.23223Z" fill-rule="evenodd" fill="#B8B9CE" fill-opacity="1"/></g></g></g></svg>