<svg xmlns="http://www.w3.org/2000/svg" xmlns:xlink="http://www.w3.org/1999/xlink"  version="1.1" width="16" height="16" viewBox="0 0 16 16"><defs><clipPath id="master_svg0_9_6805"><rect x="0" y="0" width="16" height="16" rx="0"/></clipPath></defs><g clip-path="url(#master_svg0_9_6805)"><g><path d="M0.75,3.5L15.25,3.5C15.662,3.50538611,15.9946,3.838038,16,4.25C15.9946,4.6619600000000005,15.662,4.99461,15.25,5L0.75,5C0.338038,4.99461,0.00538584,4.6619600000000005,0,4.25C0.00538584,3.838038,0.338038,3.50538588,0.75,3.5Z" fill-rule="evenodd" fill="#E54D65" fill-opacity="1"/></g><g><path d="M6.25,7C6.6619600000000005,7.00538588,6.99461,7.338038,7,7.75L7,11.25C6.99461,11.66196,6.6619600000000005,11.99461,6.25,12C5.838037,11.99461,5.5053854,11.66196,5.5,11.25L5.5,7.75C5.5053854,7.338038,5.838037,7.00538588,6.25,7Z" fill-rule="evenodd" fill="#E54D65" fill-opacity="1"/></g><g><path d="M9.75,7C10.16196,7.00538588,10.49461,7.338038,10.5,7.75L10.5,11.25C10.49461,11.66196,10.16196,11.99461,9.75,12C9.338037,11.99461,9.0053854,11.66196,9,11.25L9,7.75C9.0053854,7.338038,9.338037,7.00538588,9.75,7Z" fill-rule="evenodd" fill="#E54D65" fill-opacity="1"/></g><g><path d="M14,3.7071370381469726L2.74714288,3.7500050381469725L2,3.7528520381469725L2,13.000000038146972Q2,14.242640038146973,2.87868,15.121300038146973Q3.7573600000000003,16.000000038146972,5,16.000000038146972L11,16.000000038146972Q12.24264,16.000000038146972,13.1213,15.121300038146973Q14,14.242640038146973,14,13.000000038146972L14,3.7071370381469726ZM3.5,5.247148038146973L3.5,13.000000038146972Q3.5,13.750000038146972,3.875,14.125000038146972Q4.25,14.500000038146972,5,14.500000038146972L11,14.500000038146972Q11.62132,14.500000038146972,12.06066,14.060660038146972Q12.5,13.621320038146973,12.5,13.000000038146972L12.5,5.212863038146972L3.5,5.247148038146973Z" fill-rule="evenodd" fill="#E54D65" fill-opacity="1"/></g><g><path d="M8.002724140625,0.000005648258209256518Q6.341374140625,-0.006205351741790821,5.168666140625,1.170593648258209L5.161267140625,1.1781226482582092Q3.871834140625,2.5089976482582093,4.012069140625,4.35675764825821L4.064683140625,5.049997648258209L11.997214140625001,5.049997648258209L11.999914140625,4.30270764825821Q12.006184140624999,2.5662976482582094,10.865324140624999,1.2572406482582092L10.854214140625,1.244486648258209L10.842534140625,1.2322466482582093Q9.685054140624999,0.01918564825820923,8.002724140625,0.000005648258209256518ZM6.234874140625,2.225697648258209Q5.670943140625,2.8097276482582094,5.539188140625,3.549997648258209L10.417134140625,3.549997648258209Q10.250024140625001,2.8400076482582093,9.745684140625,2.2556476482582095Q9.027704140625,1.511779648258209,7.9971141406249995,1.4999946482582094Q6.9645241406250005,1.4961346482582092,6.234874140625,2.225697648258209Z" fill-rule="evenodd" fill="#E54D65" fill-opacity="1"/></g></g></svg>