<svg xmlns="http://www.w3.org/2000/svg" xmlns:xlink="http://www.w3.org/1999/xlink" version="1.1" width="18" height="18" viewBox="0 0 18 18"><g><g><path d="M11.980188383789063,15.990666874999999C10.000808383789062,15.990666874999999,8.435708383789063,15.070016875,7.3769683837890625,13.228726875C8.435708383789063,11.387440875,10.000808383789062,10.466796875,11.980188383789063,10.466796875C13.959578383789061,10.466796875,15.524668383789063,11.387440875,16.583408383789063,13.228726875C15.524668383789063,15.070016875,13.959578383789061,15.990666874999999,11.980188383789063,15.990666874999999ZM12.072258383789062,11.387440875C10.691288383789063,11.387440875,9.310318383789063,11.985856875,8.527778383789062,13.228726875C9.310318383789063,14.471596875,10.691288383789063,15.070016875,12.072258383789062,15.070016875C13.453218383789062,15.070016875,14.650058383789062,14.471596875,15.432608383789063,13.228726875C14.650058383789062,11.985856875,13.453218383789062,11.387440875,12.072258383789062,11.387440875ZM11.980188383789063,14.609696875000001C11.197638383789062,14.609696875000001,10.599218383789061,14.011276875,10.599218383789061,13.228726875C10.599218383789061,12.446186875,11.197638383789062,11.847766875,11.980188383789063,11.847766875C12.762738383789063,11.847766875,13.361158383789062,12.446186875,13.361158383789062,13.228726875C13.361158383789062,14.011276875,12.762738383789063,14.609696875000001,11.980188383789063,14.609696875000001ZM11.980188383789063,13.689046874999999C12.256378383789063,13.689046874999999,12.440508383789062,13.504926875,12.440508383789062,13.228726875C12.440508383789062,12.952536875,12.256378383789063,12.768406875,11.980188383789063,12.768406875C11.703998383789063,12.768406875,11.519868383789063,12.952536875,11.519868383789063,13.228726875C11.519868383789063,13.504926875,11.703998383789063,13.689046874999999,11.980188383789063,13.689046874999999Z"  fill-opacity="1"/><path d="M11.980188383789063,16.098066875Q15.057428383789063,16.098066875,16.676528383789062,13.282266875L16.707308383789062,13.228726875L16.676528383789062,13.175186875Q15.057428383789063,10.359388875,11.980188383789063,10.359387875Q8.902938383789063,10.359388875,7.283855283789062,13.175186875L7.253069383789063,13.228726875L7.283855883789062,13.282266875Q8.902948383789063,16.098066875,11.980188383789063,16.098066875ZM16.459218383789064,13.228726875Q14.903828383789062,10.574204875,11.980188383789063,10.574204875Q9.056558383789062,10.574204875,7.501159383789062,13.228726875Q9.056558383789062,15.883256875,11.980188383789063,15.883256875Q14.903828383789062,15.883246875000001,16.459218383789064,13.228726875ZM15.559528383789063,13.228726875L15.523498383789063,13.171496874999999Q14.332578383789063,11.280030875,12.072258383789062,11.280032875Q10.968168383789063,11.280032875,10.027928383789062,11.745756875Q9.020328383789062,12.244856875,8.436878383789063,13.171496874999999L8.400848383789063,13.228726875L8.436878383789063,13.285956875Q9.020328383789062,14.212606875,10.027928383789062,14.711696875000001Q10.968178383789063,15.177426875,12.072258383789062,15.177426875Q14.332578383789063,15.177426875,15.523498383789063,13.285956875L15.559528383789063,13.228726875ZM15.305118383789061,13.228726875Q14.179488383789064,11.494856875,12.072258383789062,11.494846875Q11.018458383789064,11.494846875,10.123278383789062,11.938256875Q9.201278383789063,12.394946875,8.655408383789062,13.228726875Q9.201278383789063,14.062506875,10.123278383789062,14.519196874999999Q11.018458383789064,14.962606874999999,12.072258383789062,14.962606874999999Q14.179488383789064,14.962616875,15.305118383789061,13.228726875ZM13.040078383789062,14.288616875Q13.468568383789062,13.860126875,13.468568383789062,13.228726875Q13.468568383789062,12.597326875,13.040078383789062,12.168836875Q12.611588383789062,11.740356875,11.980188383789063,11.740356875Q11.348788383789064,11.740356875,10.920298383789063,12.168836875Q10.491818383789063,12.597326875,10.491818383789063,13.228726875Q10.491818383789063,13.860126875,10.920298383789063,14.288616875Q11.348788383789064,14.717106874999999,11.980188383789063,14.717106874999999Q12.611588383789062,14.717106874999999,13.040078383789062,14.288616875ZM12.888178383789063,12.320736875Q13.253748383789063,12.686306875,13.253748383789063,13.228726875Q13.253748383789063,13.771146875,12.888178383789063,14.136716875Q12.522608383789063,14.502286875,11.980188383789063,14.502286875Q11.437768383789063,14.502286875,11.072198383789063,14.136716875Q10.706628383789063,13.771146875,10.706628383789063,13.228726875Q10.706628383789063,12.686306875,11.072198383789063,12.320736875Q11.437768383789063,11.955166875,11.980188383789063,11.955166875Q12.522608383789063,11.955166875,12.888178383789063,12.320736875ZM11.570508383789061,12.819046875Q11.412458383789062,12.977096875,11.412458383789062,13.228726875Q11.412458383789062,13.480366875,11.570508383789061,13.638416875Q11.728558383789062,13.796456875,11.980188383789063,13.796456875Q12.231828383789063,13.796456875,12.389868383789063,13.638416875Q12.547918383789064,13.480366875,12.547918383789064,13.228726875Q12.547918383789064,12.977096875,12.389868383789063,12.819046875Q12.231828383789063,12.660996875,11.980188383789063,12.660996875Q11.728558383789062,12.660996875,11.570508383789061,12.819046875ZM11.980188383789063,13.581646875Q11.627278383789061,13.581646875,11.627278383789061,13.228726875Q11.627278383789061,12.875816875,11.980188383789063,12.875816875Q12.333108383789064,12.875816875,12.333108383789064,13.228726875Q12.333108383789064,13.581646875,11.980188383789063,13.581646875Z" fill-rule="evenodd"  fill-opacity="1"/></g><g><ellipse cx="3.7519307136535645" cy="8.597893238067627" rx="2.013908863067627" ry="2.013908863067627" fill-opacity="0" stroke-opacity="1" stroke="currentColor" fill="none" stroke-width="1.5037187337875366"/></g><g transform="matrix(-0.5000001192092896,0.866025447845459,-0.866025447845459,-0.5000001192092896,23.40339991698511,-7.113520938622969)"><ellipse cx="15.20521080493927" cy="4.649233937263489" rx="1.4500151872634888" ry="1.4500151872634888" fill-opacity="0" stroke-opacity="1" stroke="currentColor" fill="none" stroke-width="1.5037187337875366"/></g><g><path d="M10.466369997558594,3.5445725L9.818539997558593,3.9224785L9.817599997558593,3.9208724999999998L4.9842199975585935,6.740342500000001L4.985156997558594,6.7419525L4.337319997558594,7.1198525L5.093127997558594,8.4155225L5.740962997558594,8.0376225L5.741899997558594,8.039222500000001L10.575279997558594,5.2197525L10.574339997558594,5.2181465L11.222179997558595,4.8402445L10.466369997558594,3.5445725Z" fill-rule="evenodd"  fill-opacity="1"/></g></g></svg>