<svg xmlns="http://www.w3.org/2000/svg" xmlns:xlink="http://www.w3.org/1999/xlink"  version="1.1" width="18" height="18" viewBox="0 0 18 18"><g><g><path d="M11.013754243164062,15.881757499999999L11.842454243164063,15.053067500000001L11.934524243164063,15.053067500000001C13.499834243164063,15.053067500000001,14.650794243164063,14.4545675,15.525524243164062,13.211527499999999C15.249294243164062,12.8432275,14.927024243164063,12.5209575,14.604754243164063,12.2447275L15.295334243164064,11.6462275C15.801754243164062,12.0605675,16.216094243164065,12.6130275,16.584404243164062,13.211527499999999C15.525524243164062,15.053067500000001,13.960214243164064,15.9277975,11.980564243164062,15.9277975C11.658294243164063,15.9738375,11.336024243164061,15.9277975,11.013754243164062,15.881757499999999ZM8.435604243164063,14.5926775C8.067300243164063,14.2243775,7.698993243164063,13.763987499999999,7.3767242431640625,13.211527499999999C8.435604243164063,11.3699975,10.000914243164063,10.4952645,11.980564243164062,10.4952645L12.486984243164063,10.4952645L11.566224243164061,11.4160275C10.185064243164062,11.5081075,9.126184243164062,12.106607499999999,8.343531243164062,13.211527499999999C8.527684243164062,13.4877575,8.757874243164062,13.763987499999999,8.988064243164063,13.948147500000001L8.435604243164063,14.5926775ZM14.604754243164063,9.8046875L15.249294243164062,10.4492255L9.448454243164063,16.2500675L8.803914243164062,15.6055275L14.604754243164063,9.8046875Z"  fill-opacity="1"/><path d="M14.604754243164063,9.5008495L8.651994243164062,15.4536075L8.500074243164063,15.6055275L9.448454243164063,16.553897499999998L15.553124243164062,10.4492255L14.604754243164063,9.5008495ZM9.107754243164063,15.6055275L9.448454243164063,15.946227499999999L14.945454243164063,10.4492255L14.604754243164063,10.1085255L9.107754243164063,15.6055275ZM8.447744243164063,14.9086575L9.151194243164063,14.087967500000001L9.295834243164062,13.9192175L9.122284243164062,13.7803775Q8.862594243164063,13.5726275,8.607044243164063,13.2151775Q9.710674243164062,11.7550575,11.580514243164062,11.6303975L11.661054243164063,11.6250275L13.005674243164062,10.2804185L11.980564243164062,10.2804175Q8.814284243164062,10.2804195,7.190473243164062,13.1044375L7.128448243164063,13.2123075L7.191145243164063,13.3197875Q7.656330243164063,14.117247500000001,8.283688243164063,14.744597500000001L8.447744243164063,14.9086575ZM8.686974243164062,13.9692975Q8.419844243164063,13.7133175,8.164768243164062,13.330707499999999L8.082859243164062,13.2078375L8.168211243164063,13.0873475Q9.378994243164062,11.3779975,11.470744243164063,11.2076675L11.968294243164063,10.7101215Q9.120624243164063,10.7154815,7.626277243164062,13.2107475Q7.979420243164062,13.7922175,8.426284243164062,14.2734375L8.686974243164062,13.9692975ZM11.995284243164063,16.1426275Q11.643454243164062,16.188737500000002,10.983374243164063,16.0944475L10.558004243164063,16.0336775L11.753454243164063,14.838217499999999L11.934524243164063,14.838217499999999Q14.036864243164063,14.838217499999999,15.256854243164064,13.2157075Q14.925554243164061,12.8026675,14.464934243164063,12.407847499999999L14.275674243164062,12.2456275L15.291344243164062,11.3653675L15.431374243164063,11.4799375Q16.115564243164062,12.0397275,16.767384243164063,13.0989275L16.834374243164064,13.2077975L16.77065424316406,13.3186275Q15.150634243164063,16.1360675,11.995284243164063,16.1426275ZM11.965294243164063,15.7129475L11.950184243164063,15.7151075Q11.774184243164061,15.740247499999999,11.481014243164061,15.7183375L11.931444243164062,15.2679075L11.934524243164063,15.2679075Q14.341154243164063,15.2679075,15.701224243164063,13.3351675L15.791064243164062,13.2075075L15.697394243164062,13.0826175Q15.375774243164063,12.6537975,14.930774243164063,12.246477500000001L15.295834243164062,11.9300975Q15.819554243164063,12.4036375,16.333274243164063,13.2149375Q14.835784243164063,15.7129475,11.980564243164062,15.7129475L11.965294243164063,15.7129475Z" fill-rule="evenodd"  fill-opacity="1"/></g><g><ellipse cx="3.751194953918457" cy="8.596211433410645" rx="2.0141801834106445" ry="2.0141801834106445" fill-opacity="0" stroke-opacity="1" stroke="currentColor"  stroke-width="1.5039212703704834"/></g><g transform="matrix(-0.5000001192092896,0.866025447845459,-0.866025447845459,-0.5000001192092896,23.404326888494325,-7.114056125858042)"><ellipse cx="15.206023812294006" cy="4.649428963661194" rx="1.4502102136611938" ry="1.4502102136611938" fill-opacity="0" stroke-opacity="1" stroke="currentColor" fill="none" stroke-width="1.5039212703704834"/></g><g><path d="M10.46650119873047,3.542619375L9.818671198730469,3.920525375L9.817681198730469,3.918831375L4.983650198730468,6.738679375L4.984638198730469,6.740379375L4.336801198730469,7.118279375L5.092609198730469,8.413949375L5.740444198730469,8.036049375000001L5.741432198730469,8.037739375000001L10.57546119873047,5.217887375L10.574481198730469,5.216193375L11.22231119873047,4.838291375L10.46650119873047,3.542619375Z" fill-rule="evenodd" fill="currentColor" fill-opacity="1"/></g></g></svg>