<svg xmlns="http://www.w3.org/2000/svg" xmlns:xlink="http://www.w3.org/1999/xlink" version="1.1" width="240" height="148.572265625" viewBox="0 0 240 148.572265625"><defs><mask id="master_svg0_115_01387" style="mask-type:alpha" maskUnits="userSpaceOnUse"><g><path d="M0,9.142857551574707L240,9.142857551574707L240,148.5718575515747L0,148.5718575515747L0,9.142857551574707Z" fill="#FFFFFF" fill-opacity="1"/></g></mask><linearGradient x1="0.5" y1="0.01746314764022827" x2="0.5" y2="0.5" id="master_svg1_32_12075"><stop offset="0%" stop-color="#E5E9EF" stop-opacity="1"/><stop offset="100%" stop-color="#FFFFFF" stop-opacity="0"/></linearGradient><linearGradient x1="0" y1="0.0291315708309412" x2="1" y2="1" id="master_svg2_1_341"><stop offset="0%" stop-color="#4070FD" stop-opacity="1"/><stop offset="100%" stop-color="#757BEB" stop-opacity="1"/></linearGradient><linearGradient x1="0" y1="0.0291315708309412" x2="1" y2="1" id="master_svg3_1_341"><stop offset="0%" stop-color="#4070FD" stop-opacity="1"/><stop offset="100%" stop-color="#757BEB" stop-opacity="1"/></linearGradient><linearGradient x1="0.500111997127533" y1="-1.5259721279144287" x2="0.500111997127533" y2="1.9925082921981812" id="master_svg4_32_12093"><stop offset="21.712371706962585%" stop-color="#E7ECF3" stop-opacity="1"/><stop offset="98.65999817848206%" stop-color="#FFFFFF" stop-opacity="1"/><stop offset="100%" stop-color="#FFFFFF" stop-opacity="1"/></linearGradient><linearGradient x1="-2.152254104614258" y1="0.49997225403785706" x2="3.2663464546203613" y2="0.49997225403785706" id="master_svg5_32_12087"><stop offset="0%" stop-color="#567CFD" stop-opacity="1"/><stop offset="0.1408349140547216%" stop-color="#5B82FD" stop-opacity="1"/><stop offset="0.8565548807382584%" stop-color="#719AFE" stop-opacity="1"/><stop offset="1.6153506934642792%" stop-color="#80ABFF" stop-opacity="1"/><stop offset="2.4393700063228607%" stop-color="#89B5FF" stop-opacity="1"/><stop offset="31.643381714820862%" stop-color="#D0D8E4" stop-opacity="1"/><stop offset="100%" stop-color="#F5FAFD" stop-opacity="1"/></linearGradient><linearGradient x1="0.8710876703262329" y1="1.1342333555221558" x2="0.2314036637544632" y2="0" id="master_svg6_32_12099"><stop offset="0%" stop-color="#E3E9F2" stop-opacity="1"/><stop offset="100%" stop-color="#F3F6FA" stop-opacity="1"/></linearGradient><linearGradient x1="0.9173608422279358" y1="0.173659548163414" x2="0.2129667103290558" y2="0.930779218673706" id="master_svg7_32_12084"><stop offset="0%" stop-color="#E2E8F1" stop-opacity="1"/><stop offset="100%" stop-color="#F1F5FA" stop-opacity="1"/></linearGradient><linearGradient x1="-2.3708841800689697" y1="0.5001682639122009" x2="2.017643690109253" y2="1" id="master_svg8_32_12090"><stop offset="0%" stop-color="#C4DCFF" stop-opacity="1"/><stop offset="47.26090431213379%" stop-color="#DAE1EB" stop-opacity="1"/><stop offset="72.6030945777893%" stop-color="#FCFCFC" stop-opacity="1"/><stop offset="98.66001605987549%" stop-color="#FFFFFF" stop-opacity="1"/><stop offset="100%" stop-color="#FFFFFF" stop-opacity="1"/></linearGradient><linearGradient x1="0.0011073903879150748" y1="0.5011218190193176" x2="1.246970295906067" y2="0.6823742985725403" id="master_svg9_32_12096"><stop offset="21.124687790870667%" stop-color="#F8FAFD" stop-opacity="1"/><stop offset="100%" stop-color="#DDE3EB" stop-opacity="1"/></linearGradient><linearGradient x1="0" y1="0.0291315708309412" x2="1" y2="1" id="master_svga_1_341"><stop offset="0%" stop-color="#4070FD" stop-opacity="1"/><stop offset="100%" stop-color="#757BEB" stop-opacity="1"/></linearGradient><linearGradient x1="0" y1="0.0291315708309412" x2="1" y2="1" id="master_svgb_1_341"><stop offset="0%" stop-color="#4070FD" stop-opacity="1"/><stop offset="100%" stop-color="#757BEB" stop-opacity="1"/></linearGradient><linearGradient x1="0" y1="0.0291315708309412" x2="1" y2="1" id="master_svgc_1_341"><stop offset="0%" stop-color="#4070FD" stop-opacity="1"/><stop offset="100%" stop-color="#757BEB" stop-opacity="1"/></linearGradient></defs><g><g mask="url(#master_svg0_115_01387)"><g><g><path d="M235.23842877578736,151.44140476837157Q235.23842877578736,152.60600476837158,235.09942877578735,153.7692047683716Q234.96042877578736,154.93240476837158,234.68242877578734,156.09140476837158Q234.40542877578736,157.2504047683716,233.98942877578736,158.40240476837158Q233.57442877578734,159.55450476837157,233.02242877578735,160.69670476837157Q232.46942877578735,161.83890476837158,231.78142877578736,162.9687047683716Q231.09342877578734,164.09840476837158,230.27142877578734,165.2128047683716Q229.45042877578734,166.3273047683716,228.49642877578736,167.42390476837159Q227.54242877578736,168.52040476837158,226.45842877578735,169.5964047683716Q225.37542877578736,170.6723047683716,224.16442877578734,171.72510476837158Q222.95442877578736,172.77790476837157,221.61942877578736,173.8050047683716Q220.28542877578735,174.83210476837158,218.82942877578736,175.83110476837157Q217.37342877578735,176.83000476837157,215.80142877578734,177.7984047683716Q214.22842877578736,178.7667047683716,212.54142877578735,179.70210476837158Q210.85442877578734,180.6376047683716,209.05842877578735,181.5378047683716Q207.26242877578736,182.4381047683716,205.36142877578735,183.30100476837157Q203.45942877578736,184.1639047683716,201.45742877578735,184.9875047683716Q199.45542877578734,185.8110047683716,197.35742877578735,186.59310476837157Q195.26042877578735,187.3752047683716,193.07142877578735,188.1140047683716Q190.88242877578736,188.85280476837158,188.60842877578736,189.5466047683716Q186.33442877578736,190.24040476837158,183.98042877578735,190.8874047683716Q181.62642877578736,191.5344047683716,179.19842877578736,192.13320476837157Q176.76942877578736,192.73190476837158,174.27242877578735,193.28090476837158Q171.77542877578736,193.8299047683716,169.21642877578736,194.32780476837158Q166.65642877578736,194.8258047683716,164.04042877578735,195.27150476837159Q161.42542877578737,195.7171047683716,158.75942877578734,196.10950476837158Q156.09342877578734,196.50180476837158,153.38442877578734,196.83990476837158Q150.67442877578736,197.17800476837158,147.92842877578735,197.4610047683716Q145.18242877578734,197.74390476837158,142.40542877578736,197.9711047683716Q139.62842877578734,198.1983047683716,136.82742877578735,198.3692047683716Q134.02742877578734,198.54010476837158,131.20942877578736,198.6543047683716Q128.39142877578735,198.76840476837157,125.56342877578736,198.8256047683716Q122.73642877578736,198.88270476837158,119.90442877578735,198.88270476837158Q117.07342877578735,198.88270476837158,114.24542877578736,198.8256047683716Q111.41742877578736,198.76840476837157,108.60042877578735,198.6543047683716Q105.78242877578735,198.54010476837158,102.98182877578735,198.3692047683716Q100.18122877578736,198.1983047683716,97.40432877578735,197.9711047683716Q94.62742877578735,197.74390476837158,91.88102877578736,197.4610047683716Q89.13462877578735,197.17800476837158,86.42522877578736,196.83990476837158Q83.71592877578735,196.50180476837158,81.05012877578736,196.10950476837158Q78.38432877578735,195.7171047683716,75.76862877578735,195.27140476837158Q73.15282877578736,194.8258047683716,70.59342877578736,194.32780476837158Q68.03392877578736,193.8299047683716,65.53702877578735,193.28090476837158Q63.040028775787356,192.73190476837158,60.611528775787356,192.13320476837157Q58.18312877578735,191.5344047683716,55.82902877578735,190.8874047683716Q53.474928775787355,190.24040476837158,51.200728775787354,189.5466047683716Q48.92672877578735,188.85280476837158,46.738028775787356,188.1140047683716Q44.549428775787355,187.3752047683716,42.451628775787356,186.59310476837157Q40.353828775787356,185.8110047683716,38.351828775787354,184.9875047683716Q36.349728775787355,184.1639047683716,34.44842877578735,183.30100476837157Q32.54702877578735,182.4381047683716,30.750928775787354,181.5378047683716Q28.954728775787352,180.6376047683716,27.268128775787353,179.70210476837158Q25.581528775787355,178.7667047683716,24.008628775787354,177.7984047683716Q22.435628775787354,176.83000476837157,20.980028775787353,175.83110476837157Q19.524528775787353,174.83220476837158,18.189828775787355,173.80510476837156Q16.855228775787353,172.77790476837157,15.644628775787353,171.72510476837158Q14.434138775787353,170.6723047683716,13.350658775787354,169.5964047683716Q12.267178775787354,168.52040476837158,11.313348775787354,167.42390476837159Q10.359518775787354,166.3273047683716,9.537638775787354,165.21290476837157Q8.715768775787353,164.09840476837158,8.027828775787354,162.9687047683716Q7.339878775787353,161.83890476837158,6.7875287757873535,160.69670476837157Q6.235168775787353,159.55450476837157,5.8197387757873535,158.40240476837158Q5.404303775787353,157.2504047683716,5.126790775787353,156.09140476837158Q4.849276775787353,154.93240476837158,4.710352775787354,153.7692047683716Q4.5714287757873535,152.60600476837158,4.5714287757873535,151.44140476837157Q4.5714287757873535,150.2767047683716,4.710352775787354,149.11350476837157Q4.849276775787353,147.95030476837158,5.126790775787353,146.7913047683716Q5.404303775787353,145.63230476837157,5.8197387757873535,144.48030476837158Q6.235168775787353,143.3282047683716,6.7875287757873535,142.1860047683716Q7.339878775787353,141.0438047683716,8.027828775787354,139.91400476837157Q8.715768775787353,138.78430476837158,9.537648775787353,137.66990476837157Q10.359518775787354,136.55540476837157,11.313348775787354,135.45880476837158Q12.267178775787354,134.3623047683716,13.350658775787354,133.2863047683716Q14.434138775787353,132.21040476837157,15.644628775787353,131.15760476837158Q16.855228775787353,130.1048047683716,18.189828775787355,129.07770476837158Q19.524528775787353,128.05050476837158,20.980028775787353,127.05160476837159Q22.435628775787354,126.05270476837158,24.008628775787354,125.08430476837158Q25.581528775787355,124.11600476837158,27.268128775787353,123.18060476837158Q28.954728775787352,122.24510476837159,30.750928775787354,121.34490476837158Q32.54702877578735,120.44460476837159,34.44842877578735,119.58170476837158Q36.349728775787355,118.71880476837158,38.351828775787354,117.89530476837159Q40.353828775787356,117.07170476837157,42.451628775787356,116.28960476837159Q44.549428775787355,115.50750476837158,46.738028775787356,114.76870476837158Q48.92672877578735,114.02990476837158,51.200728775787354,113.33610476837158Q53.474928775787355,112.64234476837159,55.82902877578735,111.99531476837159Q58.18312877578735,111.34828476837158,60.611528775787356,110.74955476837158Q63.040028775787356,110.15081476837159,65.53702877578735,109.60181476837158Q68.03392877578736,109.05282476837158,70.59342877578736,108.55488476837158Q73.15282877578736,108.05694476837158,75.76862877578735,107.61126476837158Q78.38432877578735,107.16558476837159,81.05012877578736,106.77323476837158Q83.71592877578735,106.38088476837159,86.42522877578736,106.04281476837158Q89.13462877578735,105.70474476837158,91.88102877578736,105.42176476837159Q94.62742877578735,105.13878476837158,97.40432877578735,104.91157676837159Q100.18122877578736,104.68437076837158,102.98182877578735,104.51348576837158Q105.78242877578735,104.34260076837158,108.60042877578735,104.22844776837158Q111.41742877578736,104.11429476837158,114.24542877578736,104.05714996837158Q117.07342877578735,104.00000476837158,119.90442877578735,104.00000476837158Q122.73642877578736,104.00000476837158,125.56342877578736,104.05714996837158Q128.39142877578735,104.11429476837158,131.20942877578736,104.22844776837158Q134.02742877578734,104.34260076837158,136.82742877578735,104.51348576837158Q139.62842877578734,104.68437076837158,142.40542877578736,104.91157676837159Q145.18242877578734,105.13878476837158,147.92842877578735,105.42176476837159Q150.67442877578736,105.70474476837158,153.38442877578734,106.04281476837158Q156.09342877578734,106.38088476837159,158.75942877578734,106.77323476837158Q161.42542877578737,107.16558476837159,164.04042877578735,107.61126476837158Q166.65642877578736,108.05694476837158,169.21642877578736,108.55488476837158Q171.77542877578736,109.05282476837158,174.27242877578735,109.60181476837158Q176.76942877578736,110.15081476837159,179.19842877578736,110.74955476837158Q181.62642877578736,111.34828476837158,183.98042877578735,111.99531476837159Q186.33442877578736,112.64234476837159,188.60842877578736,113.33610476837158Q190.88242877578736,114.02990476837158,193.07142877578735,114.76870476837158Q195.26042877578735,115.50750476837158,197.35742877578735,116.28960476837159Q199.45542877578734,117.07170476837157,201.45742877578735,117.89530476837159Q203.45942877578736,118.71880476837158,205.36142877578735,119.58170476837158Q207.26242877578736,120.44460476837159,209.05842877578735,121.34490476837158Q210.85442877578734,122.24510476837159,212.54142877578735,123.18060476837158Q214.22842877578736,124.11600476837158,215.80042877578737,125.08430476837158Q217.37342877578735,126.05270476837158,218.82942877578736,127.05160476837159Q220.28542877578735,128.05060476837158,221.61942877578736,129.07770476837158Q222.95442877578736,130.1048047683716,224.16442877578734,131.15760476837158Q225.37542877578736,132.21040476837157,226.45842877578735,133.2863047683716Q227.54242877578736,134.3623047683716,228.49642877578736,135.45880476837158Q229.45042877578734,136.55540476837157,230.27142877578734,137.66990476837157Q231.09342877578734,138.78430476837158,231.78142877578736,139.91400476837157Q232.46942877578735,141.0438047683716,233.02242877578735,142.1860047683716Q233.57442877578734,143.3283047683716,233.98942877578736,144.48030476837158Q234.40542877578736,145.63230476837157,234.68242877578734,146.7913047683716Q234.96042877578736,147.95030476837158,235.09942877578735,149.11350476837157Q235.23842877578736,150.2767047683716,235.23842877578736,151.44140476837157Z" fill="url(#master_svg1_32_12075)" fill-opacity="1"/></g></g></g><g><g><g><path d="M118.3460277709961,27.0115C118.2580277709961,27.0555,118.1258277709961,27.0555,117.99382777099609,27.0115C96.0193777709961,22.828,90.69093917099609,1.2499,90.64690237099609,1.02972C90.5588287709961,0.589352,90.8230597709961,0.104949,91.2634287709961,0.0168751C91.70379777099609,-0.0711986,92.1441877709961,0.193022,92.2762977709961,0.633391C92.32032777099609,0.853575,97.42858777099609,21.3748,118.30202777099609,25.3381C118.7424277709961,25.4261,119.05072777099609,25.8665,118.96252777099609,26.3068C118.91852777099609,26.7033,118.65432777099609,26.9233,118.3460277709961,27.0115Z" fill="url(#master_svg2_1_341)" fill-opacity="1"/></g><g><path d="M148.77513518371583,30.138042396850587Q143.75493518371582,24.589402396850588,136.62093518371583,23.356373396850586Q129.31085518371583,22.079302396850586,122.61723518371582,27.495842396850584Q126.00810518371583,26.218762396850586,128.20994518371583,28.420602396850587C131.4686651837158,31.723372396850586,136.79713518371582,31.679342396850586,140.62833518371582,30.490352396850586Q145.5604351837158,28.949052396850586,148.77513518371583,30.138042396850587Z" fill="url(#master_svg3_1_341)" fill-opacity="1"/></g></g><g><g><path d="M117.81626764746093,30.71498394012451L117.36961364746094,59.09448394012451L182.27991364746094,39.44183394012451L117.81626764746093,30.71498394012451Z" fill="url(#master_svg4_32_12093)" fill-opacity="1"/></g><g style="opacity:0.800000011920929;"><path d="M66.10776901245117,42.13905575866699L117.81616901245117,30.835355758666992L117.81616901245117,48.065755758666995L66.10776901245117,42.13905575866699Z" fill="url(#master_svg5_32_12087)" fill-opacity="1"/></g><g><path d="M66.10776901245117,42.13896560668945L127.13566901245117,48.18592560668945L127.13566901245117,125.40486560668946L66.10776901245117,110.63106560668945L66.10776901245117,42.13896560668945Z" fill="url(#master_svg6_32_12099)" fill-opacity="1"/></g><g><path d="M127.13589096069336,48.18601654724121L182.27999096069337,39.44197654724121L182.27999096069337,108.6211765472412L127.13589096069336,125.4049765472412L127.13589096069336,48.18601654724121Z" fill="url(#master_svg7_32_12084)" fill-opacity="0.9900000095367432"/></g><g><path d="M66.10790590209962,42.13896560668945L58.04203590209961,55.79286560668945C55.03256590209961,60.88736560668946,53.52782990209961,63.43456560668945,54.50535490209961,65.59796560668946C55.48287590209961,67.76136560668945,58.38895590209961,68.31566560668945,64.20114590209961,69.42406560668945L106.01980590209962,77.39956560668945C109.39130590209962,78.04256560668945,111.07710590209962,78.36406560668945,112.47750590209961,77.64376560668946C113.8779059020996,76.92346560668946,114.59680590209962,75.36526560668946,116.0346059020996,72.24866560668946L127.1358059020996,48.18592560668945L66.10790590209962,42.13896560668945Z" fill="url(#master_svg8_32_12090)" fill-opacity="1"/></g><g><path d="M127.13589096069336,48.18601654724121L141.02919096069337,72.68707654724122C142.67999096069337,75.59817654724121,143.50529096069334,77.05367654724121,144.92239096069335,77.66037654724121C146.33949096069335,78.2670765472412,147.96239096069337,77.85967654724121,151.20829096069335,77.04497654724122L187.13169096069336,68.02797654724121C192.97399096069336,66.5615765472412,195.89509096069338,65.8283765472412,196.73539096069337,63.57857654724121C197.57569096069335,61.32887654724121,195.85039096069335,58.86027654724121,192.39999096069334,53.92287654724121L182.27999096069337,39.44197654724121L127.13589096069336,48.18601654724121Z" fill="url(#master_svg9_32_12096)" fill-opacity="1"/></g><g><path d="M158.62766608276368,19.589274041992187L158.2325590827637,20.568468041992187L157.43601608276367,20.247062041992187L157.83112208276367,19.267868041992188L158.62766608276368,19.589274041992187Z" fill-rule="evenodd" fill="#DDDDDD" fill-opacity="1"/></g></g></g><g><g><g><g transform="matrix(0.895167887210846,0.44572916626930237,-0.44572916626930237,0.895167887210846,58.217383436752016,-12.122329905040658)"><path d="M54.87977409362793,117.70425796508789L56.57770409362793,117.70425796508789L56.57770409362793,119.7538279650879L54.87977409362793,119.7538279650879L54.87977409362793,117.70425796508789Z" fill="#FEB99B" fill-opacity="1"/></g><g><path d="M54.62970476819434,118.0395754486084L56.35203292419433,118.9006754486084Q60.636332924194335,112.5223754486084,62.69739292419433,108.1561754486084C63.080662924194336,107.3450754486084,63.24021292419434,106.4461754486084,63.15955292419434,105.5525754486084L62.456262924194334,94.7564754486084L59.923002924194336,94.7564754486084Q54.58090532419433,117.4122754486084,54.62970476819434,118.0395754486084Z" fill="#555760" fill-opacity="1"/></g><g><path d="M54.362738989257814,118.40408596582031C54.20629798925781,118.30935716582032,53.91350198925781,118.48015496582032,53.636493989257815,119.1045009658203C53.35948518925781,119.72884496582031,53.089652989257814,120.00298496582032,53.57334198925781,120.30008496582032C53.98957198925781,120.55556496582031,56.89456898925781,121.96643496582031,57.69401898925781,122.36401496582032C57.965288989257814,122.49892496582031,58.03704898925781,122.18890496582031,58.06001898925781,122.11570496582031C58.160488989257814,121.79563496582031,58.164788989257815,121.23731496582032,57.34237898925781,120.71918496582032C56.75821898925781,120.28859496582031,56.439588989257814,119.36858696582031,56.159708989257815,119.22075396582031C55.87982898925781,119.07292096582032,55.62004898925781,119.29108096582031,55.172238989257814,119.03416996582031C54.72443898925781,118.77725896582031,54.634008989257815,118.56770996582031,54.362738989257814,118.40408596582031Z" fill="#212643" fill-opacity="1"/></g><g><path d="M56.25300312042236,120.45940399169922L57.95093312042236,120.45940399169922L57.95093312042236,122.50897399169922L56.25300312042236,122.50897399169922L56.25300312042236,120.45940399169922Z" fill="#FFD5C3" fill-opacity="1"/></g><g><path d="M54.31681537628174,95.56597165722309Q55.05454737628174,103.31645946716309,55.704725376281736,105.19379946716309Q54.37566167628174,110.50436946716309,56.17693537628174,120.86986946716308L58.09589537628174,120.86986946716308Q61.045385376281736,98.52263946716309,60.425355376281736,95.56596946716309L54.31681537628174,95.56597165722309Z" fill="#65697C" fill-opacity="1"/></g><g><path d="M56.09942783544922,121.31482717387695C55.91714783544922,121.30047347387695,55.73199753544922,121.58322297387696,55.76070260544922,122.26498197387696C55.789407635449216,122.94673197387695,55.67171513544922,123.31416197387695,56.23721383544922,123.36296197387695C56.72377283544922,123.40602197387696,59.95314383544922,123.37444197387696,60.84588383544922,123.37444197387696C61.14873383544922,123.37444197387696,61.07553383544922,123.06442197387695,61.06261383544922,122.98835197387696C61.009503835449216,122.65681197387696,60.76551383544922,122.15589697387695,59.790953835449216,122.06116797387695C59.073323835449216,121.93486297387696,58.38008383544922,121.25454362387696,58.068623835449216,121.24736461687695C57.757173835449215,121.24018560387695,57.61795383544922,121.55020597387696,57.10125383544922,121.52006597387695C56.58455183544922,121.48992697387695,56.41662383544922,121.34066107387696,56.09942783544922,121.31482717387695Z" fill="#3A3F5B" fill-opacity="1"/></g><g><path d="M57.69832706451416,76.27585792541504L59.83114706451416,76.27585792541504L59.83114706451416,80.20994792541504L57.69832706451416,80.20994792541504L57.69832706451416,76.27585792541504Z" fill="#FEB99B" fill-opacity="1"/></g><g><path d="M61.3180898348999,73.93349191101075Q61.731449834899905,77.46139191101074,60.7927798348999,77.78146191101074C60.009119834899906,78.04842191101073,58.0485328348999,77.28198191101075,57.663878834899904,76.63324191101074Q57.201719834899905,75.85245191101075,57.7399478348999,74.17605191101075L59.6790098348999,72.89291191101074L61.237719834899906,73.38664691101074L61.3180898348999,73.93349191101075Z" fill="#FFD5C3" fill-opacity="1"/></g><g><path d="M70.05461772827148,81.56628558251953C69.72880772827149,82.30258158251954,69.41735772827148,82.39300458251954,69.28817772827148,82.39443958251952C69.25501372827148,82.39414258251954,69.23023372827149,82.36385358251952,69.23651072827148,82.33128658251952C69.25672472827148,82.24102558251953,69.25672472827148,82.14740958251953,69.23651072827148,82.05714858251953C69.22411272827148,82.01657758251953,69.19059972827148,81.98598158251953,69.14907172827148,81.97731658251953C69.10754472827148,81.96865258251952,69.06459272827148,81.98329658251953,69.03700672827148,82.01552558251953L68.26482772827148,82.89103958251953L69.78478772827148,84.31052958251954C70.16512772827149,83.87994958251953,70.59427772827148,83.01877958251953,70.76938772827148,82.58819958251954C70.85188772827148,82.39602358251953,70.87440772827148,82.18340058251952,70.83396772827149,81.97820758251953C70.73349772827149,81.50743738251953,70.39190772827149,81.45289613251953,70.21105772827148,81.45863736751953C70.14252772827149,81.46137603251952,70.08166772827148,81.50325428251953,70.05461772827148,81.56628558251953Z" fill="#FED4C2" fill-opacity="1"/></g><g><path d="M57.69833034942627,77.10545Q58.00404034942627,77.14851,58.04997034942627,76.46962C58.052360349426266,76.42751,58.02661034942627,76.38889,57.98681034942627,76.37489C57.80741034942627,76.3103,57.33950534942627,76.07061,57.57633034942627,75.3702C57.813150349426266,74.66978,58.37721034942627,75.20514,58.54657034942627,75.54961C58.55454034942627,75.56373,58.57044034942627,75.5714,58.58645034942627,75.56884C58.602460349426266,75.56628,58.61518034942627,75.55402,58.61834034942627,75.53813C58.700150349426266,74.99558999999999,59.02883034942627,73.43545,60.13829034942627,73.36512Q61.48458034942627,73.28044,61.26929034942627,74.46741Q61.455880349426266,74.39278,61.43722034942627,73.51439Q61.67978034942627,73.71963,61.55922034942627,74.26217Q61.71710034942627,74.22341,61.73145034942627,73.84737C61.743130349426266,73.41794,61.56578034942627,73.00502,61.24633034942627,72.717808C60.78417034942627,72.297272,59.92300034942627,71.866689,58.56093034942627,72.0389225C58.27041034942627,72.0731132,57.99914034942627,72.201689,57.788750349426266,72.404918C57.67967034942627,72.510819,57.59324034942627,72.637778,57.53471034942627,72.77809Q56.40944854942627,72.897218,56.36208524942627,73.97224C56.31472194942627,75.04726,56.62761134942627,75.82662,57.07972334942627,76.14094C57.39336034942627,76.3793,57.61250034942627,76.72098,57.69833034942627,77.10545Z" fill="#3E435E" fill-opacity="1"/></g><g><path d="M62.71461661010742,80.85151767730713L64.47426661010742,86.65864767730713C64.51164661010742,86.78206767730713,64.61407661010742,86.87478767730713,64.74060661010742,86.89973767730713C64.86712661010742,86.92467767730713,64.99708661010742,86.87777767730712,65.07851661010743,86.77777767730713L68.26626661010742,82.85803767730712L69.84506661010742,84.25455767730713L65.14740661010742,90.12627767730713C64.88954661010742,90.44919767730713,64.42497661010742,90.51583767730713,64.08673661010742,90.27841767730713L60.17130661010742,87.52985767730713L62.71461661010742,80.85151767730713Z" fill="url(#master_svga_1_341)" fill-opacity="1"/></g><g><path d="M46.51465380419922,81.36821687109375C46.83902680419922,82.10451387109374,47.149046804199216,82.19062987109375,47.281096804199215,82.19062987109375C47.31425680419922,82.19033387109376,47.33903680419922,82.16004487109375,47.33275680419922,82.12747787109375C47.31254680419922,82.03721687109375,47.31254680419922,81.94360087109375,47.33275680419922,81.85333987109375C47.34515680419922,81.81276887109375,47.37866680419922,81.78217287109375,47.42019680419922,81.77350687109374C47.461726804199216,81.76484387109375,47.50467680419922,81.77948787109375,47.53226680419922,81.81171587109375L48.29726680419922,82.69297287109374L46.783046804199216,84.11246287109375C46.402702804199215,83.68188287109375,45.97355480419922,82.82071287109375,45.79845130419922,82.39013287109375C45.71594498419922,82.19795687109375,45.69343200419922,81.98533387109374,45.73386390419922,81.78014087109375C45.83433280419922,81.30937067109375,46.175928804199216,81.25482942109375,46.35677380419922,81.26057065609375C46.42583480419922,81.26276290109375,46.487384804199216,81.30472987109376,46.51465380419922,81.36821687109375Z" fill="#FED4C2" fill-opacity="1"/></g><g><path d="M53.70395026058197,80.9763879776001L52.09644026058197,86.4605779776001C52.05906026058197,86.58399797760009,51.95663026058197,86.6767279776001,51.83010026058197,86.7016679776001C51.70358026058197,86.7266079776001,51.57362026058197,86.6797079776001,51.49219026058197,86.5797079776001L48.30444026058197,82.6585279776001L46.72851026058197,84.0564879776001L51.42617026058197,89.9267679776001C51.68235026058197,90.2515879776001,52.14716026058197,90.3207779776001,52.48684026058197,90.0846479776001L56.39797026058197,87.3375279776001L53.70395026058197,80.9763879776001Z" fill="url(#master_svgb_1_341)" fill-opacity="1"/></g><g><path d="M62.80073285232544,81.0510178338623Q62.50650285232544,78.9957068338623,59.815362852325435,78.77467383386231Q59.77804285232544,79.8941878338623,59.22402285232544,79.9429878338623Q58.67000285232544,79.9917878338623,57.678232852325436,78.1718578338623Q53.89484385232544,79.6659778338623,53.65515284232544,81.1658478338623L53.65515284232544,81.18593783386231C53.646779152325436,81.2564978338623,53.646779152325436,81.3277978338623,53.65515284232544,81.3983578338623L53.65515284232544,94.6461578338623C53.65515284232544,95.2373578338623,54.13444685232544,95.7166578338623,54.72568285232544,95.7166578338623L61.74350285232544,95.7166578338623C62.335152852325436,95.7166578338623,62.81461285232544,95.2367578338623,62.81403285232544,94.6450578338623L62.80073285232544,81.0510178338623Z" fill="url(#master_svgc_1_341)" fill-opacity="1"/></g></g></g></g></g></svg>