<svg xmlns="http://www.w3.org/2000/svg" xmlns:xlink="http://www.w3.org/1999/xlink" version="1.1" width="16" height="16" viewBox="0 0 16 16"><defs><clipPath id="master_svg0_224_17745"><rect x="0" y="0" width="16" height="16" rx="0"/></clipPath></defs><g clip-path="url(#master_svg0_224_17745)"><g><path d="M3.4665382470703126,1.65452425C2.5050382470703125,1.74193325,1.7432302470703125,2.50374125,1.6558212470703124,3.46524125C1.6558212470703124,3.46524125,1.3415512670703125,6.92220125,1.3415512670703125,6.92220125C1.2878129470703126,7.51332125,1.4994132470703125,8.09776125,1.9191232470703126,8.517501249999999C1.9191232470703126,8.517501249999999,7.134388247070312,13.73273125,7.134388247070312,13.73273125C7.915438247070313,14.51383125,9.181798247070311,14.51383125,9.962798247070312,13.73273125C9.962798247070312,13.73273125,13.734028247070313,9.96150125,13.734028247070313,9.96150125C14.515128247070313,9.180501249999999,14.515128247070313,7.91414125,13.734028247070313,7.13309125C13.734028247070313,7.13309125,8.518798247070311,1.91782725,8.518798247070311,1.91782725C8.099058247070312,1.49811725,7.514628247070313,1.28651595,6.923498247070312,1.34025425C6.923498247070312,1.34025425,3.4665382470703126,1.65452425,3.4665382470703126,1.65452425C3.4665382470703126,1.65452425,3.4665382470703126,1.65452425,3.4665382470703126,1.65452425ZM7.133738247070313,7.13310125C7.6544382470703125,6.61240125,7.6544382470703125,5.76818125,7.133738247070313,5.24748125C6.613038247070312,4.72678125,5.768818247070312,4.72678125,5.2481182470703125,5.24748125C4.727418247070313,5.76818125,4.727418247070313,6.61240125,5.2481182470703125,7.13310125C5.768818247070312,7.65380125,6.613038247070312,7.65380125,7.133738247070313,7.13310125C7.133738247070313,7.13310125,7.133738247070313,7.13310125,7.133738247070313,7.13310125Z" fill-rule="evenodd" fill="#B8B9CE" fill-opacity="1"/></g></g></svg>