<svg xmlns="http://www.w3.org/2000/svg" xmlns:xlink="http://www.w3.org/1999/xlink" fill="none" version="1.1" width="16" height="16" viewBox="0 0 16 16"><defs><clipPath id="master_svg0_86_14130"><rect x="0" y="0" width="16" height="16" rx="0"/></clipPath><linearGradient x1="0" y1="0.5" x2="1" y2="0.5" id="master_svg1_77_04406"><stop offset="0%" stop-color="#109968" stop-opacity="1"/><stop offset="100%" stop-color="#38B27F" stop-opacity="1"/></linearGradient></defs><g clip-path="url(#master_svg0_86_14130)"><g><path d="M1.9060356367187499,1.91886L10.28603263671875,0.7221961C10.48690263671875,0.6933543,10.66670263671875,0.849226,10.66670263671875,1.052196L10.66670263671875,14.94955C10.66667263671875,15.15215,10.48734263671875,15.30785,10.28670263671875,15.27955L1.90536963671875,14.08285C1.57680863671875,14.03605,1.33270263671875,13.75475,1.33270263671875,13.42285L1.33270263671875,2.5788599999999997C1.33270581562875,2.2469900000000003,1.57681263671875,1.96566,1.9060356367187499,1.91886L1.9060356367187499,1.91886ZM11.33340263671875,2.0008600000000003L14.00000263671875,2.0008600000000003C14.36820263671875,2.0008600000000003,14.66670263671875,2.29934,14.66670263671875,2.66753L14.66670263671875,13.33415C14.66670263671875,13.70235,14.36820263671875,14.00085,14.00000263671875,14.00085L11.33340263671875,14.00085L11.33340263671875,2.0008600000000003ZM6.80003263671875,8.00086L8.66670263671875,5.3342L7.06670263671875,5.3342L6.00003263671875,6.8582L4.93337263671875,5.3342L3.33337263671875,5.3342L5.20003263671875,8.00086L3.33337263671875,10.66753L4.93337263671875,10.66753L6.00003263671875,9.14353L7.06670263671875,10.66753L8.66670263671875,10.66753L6.80003263671875,8.00086Z" fill="url(#master_svg1_77_04406)" fill-opacity="1"/></g></g></svg>