<svg xmlns="http://www.w3.org/2000/svg" xmlns:xlink="http://www.w3.org/1999/xlink" fill="none" version="1.1" width="16" height="16" viewBox="0 0 16 16"><defs><clipPath id="master_svg0_8_55397"><rect x="0" y="0" width="16" height="16" rx="0"/></clipPath></defs><g clip-path="url(#master_svg0_8_55397)"><g transform="matrix(0.8660253882408142,0.5,-0.5,0.8660253882408142,0.26693570823408663,-3.614869590543094)"><path d="M12.50390625,13.690673828125C9.40390625,13.690673828125,6.87890625,11.165673828125,6.87890625,8.065673828125L6.87890625,2.753173828125C6.87890625,0.515673828125,8.70390625,-1.309326171875,10.94140625,-1.309326171875C13.17890625,-1.309326171875,15.00390625,0.515673828125,15.00390625,2.753173828125L15.00390625,8.065673828125C15.00390625,9.446873828125,13.88515625,10.565673828125,12.50390625,10.565673828125C11.12265625,10.565673828125,10.00390625,9.446873828125,10.00390625,8.065673828125L10.00390625,2.753173828125C10.00390625,2.234423828125,10.42265625,1.815673828125,10.94140625,1.815673828125C11.46015625,1.815673828125,11.87890625,2.234423828125,11.87890625,2.753173828125L11.87890625,8.065673828125C11.87890625,8.409423828125,12.16015625,8.690673828125,12.50390625,8.690673828125C12.84765625,8.690673828125,13.12890625,8.409423828125,13.12890625,8.065673828125L13.12890625,2.753173828125C13.12890625,1.5469238281250002,12.14765625,0.565673828125,10.94140625,0.565673828125C9.73515625,0.565673828125,8.75390625,1.5469238281250002,8.75390625,2.753173828125L8.75390625,8.065673828125C8.75390625,10.134473828125,10.43515625,11.815673828125,12.50390625,11.815673828125C14.57265625,11.815673828125,16.25390625,10.134473828125,16.25390625,8.065673828125L16.25390625,1.503173828125C16.25390625,0.9844238281250002,16.67265625,0.565673828125,17.19140625,0.565673828125C17.71020625,0.565673828125,18.12890625,0.9844238281250002,18.12890625,1.503173828125L18.12890625,8.065673828125C18.12890625,11.165673828125,15.60390625,13.690673828125,12.50390625,13.690673828125Z" fill="#9095A3" fill-opacity="1"/></g></g></svg>