<svg xmlns="http://www.w3.org/2000/svg" xmlns:xlink="http://www.w3.org/1999/xlink"  version="1.1" width="18" height="18" viewBox="0 0 18 18"><defs><clipPath id="master_svg0_115_06279"><rect x="1" y="1" width="16" height="16" rx="0"/></clipPath></defs><g><g clip-path="url(#master_svg0_115_06279)"><g><path d="M14.422193984375,3.57734375L14.422193984375,5.88845375Q14.422193984375,5.96724375,14.437563984375,6.04452375Q14.452933984375,6.12180375,14.483093984375,6.194603750000001Q14.513243984375,6.26739375,14.557023984375,6.3329137499999995Q14.600793984375,6.39842375,14.656513984375,6.45414375Q14.712223984375001,6.5098537499999996,14.777733984375,6.5536337499999995Q14.843253984375,6.59740375,14.916043984375,6.627553750000001Q14.988843984375,6.65771375,15.066123984375,6.67308375Q15.143403984375,6.68845375,15.222193984375,6.68845375Q15.300983984375,6.68845375,15.378263984375,6.67308375Q15.455543984375,6.65771375,15.528343984375,6.627553750000001Q15.601133984375,6.59740375,15.666653984375,6.5536337499999995Q15.732163984375,6.5098537499999996,15.787883984375,6.45414375Q15.843593984375,6.39842375,15.887373984375,6.3329137499999995Q15.931143984375,6.26739375,15.961293984375,6.194603750000001Q15.991453984375,6.12180375,16.006823984375,6.04452375Q16.022193984375,5.96724375,16.022193984375,5.88845375L16.022193984375,2.77734375Q16.022193984375,2.69855065,16.006823984375,2.62127175Q15.991453984375,2.54399275,15.961293984375,2.47119675Q15.931143984375,2.39840175,15.887373984375,2.33288775Q15.843593984375,2.26737375,15.787883984375,2.21165875Q15.732163984375,2.15594275,15.666653984375,2.1121677500000002Q15.601133984375,2.06839275,15.528343984375,2.03823975Q15.455543984375,2.00808775,15.378263984375,1.99271575Q15.300983984375,1.97734375,15.222193984375,1.97734375L12.111083984375,1.97734375Q12.032290884375,1.97734375,11.955011984375,1.99271575Q11.877732984375,2.00808775,11.804936984375,2.03823975Q11.732141984375,2.06839275,11.666627984375,2.1121677500000002Q11.601113984375,2.15594275,11.545398984375,2.21165875Q11.489682984375,2.26737375,11.445907984375,2.33288775Q11.402132984375,2.39840175,11.371979984375,2.47119675Q11.341827984375,2.54399275,11.326455984375,2.62127175Q11.311083984375,2.69855065,11.311083984375,2.77734375Q11.311083984375,2.85613685,11.326455984375,2.93341575Q11.341827984375,3.01069475,11.371979984375,3.08349075Q11.402132984375,3.15628575,11.445907984375,3.22179975Q11.489682984375,3.28731375,11.545398984375,3.34302875Q11.601113984375,3.39874475,11.666627984375,3.4425197499999998Q11.732141984375,3.48629475,11.804936984375,3.51644775Q11.877732984375,3.54659975,11.955011984375,3.56197175Q12.032290884375,3.57734375,12.111083984375,3.57734375L14.422193984375,3.57734375Z" fill-rule="evenodd"  fill-opacity="1"/></g><g><path d="M16.022193984375,12.111328125L16.022193984375,15.222438125Q16.022193984375,15.301228125,16.006823984375,15.378508125Q15.991453984375,15.455788125,15.961293984375,15.528588125Q15.931143984375,15.601378125,15.887373984375,15.666898125Q15.843593984375,15.732408125,15.787883984375,15.788128125Q15.732163984375,15.843838125,15.666653984375,15.887618125Q15.601133984375,15.931388125,15.528343984375,15.961538125Q15.455543984375,15.991698125,15.378263984375,16.007068125Q15.300983984375,16.022438125,15.222193984375,16.022438125L12.111083984375,16.022438125Q12.032290884375,16.022438125,11.955011984375,16.007068125Q11.877732984375,15.991698125,11.804936984375,15.961538125Q11.732141984375,15.931388125,11.666627984375,15.887618125Q11.601113984375,15.843838125,11.545398984375,15.788128125Q11.489682984375,15.732408125,11.445907984375,15.666898125Q11.402132984375,15.601378125,11.371979984375,15.528588125Q11.341827984375,15.455788125,11.326455984375,15.378508125Q11.311083984375,15.301228125,11.311083984375,15.222438125Q11.311083984375,15.143648125,11.326455984375,15.066368125Q11.341827984375,14.989088125,11.371979984375,14.916288125Q11.402132984375,14.843498125,11.445907984375,14.777978125Q11.489682984375,14.712468125000001,11.545398984375,14.656758125Q11.601113984375,14.601038125,11.666627984375,14.557268125Q11.732141984375,14.513488125,11.804936984375,14.483338125Q11.877732984375,14.453178125,11.955011984375,14.437808125Q12.032290884375,14.422438125,12.111083984375,14.422438125L14.422193984375,14.422438125L14.422193984375,12.111328125Q14.422193984375,12.032535025,14.437563984375,11.955256125Q14.452933984375,11.877977125,14.483093984375,11.805181125Q14.513243984375,11.732386125,14.557023984375,11.666872125Q14.600793984375,11.601358125,14.656513984375,11.545643125Q14.712223984375001,11.489927125,14.777733984375,11.446152125Q14.843253984375,11.402377125,14.916043984375,11.372224125Q14.988843984375,11.342072125,15.066123984375,11.326700125Q15.143403984375,11.311328125,15.222193984375,11.311328125Q15.300983984375,11.311328125,15.378263984375,11.326700125Q15.455543984375,11.342072125,15.528343984375,11.372224125Q15.601133984375,11.402377125,15.666653984375,11.446152125Q15.732163984375,11.489927125,15.787883984375,11.545643125Q15.843593984375,11.601358125,15.887373984375,11.666872125Q15.931143984375,11.732386125,15.961293984375,11.805181125Q15.991453984375,11.877977125,16.006823984375,11.955256125Q16.022193984375,12.032535025,16.022193984375,12.111328125Z" fill-rule="evenodd"  fill-opacity="1"/></g><g><path d="M1.97783203125,2.77734375L1.97783203125,5.88845375Q1.97783203125,5.96724375,1.99320403125,6.04452375Q2.00857603125,6.12180375,2.03872803125,6.194603750000001Q2.06888103125,6.26739375,2.1126560312500002,6.3329137499999995Q2.15643103125,6.39842375,2.21214703125,6.45414375Q2.26786203125,6.5098537499999996,2.33337603125,6.5536337499999995Q2.39889003125,6.59740375,2.47168503125,6.627553750000001Q2.54448103125,6.65771375,2.62176003125,6.67308375Q2.69903893125,6.68845375,2.77783203125,6.68845375Q2.85662513125,6.68845375,2.93390403125,6.67308375Q3.01118303125,6.65771375,3.08397903125,6.627553750000001Q3.15677403125,6.59740375,3.22228803125,6.5536337499999995Q3.28780203125,6.5098537499999996,3.34351703125,6.45414375Q3.39923303125,6.39842375,3.4430080312499998,6.3329137499999995Q3.48678303125,6.26739375,3.51693603125,6.194603750000001Q3.54708803125,6.12180375,3.56246003125,6.04452375Q3.57783203125,5.96724375,3.57783203125,5.88845375L3.57783203125,3.57734375L5.88894203125,3.57734375Q5.96773203125,3.57734375,6.04501203125,3.56197175Q6.12229203125,3.54659975,6.195092031250001,3.51644775Q6.26788203125,3.48629475,6.3334020312499995,3.4425197499999998Q6.39891203125,3.39874475,6.45463203125,3.34302875Q6.5103420312499996,3.28731375,6.5541220312499995,3.22179975Q6.59789203125,3.15628575,6.628042031250001,3.08349075Q6.65820203125,3.01069475,6.67357203125,2.93341575Q6.68894203125,2.85613685,6.68894203125,2.77734375Q6.68894203125,2.69855065,6.67357203125,2.62127175Q6.65820203125,2.54399275,6.628042031250001,2.47119675Q6.59789203125,2.39840175,6.5541220312499995,2.33288775Q6.5103420312499996,2.26737375,6.45463203125,2.21165875Q6.39891203125,2.15594275,6.3334020312499995,2.1121677500000002Q6.26788203125,2.06839275,6.195092031250001,2.03823975Q6.12229203125,2.00808775,6.04501203125,1.99271575Q5.96773203125,1.97734375,5.88894203125,1.97734375L2.77783203125,1.97734375Q2.69903893125,1.97734375,2.62176003125,1.99271575Q2.54448103125,2.00808775,2.47168503125,2.03823975Q2.39889003125,2.06839275,2.33337603125,2.1121677500000002Q2.26786203125,2.15594275,2.21214703125,2.21165875Q2.15643103125,2.26737375,2.1126560312500002,2.33288775Q2.06888103125,2.39840175,2.03872803125,2.47119675Q2.00857603125,2.54399275,1.99320403125,2.62127175Q1.97783203125,2.69855065,1.97783203125,2.77734375Z" fill-rule="evenodd"  fill-opacity="1"/></g><g><path d="M1.97783203125,12.111328125Q1.97783203125,12.032535025,1.99320403125,11.955256125Q2.00857603125,11.877977125,2.03872803125,11.805181125Q2.06888103125,11.732386125,2.1126560312500002,11.666872125Q2.15643103125,11.601358125,2.21214703125,11.545643125Q2.26786203125,11.489927125,2.33337603125,11.446152125Q2.39889003125,11.402377125,2.47168503125,11.372224125Q2.54448103125,11.342072125,2.62176003125,11.326700125Q2.69903893125,11.311328125,2.77783203125,11.311328125Q2.85662513125,11.311328125,2.93390403125,11.326700125Q3.01118303125,11.342072125,3.08397903125,11.372224125Q3.15677403125,11.402377125,3.22228803125,11.446152125Q3.28780203125,11.489927125,3.34351703125,11.545643125Q3.39923303125,11.601358125,3.4430080312499998,11.666872125Q3.48678303125,11.732386125,3.51693603125,11.805181125Q3.54708803125,11.877977125,3.56246003125,11.955256125Q3.57783203125,12.032535025,3.57783203125,12.111328125L3.57783203125,14.422438125L5.88894203125,14.422438125Q5.96773203125,14.422438125,6.04501203125,14.437808125Q6.12229203125,14.453178125,6.195092031250001,14.483338125Q6.26788203125,14.513488125,6.3334020312499995,14.557268125Q6.39891203125,14.601038125,6.45463203125,14.656758125Q6.5103420312499996,14.712468125000001,6.5541220312499995,14.777978125Q6.59789203125,14.843498125,6.628042031250001,14.916288125Q6.65820203125,14.989088125,6.67357203125,15.066368125Q6.68894203125,15.143648125,6.68894203125,15.222438125Q6.68894203125,15.301228125,6.67357203125,15.378508125Q6.65820203125,15.455788125,6.628042031250001,15.528588125Q6.59789203125,15.601378125,6.5541220312499995,15.666898125Q6.5103420312499996,15.732408125,6.45463203125,15.788128125Q6.39891203125,15.843838125,6.3334020312499995,15.887618125Q6.26788203125,15.931388125,6.195092031250001,15.961538125Q6.12229203125,15.991698125,6.04501203125,16.007068125Q5.96773203125,16.022438125,5.88894203125,16.022438125L2.77783203125,16.022438125Q2.69903893125,16.022438125,2.62176003125,16.007068125Q2.54448103125,15.991698125,2.47168503125,15.961538125Q2.39889003125,15.931388125,2.33337603125,15.887618125Q2.26786203125,15.843838125,2.21214703125,15.788128125Q2.15643103125,15.732408125,2.1126560312500002,15.666898125Q2.06888103125,15.601378125,2.03872803125,15.528588125Q2.00857603125,15.455788125,1.99320403125,15.378508125Q1.97783203125,15.301228125,1.97783203125,15.222438125L1.97783203125,12.111328125L1.97783203125,12.111328125Z" fill-rule="evenodd"  fill-opacity="1"/></g></g></g></svg>