<?xml version="1.0" encoding="UTF-8"?>
<svg width="56px" height="56px" viewBox="0 0 56 56" version="1.1" xmlns="http://www.w3.org/2000/svg" xmlns:xlink="http://www.w3.org/1999/xlink">
    <title>ic_shangchuan备份</title>
    <defs>
        <linearGradient x1="0%" y1="50%" x2="100%" y2="50%" id="linearGradient-1">
            <stop stop-color="#4070FF" offset="0%"></stop>
            <stop stop-color="#757BEB" offset="100%"></stop>
        </linearGradient>
    </defs>
    <g id="管理后台" stroke="none" stroke-width="1" fill="none" fill-rule="evenodd">
        <g id="管理后台-企业设置--logo设置/弹窗" transform="translate(-692.000000, -312.000000)" fill-rule="nonzero">
            <g id="ic_shangchuan" transform="translate(692.000000, 312.000000)">
                <g transform="translate(6.533333, 0.000000)">
                    <path d="M31.7333333,0 L-4.24430861e-13,0 L-4.24430861e-13,56 L43.8666667,56 L43.8666667,12.1333333 L31.7333333,0 Z M24.2666667,51.3333333 L4.66666667,51.3333333 L4.66666667,4.66666667 L28,4.66666667 L28,15.8666667 L39.2,15.8666667 L39.2,35.4666667 C42.2097098,37.2313362 43.8666667,40.3802628 43.8666667,43.8666667 C43.8666667,50.0731839 38.8317079,55.0666667 32.6666667,55.0666667 C29.1305287,55.0666667 26.0118294,53.4898419 24.2666667,51.3333333 Z" id="形状" fill="#B8B9CE"></path>
                    <path d="M8.4,21.4666667 L34.5333333,21.4666667 L34.5333333,26.1333333 L8.4,26.1333333 L8.4,21.4666667 Z M8.4,30.8 L21.4666667,30.8 L21.4666667,35.4666667 L8.4,35.4666667 L8.4,30.8 Z M8.4,40.1333333 L16.8,40.1333333 L16.8,44.8 L8.4,44.8 L8.4,40.1333333 Z" id="形状" fill="#B8B9CE"></path>
                    <path d="M39.2901655,34.3742319 C37.2169408,32.7215517 34.5906882,31.7333333 31.7333333,31.7333333 C25.0322956,31.7333333 19.6,37.1655985 19.6,43.8666667 C19.6,46.8022291 20.642612,49.4941734 22.3775364,51.5927195 C24.6030393,54.284597 27.9678115,56 31.7333333,56 C38.4343711,56 43.8666667,50.5677348 43.8666667,43.8666667 C43.8666667,40.0230243 42.0789719,36.5973562 39.2901655,34.3742319 Z" id="路径" fill="url(#linearGradient-1)"></path>
                    <polygon id="路径" fill="#FFFFFF" points="33.6 42.8132208 36.0012104 45.099457 38.2666667 42.8230413 31.7333333 36.2916434 25.2 43.2156109 27.4655181 45.4920266 29.8666667 42.8132208 29.8666667 52.2666667 33.6 52.2666667"></polygon>
                </g>
            </g>
        </g>
    </g>
</svg>