<svg xmlns="http://www.w3.org/2000/svg" xmlns:xlink="http://www.w3.org/1999/xlink" version="1.1" width="18" height="18" viewBox="0 0 18 18"><g><g><g transform="matrix(0,-1,1,0,-8.454521417617798,18.389228582382202)"><path d="M4.967353582382202,15.654395000000001C4.967353582382202,16.892435,5.888175582382202,17.886924999999998,7.034503582382202,17.886924999999998L11.8923135823822,17.886924999999998C12.5688335823822,17.886924999999998,13.160793582382203,18.414615,13.235963582382203,19.145255C13.329923582382202,19.997675,12.700383582382202,20.728315000000002,11.929893582382203,20.728315000000002L7.673443582382202,20.728295L7.673443582382202,21.540145000000003L11.920503582382203,21.540145000000003C13.066833582382202,21.540145000000003,13.987653582382203,20.545655,13.987653582382203,19.307625C13.987653582382203,18.069585,13.066833582382202,17.075095,11.920503582382203,17.075095L7.062693582382202,17.075095C6.386173582382202,17.075095,5.794214582382202,16.547405,5.719045582382202,15.816765C5.634479582382202,14.964345,6.254623582382202,14.233702,7.034503582382202,14.233702L11.281563582382201,14.233724L11.281563582382201,13.421875L7.034503582382202,13.421875C5.888175582382202,13.421875,4.967353582382202,14.416363,4.967353582382202,15.654395000000001Z"  fill-opacity="1"/><path d="M11.929893582382203,20.478315000000002L7.423443582382202,20.478295L7.423443582382202,21.790145000000003L11.920503582382203,21.790145000000003Q12.889473582382202,21.790145000000003,13.567393582382202,21.057995Q14.237653582382203,20.334115,14.237653582382203,19.307625Q14.237653582382203,18.281125,13.567393582382202,17.557245Q12.889473582382202,16.825095,11.920503582382203,16.825095L7.062693582382202,16.825095Q6.648003582382202,16.825095,6.334893582382202,16.536185Q6.013903582382202,16.240005,5.967733582382202,15.791174999999999Q5.915005582382202,15.259675,6.244353582382202,14.865985Q6.564173582382202,14.483705,7.034503582382202,14.483705L11.531563582382201,14.483725L11.531563582382201,13.171875L7.034503582382202,13.171875Q6.065533582382202,13.171875,5.387615582382202,13.904022Q4.717353582382202,14.627905,4.717353582382202,15.654395000000001Q4.717353582382202,16.680895,5.387615582382202,17.404775Q6.065533582382202,18.136924999999998,7.034503582382202,18.136924999999998L11.8923135823822,18.136924999999998Q12.307003582382201,18.136924999999998,12.620113582382203,18.425835Q12.941093582382202,18.722015,12.987273582382203,19.170845Q13.045723582382202,19.701125,12.715343582382202,20.096025Q12.395533582382203,20.478315000000002,11.929893582382203,20.478315000000002ZM7.923443582382202,20.978295L11.929893582382203,20.978315000000002Q12.629133582382202,20.978315000000002,13.098843582382202,20.416854999999998Q13.566083582382202,19.858355,13.484643582382201,19.119665Q13.419123582382202,18.482765,12.959183582382202,18.058365000000002Q12.502443582382202,17.636924999999998,11.8923135823822,17.636924999999998L7.034503582382202,17.636924999999998Q6.283983582382202,17.636924999999998,5.7544965823822025,17.065075Q5.217353582382202,16.484955,5.217353582382202,15.654395000000001Q5.217353582382202,14.823835,5.7544965823822025,14.243726Q6.283983582382202,13.671875,7.034503582382202,13.671875L11.031563582382201,13.671875L11.031563582382201,13.983723L7.034503582382202,13.983702Q6.330563582382203,13.983702,5.8608595823822025,14.545165Q5.396708582382202,15.099985,5.470357582382202,15.842345Q5.535883582382202,16.479255000000002,5.995823582382203,16.903655Q6.4525635823822025,17.325095,7.062693582382202,17.325095L11.920503582382203,17.325095Q12.671023582382201,17.325095,13.200513582382202,17.896945Q13.737653582382203,18.477065,13.737653582382203,19.307625Q13.737653582382203,20.138185,13.200513582382202,20.718295Q12.671023582382201,21.290145,11.920503582382203,21.290145L7.923443582382202,21.290145L7.923443582382202,20.978295Z" fill-rule="evenodd"  fill-opacity="1"/></g><g><ellipse cx="5.373247861862183" cy="5.8436384201049805" rx="1.4432477951049805" ry="1.4432477951049805" fill-opacity="0" stroke-opacity="1" stroke="currentColor"  stroke-width="1.5"/></g><g><ellipse cx="12.634722471237183" cy="12.15809154510498" rx="1.4432477951049805" ry="1.4432477951049805" fill-opacity="0" stroke-opacity="1" stroke="currentColor"  stroke-width="1.5"/></g></g></g></svg>