<svg xmlns="http://www.w3.org/2000/svg" xmlns:xlink="http://www.w3.org/1999/xlink" version="1.1" width="18" height="18" viewBox="0 0 18 18"><g style="opacity:0.8500000238418579;"><g><g><ellipse cx="5.608274936676025" cy="11.559446811676025" rx="1.6082749366760254" ry="1.6082749366760254" fill-opacity="0" stroke-opacity="1" stroke="currentColor" stroke-width="1.5"/></g><g><path d="M10.8006591796875,3.685546875L12.5467891796875,3.685546875Q12.895509179687501,3.685546875,13.1420991796875,3.932134875Q13.3886891796875,4.178721875,13.3886891796875,4.527448275L13.3886891796875,6.273576875Q13.3886891796875,6.347446875,13.3742791796875,6.419896875Q13.3598691796875,6.492346875,13.331599179687501,6.560586875Q13.3033291796875,6.628836875,13.2622891796875,6.690256875Q13.2212491796875,6.751676874999999,13.1690191796875,6.803906875Q13.1167891796875,6.856136875,13.0553691796875,6.8971768749999995Q12.993949179687501,6.938216875,12.9256991796875,6.966486875Q12.857459179687499,6.994756875,12.7850091796875,7.009166875Q12.7125591796875,7.023576875,12.6386891796875,7.023576875Q12.5648191796875,7.023576875,12.4923691796875,7.009166875Q12.4199191796875,6.994756875,12.3516791796875,6.966486875Q12.2834291796875,6.938216875,12.2220091796875,6.8971768749999995Q12.1605891796875,6.856136875,12.1083591796875,6.803906875Q12.0561291796875,6.751676874999999,12.0150891796875,6.690256875Q11.9740491796875,6.628836875,11.9457791796875,6.560586875Q11.9175091796875,6.492346875,11.9030991796875,6.419896875Q11.8886891796875,6.347446875,11.8886891796875,6.273576875L11.8886891796875,5.185546875L10.8006591796875,5.185546875Q10.7267906796875,5.185546875,10.6543411796875,5.171135875Q10.5818921796875,5.156724875,10.5136461796875,5.128456875Q10.4454011796875,5.100187875,10.3839811796875,5.059148875Q10.3225621796875,5.018109875,10.2703291796875,4.965876875Q10.2180961796875,4.913643875,10.1770571796875,4.852224875Q10.1360181796875,4.790804875,10.1077491796875,4.722559875Q10.0794811796875,4.654313875,10.065070179687499,4.581864875Q10.0506591796875,4.509415375,10.0506591796875,4.435546875Q10.0506591796875,4.361678375,10.065070179687499,4.289228875Q10.0794811796875,4.216779875,10.1077491796875,4.148533875Q10.1360181796875,4.080288875,10.1770571796875,4.018868875Q10.2180961796875,3.957449875,10.2703291796875,3.905216875Q10.3225621796875,3.852983875,10.3839811796875,3.811944875Q10.4454011796875,3.770905875,10.5136461796875,3.742636875Q10.5818921796875,3.714368875,10.6543411796875,3.699957875Q10.7267906796875,3.685546875,10.8006591796875,3.685546875Z" fill-rule="evenodd" fill="currentColor" fill-opacity="1"/></g><g><path d="M12.801500078124999,5.426814375Q12.906980078124999,5.321325375,12.964070078125001,5.183497375Q13.021160078125,5.045668375,13.021170078125,4.896484375Q13.021170078125,4.822615875,13.006750078125,4.750166375Q12.992340078125,4.677717375,12.964070078125001,4.609471375Q12.935810078125,4.541226375,12.894770078125,4.479806375Q12.853730078125,4.418387375,12.801490078125,4.366154375Q12.749260078125001,4.313921375,12.687840078125,4.272882375Q12.626420078125001,4.231843375,12.558180078125,4.203574375Q12.489930078125,4.175306375,12.417480078125,4.160895375Q12.345030078125,4.146484375,12.271170078125,4.146484375Q12.121980078124999,4.146484375,11.984150078125001,4.203574375Q11.846320078125,4.260665375,11.740840078125,4.366154375L6.226750078125,9.880244375Q6.121261078125,9.985724375,6.064170078125,10.123554375000001Q6.007080078125,10.261384374999999,6.007080078125,10.410574375Q6.007080078125,10.484434375,6.021491078125,10.556884375Q6.035902078125,10.629334375,6.064170078125,10.697584375Q6.092439078125,10.765824375000001,6.133478078125,10.827244375Q6.174517078125,10.888664375000001,6.226750078125,10.940894375Q6.278983078125,10.993134375,6.340402078125,11.034174375Q6.401822078125,11.075214375,6.470067078125,11.103474375000001Q6.538313078125,11.131744375,6.610762078125,11.146154375Q6.683211578125,11.160574375,6.757080078125,11.160574375Q6.906264078125,11.160564375,7.044093078125,11.103474375000001Q7.181921078125,11.046384374999999,7.287410078125,10.940904374999999L12.801500078124999,5.426814375L12.801500078124999,5.426814375Z" fill-rule="evenodd" fill="currentColor" fill-opacity="1"/></g><g><g transform="matrix(0.7071067690849304,-0.7071067690849304,0.7071067690849304,0.7071067690849304,-2.5324512065853924,4.362684196094051)"><path d="M4,4.48828125L5.74613,4.48828125Q6.09485,4.48828125,6.34144,4.73486925Q6.58803,4.98145625,6.58803,5.33018265L6.58803,7.07631125Q6.58803,7.15018125,6.57362,7.22263125Q6.55921,7.29508125,6.53094,7.36332125Q6.50267,7.43157125,6.4616299999999995,7.49299125Q6.42059,7.554411249999999,6.36836,7.60664125Q6.316129999999999,7.65887125,6.25471,7.6999112499999995Q6.19329,7.74095125,6.12504,7.76922125Q6.0568,7.79749125,5.98435,7.81190125Q5.9119,7.82631125,5.83803,7.82631125Q5.76416,7.82631125,5.6917100000000005,7.81190125Q5.61926,7.79749125,5.55102,7.76922125Q5.48277,7.74095125,5.42135,7.6999112499999995Q5.35993,7.65887125,5.3077000000000005,7.60664125Q5.25547,7.554411249999999,5.21443,7.49299125Q5.1733899999999995,7.43157125,5.14512,7.36332125Q5.1168499999999995,7.29508125,5.10244,7.22263125Q5.08803,7.15018125,5.08803,7.07631125L5.08803,5.98828125L4,5.98828125Q3.9261315,5.98828125,3.853682,5.97387025Q3.781233,5.95945925,3.712987,5.93119125Q3.644742,5.90292225,3.583322,5.86188325Q3.521903,5.82084425,3.46967,5.76861125Q3.417437,5.71637825,3.376398,5.65495925Q3.335359,5.59353925,3.30709,5.52529425Q3.278822,5.45704825,3.264411,5.38459925Q3.25,5.31214975,3.25,5.23828125Q3.25,5.16441275,3.264411,5.09196325Q3.278822,5.01951425,3.30709,4.95126825Q3.335359,4.88302325,3.376398,4.82160325Q3.417437,4.76018425,3.46967,4.70795125Q3.521903,4.65571825,3.583322,4.61467925Q3.644742,4.57364025,3.712987,4.54537125Q3.781233,4.51710325,3.853682,4.50269225Q3.9261315,4.48828125,4,4.48828125Z" fill-rule="evenodd" fill="currentColor" fill-opacity="1"/></g><g><path d="M4.550441026687622,4.3203125Q4.550441026687622,4.246444,4.564852026687622,4.1739945Q4.579263026687622,4.1015455,4.607531026687622,4.0332995Q4.6358000266876225,3.9650545,4.676839026687622,3.9036345Q4.717878026687622,3.8422155,4.770111026687622,3.7899825Q4.822344026687622,3.7377495,4.883763026687622,3.6967105Q4.945183026687622,3.6556715,5.013428026687622,3.6274025Q5.081674026687622,3.5991345,5.154123026687622,3.5847235Q5.226572526687622,3.5703125,5.300441026687622,3.5703125Q5.374309526687622,3.5703125,5.446759026687622,3.5847235Q5.519208026687622,3.5991345,5.587454026687622,3.6274025Q5.655699026687622,3.6556715,5.717119026687622,3.6967105Q5.778538026687622,3.7377495,5.830771026687622,3.7899825Q5.8830040266876225,3.8422155,5.924043026687622,3.9036345Q5.965082026687622,3.9650545,5.993351026687622,4.0332995Q6.021619026687622,4.1015455,6.036030026687622,4.1739945Q6.050441026687622,4.246444,6.050441026687622,4.3203125L6.050441026687622,9.8344025Q6.050441026687622,9.9082625,6.036030026687622,9.9807125Q6.021619026687622,10.0531625,5.993351026687622,10.1214125Q5.965082026687622,10.189652500000001,5.924043026687622,10.2510725Q5.8830040266876225,10.312492500000001,5.830771026687622,10.3647225Q5.778538026687622,10.4169625,5.717119026687622,10.4580025Q5.655699026687622,10.4990425,5.587454026687622,10.527302500000001Q5.519208026687622,10.5555725,5.446759026687622,10.5699825Q5.374309526687622,10.5844025,5.300441026687622,10.5844025Q5.226572526687622,10.5844025,5.154123026687622,10.5699825Q5.081674026687622,10.5555725,5.013428026687622,10.527302500000001Q4.945183026687622,10.4990425,4.883763026687622,10.4580025Q4.822344026687622,10.4169625,4.770111026687622,10.3647225Q4.717878026687622,10.312492500000001,4.676839026687622,10.2510725Q4.6358000266876225,10.189652500000001,4.607531026687622,10.1214125Q4.579263026687622,10.0531625,4.564852026687622,9.9807125Q4.550441026687622,9.9082625,4.550441026687622,9.8344025L4.550441026687622,4.3203125Z" fill-rule="evenodd" fill="currentColor" fill-opacity="1"/></g></g><g><g transform="matrix(0.7071068286895752,0.7071067094802856,-0.7071067094802856,0.7071068286895752,11.233318676676163,-5.381351968160857)"><path d="M12.112526893615723,10.119140625L13.858656893615724,10.119140625Q14.207376893615724,10.119140625,14.453966893615723,10.365728625Q14.700556893615722,10.612315625,14.700556893615722,10.961042025L14.700556893615722,12.707170625Q14.700556893615722,12.781040625,14.686146893615723,12.853490625Q14.671736893615723,12.925940624999999,14.643466893615724,12.994180625Q14.615196893615723,13.062430625000001,14.574156893615722,13.123850625Q14.533116893615723,13.185270625,14.480886893615722,13.237500625Q14.428656893615722,13.289730625,14.367236893615722,13.330770625Q14.305816893615724,13.371810625,14.237566893615723,13.400080625000001Q14.169326893615722,13.428350625,14.096876893615722,13.442760625Q14.024426893615722,13.457170625,13.950556893615722,13.457170625Q13.876686893615723,13.457170625,13.804236893615723,13.442760625Q13.731786893615723,13.428350625,13.663546893615722,13.400080625000001Q13.595296893615723,13.371810625,13.533876893615723,13.330770625Q13.472456893615723,13.289730625,13.420226893615723,13.237500625Q13.367996893615723,13.185270625,13.326956893615723,13.123850625Q13.285916893615722,13.062430625000001,13.257646893615723,12.994180625Q13.229376893615722,12.925940624999999,13.214966893615722,12.853490625Q13.200556893615722,12.781040625,13.200556893615722,12.707170625L13.200556893615722,11.619140625L12.112526893615723,11.619140625Q12.038658393615723,11.619140625,11.966208893615722,11.604729625000001Q11.893759893615723,11.590318625,11.825513893615723,11.562050625Q11.757268893615723,11.533781625,11.695848893615723,11.492742625Q11.634429893615723,11.451703625,11.582196893615723,11.399470625Q11.529963893615722,11.347237625,11.488924893615723,11.285818625Q11.447885893615723,11.224398625,11.419616893615723,11.156153625Q11.391348893615723,11.087907625,11.376937893615722,11.015458625Q11.362526893615723,10.943009125,11.362526893615723,10.869140625Q11.362526893615723,10.795272125,11.376937893615722,10.722822625Q11.391348893615723,10.650373625,11.419616893615723,10.582127625Q11.447885893615723,10.513882625,11.488924893615723,10.452462625Q11.529963893615722,10.391043625,11.582196893615723,10.338810625Q11.634429893615723,10.286577625,11.695848893615723,10.245538625Q11.757268893615723,10.204499625,11.825513893615723,10.176230625Q11.893759893615723,10.147962625,11.966208893615722,10.133551624999999Q12.038658393615723,10.119140625,12.112526893615723,10.119140625Z" fill-rule="evenodd" fill="currentColor" fill-opacity="1"/></g><g transform="matrix(0,1,-1,0,25.199510097503662,-0.8635725975036621)"><path d="M12.281541347503662,12.16796875Q12.281541347503662,12.09410025,12.295952347503661,12.02165075Q12.310363347503662,11.94920175,12.338631347503663,11.88095575Q12.366900347503663,11.81271075,12.407939347503662,11.75129075Q12.448978347503662,11.68987175,12.501211347503663,11.63763875Q12.553444347503662,11.58540575,12.614863347503663,11.54436675Q12.676283347503663,11.50332775,12.744528347503662,11.47505875Q12.812774347503662,11.44679075,12.885223347503661,11.432379749999999Q12.957672847503662,11.41796875,13.031541347503662,11.41796875Q13.105409847503662,11.41796875,13.177859347503663,11.432379749999999Q13.250308347503662,11.44679075,13.318554347503662,11.47505875Q13.386799347503661,11.50332775,13.448219347503661,11.54436675Q13.509638347503662,11.58540575,13.561871347503661,11.63763875Q13.614104347503662,11.68987175,13.655143347503662,11.75129075Q13.696182347503662,11.81271075,13.724451347503662,11.88095575Q13.752719347503662,11.94920175,13.767130347503663,12.02165075Q13.781541347503662,12.09410025,13.781541347503662,12.16796875L13.781541347503662,17.68205875Q13.781541347503662,17.75591875,13.767130347503663,17.82836875Q13.752719347503662,17.90081875,13.724451347503662,17.969068749999998Q13.696182347503662,18.03730875,13.655143347503662,18.09872875Q13.614104347503662,18.16014875,13.561871347503661,18.21237875Q13.509638347503662,18.26461875,13.448219347503661,18.30565875Q13.386799347503661,18.34669875,13.318554347503662,18.37495875Q13.250308347503662,18.40322875,13.177859347503663,18.417638750000002Q13.105409847503662,18.43205875,13.031541347503662,18.43205875Q12.957672847503662,18.43205875,12.885223347503661,18.417638750000002Q12.812774347503662,18.40322875,12.744528347503662,18.37495875Q12.676283347503663,18.34669875,12.614863347503663,18.30565875Q12.553444347503662,18.26461875,12.501211347503663,18.21237875Q12.448978347503662,18.16014875,12.407939347503662,18.09872875Q12.366900347503663,18.03730875,12.338631347503663,17.969068749999998Q12.310363347503662,17.90081875,12.295952347503661,17.82836875Q12.281541347503662,17.75591875,12.281541347503662,17.68205875L12.281541347503662,12.16796875Z" fill-rule="evenodd" fill="currentColor" fill-opacity="1"/></g></g></g></g></svg>