<svg xmlns="http://www.w3.org/2000/svg" xmlns:xlink="http://www.w3.org/1999/xlink"  version="1.1" width="18" height="18" viewBox="0 0 18 18"><g style="opacity:0.8500000238418579;"><g><path d="M9.002399961853026,5.734776875C11.036249961853027,5.728016875,12.894269961853027,6.886646875,13.783199961853027,8.715976874999999C13.468799961853028,9.363606875,13.024069961853026,9.939346875,12.476859961853027,10.407126875L13.241099961853028,11.171406874999999C13.994599961853027,10.504696875,14.590799961853028,9.669956875,14.964799961853027,8.715976874999999C14.027099961853027,6.336436875,11.712579961853027,4.650703875,9.002399961853026,4.650703875C8.314019961853027,4.650703875,7.652729961853027,4.759110875,7.029389961853028,4.959666875L7.923749961853027,5.854026875000001C8.276069961853027,5.783556875,8.633819961853028,5.734776875,9.002399961853026,5.734776875ZM8.422419961853027,6.3526968749999995L9.544439961853026,7.474716875C9.853399961853027,7.610226875,10.102739961853027,7.859556875,10.238249961853027,8.168516875L11.360259961853027,9.290536875C11.403619961853027,9.106246875,11.436149961853028,8.911106875,11.436149961853028,8.710556875C11.441569961853027,7.366306874999999,10.346649961853029,6.276816875,9.002399961853026,6.276816875C8.801849961853026,6.276816875,8.612139961853028,6.3039168750000005,8.422419961853027,6.3526968749999995ZM3.5874569618530274,4.580238875L5.040119961853027,6.0328968750000005C4.145929961853027,6.732756875,3.455334961853027,7.659156875,3.0399999618530273,8.715976874999999C3.9777229618530274,11.095516875000001,6.292219961853027,12.781246875,9.002399961853026,12.781246875C9.826299961853028,12.781246875,10.617669961853029,12.624056875,11.343999961853028,12.336776875L13.197799961853027,14.190546875L13.961999961853028,13.426276875L4.351729961853027,3.810546875L3.5874569618530274,4.580238875ZM7.652729961853027,8.645516875L9.067449961853027,10.060226875C9.045769961853027,10.065646874999999,9.024079961853026,10.071066875,9.002399961853026,10.071066875C8.254009961853027,10.071066875,7.647309961853027,9.464376875,7.647309961853027,8.715976874999999C7.647309961853027,8.688876875,7.652729961853027,8.672616875,7.652729961853027,8.645516875ZM5.809809961853027,6.802586874999999L6.7583699618530275,7.7511568749999995C6.629859961853027,8.056596875,6.563519961853027,8.384596875,6.563239961853027,8.715976874999999C6.566289961853027,10.464846875,8.352289961853028,11.644116875,9.961809961853028,10.960006875000001L10.492999961853027,11.491206875C10.016009961853026,11.621296874999999,9.517339961853027,11.697176875,9.002399961853026,11.697176875C6.968559961853027,11.703946875,5.110529961853027,10.545306875,4.221639961853027,8.715976874999999C4.601069961853027,7.940866875,5.153939961853027,7.301266875,5.809809961853027,6.802586874999999Z"  fill-opacity="1"/><path d="M14.103399961853027,13.426296875L4.351499961853028,3.668854875L4.280769961853027,3.740086475L3.4462849618530274,4.580487875L4.890209961853027,6.024406875Q3.5705889618530273,7.092506875,2.946929561853027,8.679396875L2.9325349618530274,8.716026875L2.946963461853027,8.752646875Q3.6718829618530275,10.592176875,5.299469961853028,11.723066875Q6.966339961853027,12.881246875,9.002399961853026,12.881246875Q10.206119961853027,12.881246875,11.319469961853027,12.453666875L13.197799961853027,14.331946875L14.103399961853027,13.426296875ZM4.351959961853027,3.952238875L13.820599961853027,13.426256875L13.197799961853027,14.049146875L11.368279961853027,12.219636875L11.307219961853027,12.243786875Q10.201189961853029,12.681246875,9.002399961853026,12.681246875Q7.028999961853027,12.681246875,5.413589961853027,11.558816875Q3.8519799618530275,10.473766874999999,3.147587961853027,8.715936875Q3.7729929618530273,7.151626875,5.101749961853027,6.111646875L5.190679961853027,6.042036875L3.7286289618530275,4.579989875L4.351959961853027,3.952238875ZM6.842919961853028,4.914616875L7.890879961853027,5.962576875L7.9433599618530275,5.952086875Q8.529889961853026,5.834776875,9.002399961853026,5.834776875Q10.499309961853028,5.8297968749999995,11.769229961853027,6.621696875Q13.018469961853027,7.4006968749999995,13.671799961853027,8.715986874999999Q13.207199961853027,9.651266875000001,12.411879961853028,10.331116875L12.329689961853028,10.401386875L13.236899961853027,11.308636875000001L13.307399961853028,11.246296874999999Q14.490699961853027,10.199166875,15.057899961853026,8.752476875L15.072299961853027,8.715886874999999L15.057799961853027,8.679316875Q14.332899961853027,6.839786875,12.705339961853028,5.708886875Q11.038489961853028,4.550703875,9.002399961853026,4.550702875Q7.973979961853027,4.550703875,6.998759961853027,4.864466875L6.842919961853028,4.914616875ZM7.956769961853027,5.745626875L7.217539961853027,5.006396875Q8.088239961853027,4.750703875,9.002399961853026,4.750702875Q10.975809961853027,4.750703875,12.591219961853028,5.873136875Q14.152799961853027,6.9581968750000005,14.857199961853027,8.716056875Q14.324299961853027,10.051626875,13.244899961853028,11.033706875L12.623279961853028,10.412136875Q13.410999961853028,9.711636875,13.873099961853027,8.759646875L13.894299961853028,8.715956875L13.873099961853027,8.672276875Q13.193799961853028,7.274376875,11.875059961853028,6.451986874999999Q10.556259961853026,5.629606875,9.002399961853026,5.634776875Q8.531559961853027,5.634776875,7.956769961853027,5.745626875ZM10.796059961853027,6.918826875000001Q10.052899961853027,6.176816875,9.002399961853026,6.176816875Q8.704879961853027,6.176816875,8.397519961853028,6.255846875L8.227799961853027,6.299496875L9.487039961853029,7.558736875L9.504269961853026,7.566296875Q9.950819961853028,7.762146875,10.146669961853028,8.208686875L10.154229961853027,8.225926874999999L11.416489961853028,9.488186875L11.457599961853028,9.313436875Q11.536149961853027,8.979636875,11.536149961853027,8.710556875Q11.540379961853027,7.661996875,10.796059961853027,6.918826875000001ZM8.622449961853027,6.411306875Q8.814949961853028,6.376816874999999,9.002399961853026,6.376816874999999Q9.970149961853028,6.376816874999999,10.654749961853028,7.060356875Q11.340039961853027,7.744596875,11.336149961853028,8.710556875Q11.336149961853028,8.883496874999999,11.299919961853027,9.088766875000001L10.322049961853027,8.110906875000001Q10.097789961853028,7.6151768749999995,9.602059961853026,7.390906875000001L8.622449961853027,6.411306875ZM5.749279961853027,6.722986875Q4.6926099618530275,7.526416875,4.131819961853028,8.672016875L4.1103799618530275,8.715816875L4.131699961853027,8.759686875Q4.810949961853027,10.157596875,6.129749961853028,10.979966874999999Q7.448549961853027,11.802356875000001,9.002399961853026,11.797176875Q9.751159961853027,11.797176875,10.519309961853027,11.587686875L10.685559961853027,11.542346875L9.984799961853028,10.841576875000001L9.922689961853028,10.867976875Q9.358969961853028,11.107586874999999,8.762719961853026,11.044476875Q8.196219961853028,10.984516875,7.715199961853028,10.666906874999999Q7.234179961853028,10.349296875,6.956529961853027,9.851876875Q6.664309961853027,9.328326875,6.663239961853027,8.716066875Q6.663649961853027,8.234136875,6.850539961853027,7.789936875L6.876609961853028,7.7279768749999995L5.818779961853027,6.670146875L5.749279961853027,6.722986875ZM4.333149961853027,8.716156875Q4.852919961853027,7.678946874999999,5.801289961853027,6.935496875L6.640779961853028,7.774976875Q6.463659961853027,8.227566875,6.463239961853027,8.715896875Q6.464399961853028,9.380526875000001,6.781899961853027,9.949346875Q7.083299961853028,10.489336875,7.604999961853028,10.833806875Q8.126699961853028,11.178276875,8.741669961853027,11.243366875Q9.356289961853028,11.308416874999999,9.938179961853027,11.077806875L10.298449961853027,11.438076875Q9.642429961853027,11.597176874999999,9.002399961853026,11.597176874999999Q7.505489961853027,11.602166875,6.235579961853027,10.810256875Q4.986429961853028,10.031316875,4.333149961853027,8.716156875ZM7.550789961853027,8.668346875000001Q7.547309961853028,8.696206875,7.547309961853028,8.715976874999999Q7.547309961853028,9.318696875,7.973499961853028,9.744886874999999Q8.399679961853028,10.171066875000001,9.002399961853026,10.171066875000001Q9.036399961853029,10.171066875000001,9.091699961853028,10.157246875L9.263039961853028,10.114406875L7.552729961853028,8.404096875L7.552729961853028,8.645516875Q7.552729961853028,8.652836875,7.550789961853027,8.668346875000001ZM7.758489961853027,8.892696875Q7.811429961853027,9.299966874999999,8.114919961853026,9.603456875Q8.418409961853026,9.906956874999999,8.825679961853027,9.959886874999999L7.758489961853027,8.892696875Z" fill-rule="evenodd"  fill-opacity="1"/></g></g></svg>