<svg xmlns="http://www.w3.org/2000/svg" xmlns:xlink="http://www.w3.org/1999/xlink" version="1.1" width="16" height="16" viewBox="0 0 16 16"><defs><clipPath id="master_svg0_9_7346"><rect x="0" y="0" width="16" height="16" rx="0"/></clipPath></defs><g clip-path="url(#master_svg0_9_7346)"><g style="opacity:0;"></g><g><path d="M4.999499999999999,7.9986513671875Q4.999499999999999,8.0723313671875,4.99228,8.1456513671875Q4.98506,8.2189713671875,4.97068,8.2912413671875Q4.95631,8.3635013671875,4.93492,8.4340013671875Q4.91353,8.5045113671875,4.885339999999999,8.5725813671875Q4.857139999999999,8.6406513671875,4.82241,8.7056313671875Q4.78768,8.7706013671875,4.7467500000000005,8.8318713671875Q4.70581,8.8931313671875,4.65907,8.9500813671875Q4.61233,9.007041367187501,4.56023,9.0591313671875Q4.50814,9.1112313671875,4.45118,9.1579713671875Q4.39423,9.2047113671875,4.3329699999999995,9.2456513671875Q4.2717,9.2865813671875,4.20673,9.3213113671875Q4.14175,9.3560413671875,4.0736799999999995,9.3842413671875Q4.00561,9.4124313671875,3.9351000000000003,9.4338213671875Q3.8646000000000003,9.4552113671875,3.7923400000000003,9.4695813671875Q3.7200699999999998,9.4839613671875,3.64675,9.491181367187501Q3.57343,9.4984013671875,3.4997499999999997,9.4984013671875Q3.42607,9.4984013671875,3.35275,9.491181367187501Q3.27943,9.4839613671875,3.20716,9.4695813671875Q3.1349,9.4552113671875,3.0644,9.4338213671875Q2.99389,9.4124313671875,2.925821,9.3842413671875Q2.857751,9.3560413671875,2.792773,9.3213113671875Q2.727795,9.2865813671875,2.666534,9.2456513671875Q2.605273,9.2047113671875,2.5483190000000002,9.1579713671875Q2.491365,9.1112313671875,2.439267,9.0591313671875Q2.387168,9.007041367187501,2.340428,8.9500813671875Q2.293687,8.8931313671875,2.2527530000000002,8.8318713671875Q2.21182,8.7706013671875,2.177089,8.7056313671875Q2.142357,8.6406513671875,2.114162,8.5725813671875Q2.0859663,8.5045113671875,2.0645787,8.4340013671875Q2.0431911,8.3635013671875,2.0288173,8.2912413671875Q2.0144434,8.2189713671875,2.00722171,8.1456513671875Q2,8.0723313671875,2,7.9986513671875Q2,7.9249713671875,2.00722171,7.8516513671875Q2.0144434,7.7783313671875,2.0288173,7.7060613671875Q2.0431911,7.6338013671875,2.0645787,7.5633013671875Q2.0859663,7.4927913671875,2.114162,7.4247223671875Q2.142357,7.3566523671875,2.177089,7.2916743671875Q2.21182,7.2266963671875,2.2527530000000002,7.1654353671875Q2.293687,7.1041743671875,2.340428,7.0472203671875Q2.387168,6.9902663671875,2.439267,6.9381683671875Q2.491365,6.8860693671875,2.5483190000000002,6.8393293671875Q2.605273,6.7925883671875,2.666534,6.7516543671875Q2.727795,6.7107213671875,2.792773,6.6759903671875Q2.857751,6.6412583671875,2.925821,6.6130633671875Q2.99389,6.5848676671875,3.0644,6.5634800671875Q3.1349,6.5420924671875,3.20716,6.5277186671875Q3.27943,6.5133447671875,3.35275,6.5061230771875Q3.42607,6.4989013671875,3.4997499999999997,6.4989013671875Q3.57343,6.4989013671875,3.64675,6.5061230771875Q3.7200699999999998,6.5133447671875,3.7923400000000003,6.5277186671875Q3.8646000000000003,6.5420924671875,3.9351000000000003,6.5634800671875Q4.00561,6.5848676671875,4.0736799999999995,6.6130633671875Q4.14175,6.6412583671875,4.20673,6.6759903671875Q4.2717,6.7107213671875,4.3329699999999995,6.7516543671875Q4.39423,6.7925883671875,4.45118,6.8393293671875Q4.50814,6.8860693671875,4.56023,6.9381683671875Q4.61233,6.9902663671875,4.65907,7.0472203671875Q4.70581,7.1041743671875,4.7467500000000005,7.1654353671875Q4.78768,7.2266963671875,4.82241,7.2916743671875Q4.857139999999999,7.3566523671875,4.885339999999999,7.4247223671875Q4.91353,7.4927913671875,4.93492,7.5633013671875Q4.95631,7.6338013671875,4.97068,7.7060613671875Q4.98506,7.7783313671875,4.99228,7.8516513671875Q4.999499999999999,7.9249713671875,4.999499999999999,7.9986513671875ZM6.49925,7.9986513671875C6.49925,8.8264613671875,7.17119,9.4984013671875,7.999,9.4984013671875C8.82681,9.4984013671875,9.498750000000001,8.8264613671875,9.498750000000001,7.9986513671875C9.498750000000001,7.1708393671875,8.82681,6.4989013671875,7.999,6.4989013671875C7.17119,6.4989013671875,6.49925,7.1708393671875,6.49925,7.9986513671875ZM12.5009,9.4984013671875C11.67313,9.4984013671875,11.00119,8.8264613671875,11.00119,7.9986513671875C11.00119,7.1708393671875,11.67311,6.4989013671875,12.5009,6.4989013671875C13.3288,6.4989013671875,14.0007,7.1708393671875,14.0007,7.9986513671875C14.0007,8.8264613671875,13.3261,9.4984013671875,12.5009,9.4984013671875Z"/></g></g></svg>