<svg xmlns="http://www.w3.org/2000/svg" xmlns:xlink="http://www.w3.org/1999/xlink"  version="1.1" width="18" height="18" viewBox="0 0 18 18"><g><g><g><rect x="1.6680012941360474" y="3.5995311737060547" width="9.962708473205566" height="6.487332344055176" rx="0.8274586796760559" fill-opacity="0" stroke-opacity="1" stroke="currentColor" fill="none" stroke-width="1.513710856437683"/></g><g><path d="M15.08991536151886,5.883691798706055L13.84457536151886,5.883691798706055L13.84457536151886,5.885546798706055Q13.77021536151886,5.885546798706055,13.69728536151886,5.900053798706055Q13.62434536151886,5.914560798706055,13.55564536151886,5.943017798706054Q13.48694536151886,5.971474798706055,13.425125361518859,6.012786798706054Q13.36329536151886,6.054099798706055,13.31071536151886,6.106680798706055Q13.25812536151886,6.159262798706055,13.21681536151886,6.2210917987060546Q13.175505361518859,6.282919798706055,13.14704536151886,6.351620798706055Q13.11858536151886,6.420321798706055,13.104085361518859,6.493253798706054Q13.089575361518861,6.566185798706055,13.089575361518861,6.640546798706055Q13.089575361518861,6.714907798706054,13.104085361518859,6.787839798706055Q13.11858536151886,6.860771798706055,13.14704536151886,6.929472798706055Q13.175505361518859,6.998173798706055,13.21681536151886,7.060001798706055Q13.25812536151886,7.121830798706054,13.31070536151886,7.174412798706054Q13.36329536151886,7.226993798706054,13.42511536151886,7.268305798706055Q13.48694536151886,7.309618798706055,13.55564536151886,7.338075798706055Q13.62434536151886,7.3665327987060545,13.69728536151886,7.3810397987060545Q13.77021536151886,7.395546798706055,13.84457536151886,7.395546798706055L13.84457536151886,7.3974017987060545L15.507795361518859,7.3974017987060545Q15.57839536151886,7.3974017987060545,15.57839536151886,7.468005798706055L15.57839536151886,13.651946798706055Q15.57839536151886,13.722546798706055,15.507795361518859,13.722546798706055L7.20000436151886,13.722546798706055Q7.12940036151886,13.722546798706055,7.12940036151886,13.651946798706055L7.12940036151886,11.708776798706054L7.12754536151886,11.708776798706054Q7.12754536151886,11.634416798706056,7.11303836151886,11.561476798706055Q7.09853136151886,11.488546798706054,7.07007436151886,11.419846798706054Q7.04161736151886,11.351146798706054,7.00030536151886,11.289316798706054Q6.95899236151886,11.227486798706055,6.90641136151886,11.174906798706054Q6.8538293615188595,11.122326798706055,6.79200036151886,11.081016798706056Q6.73017236151886,11.039706798706055,6.66147136151886,11.011246798706054Q6.59277036151886,10.982786798706055,6.51983836151886,10.968276798706054Q6.4469063615188595,10.953776798706055,6.37254536151886,10.953776798706055Q6.29818436151886,10.953776798706055,6.2252523615188595,10.968276798706054Q6.15232036151886,10.982786798706055,6.08361936151886,11.011246798706054Q6.01491836151886,11.039706798706055,5.95309036151886,11.081016798706056Q5.89126136151886,11.122326798706055,5.83867936151886,11.174906798706054Q5.78609836151886,11.227486798706055,5.74478636151886,11.289316798706054Q5.70347336151886,11.351146798706054,5.67501636151886,11.419846798706054Q5.64655936151886,11.488546798706054,5.63205236151886,11.561476798706055Q5.61754536151886,11.634416798706056,5.61754536151886,11.708776798706054L5.61569036151886,11.708776798706054L5.61569036151886,13.651946798706055Q5.61569036151886,15.236256798706055,7.20000436151886,15.236266798706055L15.507795361518859,15.236266798706055Q16.16404536151886,15.236266798706055,16.628045361518858,14.772226798706054Q17.09214536151886,14.308196798706055,17.09214536151886,13.651946798706055L17.09214536151886,7.468005798706055Q17.09214536151886,5.883691798706055,15.507795361518859,5.883691798706055L15.08991536151886,5.883691798706055Z" fill-rule="evenodd"  fill-opacity="1"/></g><g><ellipse cx="1.8756425380706787" cy="3.735588550567627" rx="1.4390579462051392" ry="1.4055886268615723"  fill-opacity="1"/></g><g><ellipse cx="11.423112511634827" cy="3.735588550567627" rx="1.4390578269958496" ry="1.4055886268615723"  fill-opacity="1"/></g><g><ellipse cx="16.127755761146545" cy="6.776604175567627" rx="1.4390578269958496" ry="1.4055886268615723"  fill-opacity="1"/></g><g><ellipse cx="11.423112511634827" cy="9.952385425567627" rx="1.4390578269958496" ry="1.4055886268615723"  fill-opacity="1"/></g><g><ellipse cx="16.127755761146545" cy="14.264885425567627" rx="1.4390578269958496" ry="1.4055886268615723"  fill-opacity="1"/></g><g><ellipse cx="1.8756405115127563" cy="9.952385425567627" rx="1.4390578269958496" ry="1.4055886268615723"  fill-opacity="1"/></g><g><ellipse cx="6.580184578895569" cy="14.264885425567627" rx="1.4390578269958496" ry="1.4055886268615723"  fill-opacity="1"/></g></g></g></svg>