<svg xmlns="http://www.w3.org/2000/svg" xmlns:xlink="http://www.w3.org/1999/xlink" version="1.1" width="18" height="18" viewBox="0 0 18 18"><g><g><ellipse cx="8.99998688697815" cy="9.023965120315552" rx="2.0083401203155518" ry="2.0083401203155518" fill-opacity="0" stroke-opacity="1" stroke="currentColor" fill="none" stroke-width="1.4995607137680054"/></g><g><path d="M6.206348989868164,2.410192625Q6.934188989868164,2.102344625,7.699368989868164,1.962448938Q7.553948989868164,2.2617146249999998,7.553948989868164,2.594442625Q7.553948989868164,2.829195625,7.628208989868164,3.051890625Q7.7024789898681645,3.274590625,7.843378989868164,3.462350625Q7.304858989868164,3.573740625,6.790508989868164,3.7912906250000002Q5.7718789898681635,4.222140625,4.985808989868164,5.008210625Q4.199738989868164,5.794280625,3.768888989868164,6.812910625Q3.550718989868164,7.328720625,3.4384289898681644,7.877500625Q3.383008989868164,8.148300625000001,3.354168989868164,8.424090625Q3.3486689898681643,8.494030625,3.3302989898681643,8.561740624999999Q3.311918989868164,8.629440625,3.281308989868164,8.692570625Q3.250698989868164,8.755690625,3.208908989868164,8.812050625000001Q3.1671189898681638,8.868400625,3.1155989898681637,8.916020625Q3.0640889898681642,8.963650625,3.0046289898681637,9.000890625Q2.9451789898681637,9.038130625,2.8798489898681643,9.063710624999999Q2.8145149898681643,9.089280625,2.745575989868164,9.102290625Q2.676635989868164,9.115300625,2.606479989868164,9.115300625Q2.532610989868164,9.115300625,2.460161989868164,9.100890625Q2.387712989868164,9.086480625,2.319466989868164,9.058210625000001Q2.251220989868164,9.029940625,2.189801989868164,8.988900625Q2.128381989868164,8.947860625,2.076148989868164,8.895630624999999Q2.023916989868164,8.843400625000001,1.982876989868164,8.781980625Q1.941838189868164,8.720560625000001,1.9135698898681641,8.652310625Q1.885301689868164,8.584070624999999,1.870890589868164,8.511620624999999Q1.8564795848681641,8.439170625,1.8564795848681641,8.365300625Q1.8564795848681641,8.317690625000001,1.862498459868164,8.270470625Q1.898967789868164,7.920620625,1.969307989868164,7.576880625Q2.111509989868164,6.881950625,2.387788989868164,6.228760625Q2.932568989868164,4.940750625,3.925458989868164,3.9478606249999997Q4.918348989868164,2.954973625,6.206348989868164,2.410192625ZM14.074498989868165,3.9478606249999997Q13.592198989868164,3.465520625,13.028798989868164,3.082750625Q12.833298989868164,2.943280625,12.593198989868164,2.943280625Q12.519298989868163,2.943280625,12.446898989868163,2.957691625Q12.374398989868164,2.972100625,12.306198989868165,3.000370625Q12.237998989868164,3.028640625,12.176498989868165,3.069680625Q12.115098989868164,3.110720625,12.062898989868165,3.1629506249999997Q12.010598989868164,3.215180625,11.969598989868164,3.276600625Q11.928598989868163,3.338020625,11.900298989868164,3.4062706250000003Q11.871998989868164,3.4745106249999997,11.857598989868164,3.546960625Q11.843208989868165,3.619410625,11.843208989868165,3.693280625Q11.843208989868165,3.787460625,11.866498989868164,3.8787206249999997Q11.889798989868163,3.969980625,11.934898989868165,4.052650625Q11.979998989868164,4.135310625,12.044198989868164,4.204260625Q12.108398989868164,4.273200624999999,12.187598989868164,4.3241306250000004Q12.632798989868164,4.626820625000001,13.014198989868165,5.008210625Q13.800198989868164,5.794280625,14.231098989868164,6.812910625Q14.676898989868164,7.866930625,14.676898989868164,9.022390625Q14.676898989868164,9.942630625,14.394098989868164,10.798530625Q14.626698989868164,10.770780625,14.856098989868164,10.817870625Q15.085598989868163,10.864970625,15.288398989868163,10.982080625Q15.577498989868165,11.149000625,15.764198989868165,11.425790625Q16.176498989868165,10.269920625,16.176498989868165,9.022390625Q16.176498989868165,7.562840625,15.612198989868164,6.228760625Q15.067398989868163,4.940750625,14.074498989868165,3.9478606249999997ZM3.7107889898681643,13.654490625Q3.948358989868164,13.608290625,4.157958989868164,13.487290625Q4.344778989868164,13.379490625,4.491978989868164,13.221790625Q4.639178989868164,13.064090625,4.733948989868164,12.870290625Q4.885298989868164,12.930790625,4.997898989868164,13.048590625Q5.779708989868164,13.825990625,6.790508989868164,14.253490625Q7.844528989868164,14.699290625,8.999988989868164,14.699290625Q10.146828989868164,14.699290625,11.193738989868164,14.260090625Q11.340548989868164,14.193990625,11.501548989868164,14.193990625Q11.575418989868163,14.193990625,11.647858989868164,14.208490625Q11.720308989868164,14.222890625,11.788558989868164,14.251090625Q11.856798989868164,14.279390625,11.918198989868165,14.320390625Q11.979598989868164,14.361490625,12.031898989868164,14.413690625Q12.084098989868163,14.465890625,12.125098989868164,14.527390625Q12.166198989868164,14.588790625,12.194498989868164,14.656990625Q12.222698989868164,14.725290625,12.237098989868164,14.797690625Q12.251498989868164,14.870190625,12.251498989868164,14.943990625Q12.251498989868164,15.056990625,12.218298989868163,15.164990625Q12.184998989868165,15.272990625,12.121298989868164,15.366390625Q12.057698989868165,15.459690625,11.969398989868164,15.530190625Q11.881098989868164,15.600690625,11.775928989868165,15.642090625Q10.449858989868163,16.198890625,8.999988989868164,16.198890625Q7.540438989868164,16.198890625,6.206348989868164,15.634590625Q4.927138989868164,15.093490625,3.9390189898681642,14.110490625Q3.843778989868164,14.019990625,3.784968989868164,13.902490625Q3.726158989868164,13.784990625,3.7107889898681643,13.654490625Z" fill-rule="evenodd"  fill-opacity="1"/></g><g><ellipse cx="8.999948501586914" cy="2.594442367553711" rx="1.446004867553711" ry="1.446004867553711" fill-opacity="0" stroke-opacity="1" stroke="currentColor" fill="none" stroke-width="1.4995607137680054"/></g><g transform="matrix(0.4999999701976776,0.866025447845459,-0.866025447845459,0.4999999701976776,10.867333983867809,1.696757765831535)"><ellipse cx="5.410236477851868" cy="11.705770611763" rx="1.4460049867630005" ry="1.4460049867630005" fill-opacity="0" stroke-opacity="1" stroke="currentColor" fill="none" stroke-width="1.4995607137680054"/></g><g transform="matrix(-0.5000001192092896,0.866025447845459,-0.866025447845459,-0.5000001192092896,34.947914533509675,3.232970489199033)"><ellipse cx="17.98668348789215" cy="13.151083588600159" rx="1.4460054636001587" ry="1.4460054636001587" fill-opacity="0" stroke-opacity="1" stroke="currentColor" fill="none" stroke-width="1.4995607137680054"/></g></g></svg>