<svg xmlns="http://www.w3.org/2000/svg" xmlns:xlink="http://www.w3.org/1999/xlink"  version="1.1" width="16" height="16" viewBox="0 0 16 16"><defs><clipPath id="master_svg0_163_29713"><rect x="0" y="0" width="16" height="16" rx="0"/></clipPath></defs><g clip-path="url(#master_svg0_163_29713)"><g><path d="M5.75,4.749996185302734L15.25,4.749996185302734Q15.3239,4.749996185302734,15.3963,4.735585185302734Q15.4688,4.7211741853027345,15.537,4.692906185302735Q15.6053,4.664637185302734,15.6667,4.623598185302734Q15.7281,4.582559185302735,15.7803,4.530326185302735Q15.8326,4.478093185302734,15.8736,4.4166741853027345Q15.9146,4.3552541853027344,15.9429,4.287009185302734Q15.9712,4.218763185302734,15.9856,4.146314185302734Q16,4.073864685302734,16,3.9999961853027344Q16,3.9261276853027343,15.9856,3.8536781853027344Q15.9712,3.781229185302734,15.9429,3.7129831853027344Q15.9146,3.6447381853027343,15.8736,3.5833181853027343Q15.8326,3.5218991853027344,15.7803,3.469666185302734Q15.7281,3.4174331853027344,15.6667,3.3763941853027344Q15.6053,3.3353551853027343,15.537,3.3070861853027345Q15.4688,3.2788181853027343,15.3963,3.2644071853027343Q15.3239,3.2499961853027344,15.25,3.2499961853027344L5.75,3.2499961853027344Q3.36827,3.2499961853027344,1.684136,4.934132185302734Q0,6.618266185302734,0,8.999996185302734Q0,11.381726185302735,1.684136,13.065856185302735Q3.36827,14.749996185302734,5.75,14.749996185302734L10.25,14.749996185302734Q10.32387,14.749996185302734,10.39632,14.735596185302734Q10.46877,14.721196185302734,10.53701,14.692896185302734Q10.60526,14.664596185302734,10.66668,14.623596185302734Q10.7281,14.582596185302734,10.7803,14.530296185302735Q10.8326,14.478096185302734,10.8736,14.416696185302735Q10.9146,14.355296185302734,10.9429,14.286996185302735Q10.9712,14.218796185302734,10.9856,14.146296185302734Q11,14.073896185302734,11,13.999996185302734Q11,13.926126185302735,10.9856,13.853676185302735Q10.9712,13.781226185302735,10.9429,13.712986185302734Q10.9146,13.644736185302735,10.8736,13.583316185302735Q10.8326,13.521896185302735,10.7803,13.469666185302735Q10.7281,13.417436185302734,10.66668,13.376396185302735Q10.60526,13.335356185302734,10.53701,13.307086185302735Q10.46877,13.278816185302734,10.39632,13.264406185302734Q10.32387,13.249996185302734,10.25,13.249996185302734L5.75,13.249996185302734Q3.98959,13.249996185302734,2.7447999999999997,12.005196185302735Q1.5,10.760406185302735,1.5,8.999996185302734Q1.5,7.239586185302734,2.7447999999999997,5.994796185302734Q3.98959,4.749996185302734,5.75,4.749996185302734Z" fill-rule="evenodd" fill="#4070FD" fill-opacity="1"/></g><g transform="matrix(0.7071067690849304,0.7071067690849304,-0.7071067690849304,0.7071067690849304,4.468926047615241,-8.445191379927564)"><path d="M12.4287109375,0.421875L16.4287109375,0.421875Q16.5025809375,0.421875,16.5750309375,0.43628599999999995Q16.6474809375,0.450697,16.715720937500002,0.478965Q16.7839709375,0.507234,16.8453909375,0.548273Q16.9068109375,0.589312,16.9590409375,0.641545Q17.0112709375,0.693778,17.0523109375,0.755197Q17.0933509375,0.8166169999999999,17.1216209375,0.884862Q17.1498909375,0.9531080000000001,17.164300937500002,1.025557Q17.1787109375,1.0980064999999999,17.1787109375,1.171875L17.1787109375,5.171875Q17.1787109375,5.245745,17.164300937500002,5.318195Q17.1498909375,5.390645,17.1216209375,5.458885Q17.0933509375,5.527135,17.0523109375,5.588555Q17.0112709375,5.649975,16.9590409375,5.702205Q16.9068109375,5.754435,16.8453909375,5.795475Q16.7839709375,5.836515,16.715720937500002,5.864785Q16.6474809375,5.893055,16.5750309375,5.907465Q16.5025809375,5.921875,16.4287109375,5.921875Q16.3548409375,5.921875,16.2823909375,5.907465Q16.2099409375,5.893055,16.1417009375,5.864785Q16.0734509375,5.836515,16.0120309375,5.795475Q15.9506109375,5.754435,15.8983809375,5.702205Q15.8461509375,5.649975,15.8051109375,5.588555Q15.7640709375,5.527135,15.7358009375,5.458885Q15.7075309375,5.390645,15.6931209375,5.318195Q15.6787109375,5.245745,15.6787109375,5.171875L15.6787109375,1.921875L12.4287109375,1.921875Q12.3548424375,1.921875,12.2823929375,1.907464Q12.2099439375,1.893053,12.1416979375,1.864785Q12.0734529375,1.836516,12.0120329375,1.795477Q11.9506139375,1.754438,11.8983809375,1.702205Q11.8461479375,1.649972,11.8051089375,1.588553Q11.7640699375,1.527133,11.7358009375,1.458888Q11.7075329375,1.390642,11.693121937499999,1.318193Q11.6787109375,1.2457435000000001,11.6787109375,1.171875Q11.6787109375,1.0980064999999999,11.693121937499999,1.025557Q11.7075329375,0.9531080000000001,11.7358009375,0.884862Q11.7640699375,0.8166169999999999,11.8051089375,0.755197Q11.8461479375,0.693778,11.8983809375,0.641545Q11.9506139375,0.589312,12.0120329375,0.548273Q12.0734529375,0.507234,12.1416979375,0.478965Q12.2099439375,0.450697,12.2823929375,0.43628599999999995Q12.3548424375,0.421875,12.4287109375,0.421875Z" fill-rule="evenodd" fill="#4070FD" fill-opacity="1"/></g></g></svg>