<svg xmlns="http://www.w3.org/2000/svg" xmlns:xlink="http://www.w3.org/1999/xlink"  version="1.1" width="18" height="18" viewBox="0 0 18 18"><g><path d="M9,5.25C6.93225,5.25,5.25,6.93225,5.25,9C5.25,11.0677,6.93225,12.75,9,12.75C11.0677,12.75,12.75,11.0677,12.75,9C12.75,6.93225,11.0677,5.25,9,5.25ZM9,11.25C7.7595,11.25,6.75,10.2405,6.75,9C6.75,7.7595,7.7595,6.75,9,6.75C10.2405,6.75,11.25,7.7595,11.25,9C11.25,10.2405,10.2405,11.25,9,11.25ZM17.25,8.25L16.4625,8.25C16.1092,4.71225,13.2878,1.89,9.75,1.5375L9.75,0.75C9.75,0.33525,9.414,0,9,0C8.586,0,8.25,0.33525,8.25,0.75L8.25,1.5375C4.71225,1.89,1.89,4.71225,1.5375,8.25L0.75,8.25C0.336,8.25,0,8.58525,0,9C0,9.41475,0.336,9.75,0.75,9.75L1.5375,9.75C1.89075,13.2878,4.71225,16.11,8.25,16.4625L8.25,17.25C8.25,17.6647,8.586,18,9,18C9.414,18,9.75,17.6647,9.75,17.25L9.75,16.4625C13.2878,16.1092,16.11,13.2877,16.4625,9.75L17.25,9.75C17.664,9.75,18,9.41475,18,9C18,8.58525,17.664,8.25,17.25,8.25ZM9,15C5.69175,15,3,12.3082,3,9C3,5.69175,5.69175,3,9,3C12.3082,3,15,5.69175,15,9C15,12.3082,12.3083,15,9,15Z"  fill-opacity="1"/></g></svg>