<svg xmlns="http://www.w3.org/2000/svg" xmlns:xlink="http://www.w3.org/1999/xlink"  version="1.1" width="16" height="16" viewBox="0 0 16 16"><defs><clipPath id="master_svg0_115_06280"><rect x="0" y="0" width="16" height="16" rx="0"/></clipPath></defs><g clip-path="url(#master_svg0_115_06280)"><g><path d="M14.95352328125,3.5973373Q14.95986328125,3.5488753,14.95986328125,3.5Q14.95986328125,3.4261315,14.94545328125,3.353682Q14.93104328125,3.281233,14.90277328125,3.212987Q14.87450328125,3.144742,14.83346328125,3.083322Q14.79242328125,3.021903,14.74019328125,2.96967Q14.68796328125,2.917437,14.626543281250001,2.876398Q14.565123281249999,2.835359,14.49687328125,2.80709Q14.42863328125,2.778822,14.35618328125,2.764411Q14.28373328125,2.75,14.20986328125,2.75Q14.14215328125,2.75,14.07553328125,2.762128Q14.008913281249999,2.7742560000000003,13.94554328125,2.79812Q13.882173281250001,2.821984,13.82410328125,2.856812Q13.76603328125,2.8916399999999998,13.71514328125,2.936306Q13.66425328125,2.9809710000000003,13.622183281249999,3.03403Q13.58011328125,3.087089,13.54822328125,3.146824Q13.51633328125,3.20656,13.49566328125,3.271041Q13.47499328125,3.335522,13.46620328125,3.4026627L13.21686328125,5.30764L11.21031428125,5.03676L11.21020328125,5.03674Q11.16025968125,5.03,11.10986328125,5.03Q11.03599478125,5.03,10.96354528125,5.04441Q10.89109628125,5.05882,10.82285028125,5.08709Q10.75460528125,5.11536,10.69318528125,5.1564Q10.63176628125,5.19744,10.57953328125,5.24967Q10.52730028125,5.3019,10.48626128125,5.36332Q10.44522228125,5.42474,10.41695328125,5.49299Q10.38868528125,5.56123,10.374274281249999,5.63368Q10.35986328125,5.70613,10.35986328125,5.779999999999999Q10.35986328125,5.847519999999999,10.37192328125,5.913959999999999Q10.38398428125,5.9803999999999995,10.40771728125,6.04361Q10.43144928125,6.10682,10.46609228125,6.16478Q10.50073428125,6.22274,10.54517128125,6.27358Q10.58960828125,6.32442,10.64241128125,6.36651Q10.69521428125,6.40859,10.75468528125,6.44057Q10.81415628125,6.47254,10.87838228125,6.49338Q10.94260828125,6.51422,11.00952328125,6.5232600000000005L11.00995528125,6.52332L12.97727328125,6.7889Q13.612183281250001,6.924300000000001,14.13672328125,6.52935Q14.66399328125,6.132350000000001,14.70708328125,5.48008L14.953453281249999,3.5978488L14.95352328125,3.5973373L14.95352328125,3.5973373Z" fill-rule="evenodd"
                                                                                                                                                                                                                                                                                                               fill-opacity="1"/></g><g><path d="M7.617144609375,14.711590625Q10.605984609375,14.789490625,12.672124609375,12.628390625Q12.772124609375,12.523690625,12.826024609375,12.389290625Q12.880024609375,12.254890625,12.880024609375,12.110090625Q12.880024609375,12.036290625,12.865524609375,11.963790625Q12.851124609375,11.891360625,12.822924609375,11.823110625Q12.794624609375,11.754870625,12.753624609375,11.693450625Q12.712524609375,11.632030625,12.660324609375,11.579790625Q12.608024609375,11.527560625,12.546624609375,11.486520625Q12.485224609375,11.445480625,12.417024609375,11.417210625Q12.348724609375,11.388940625,12.276324609375,11.374530625Q12.203824609375,11.360120625,12.130024609375,11.360120625Q11.976424609375,11.360120625,11.835224609375,11.420480625Q11.693984609375,11.480840625,11.587864609375,11.591840625Q9.980894609375,13.272690625,7.656244609375,13.212090625Q5.331594609375,13.151490625,3.814394609375,11.389180625Q2.297191609375,9.626860624999999,2.582829609375,7.319020625Q2.8684646093749997,5.011190624999999,4.769544609375,3.671950625Q6.670624609375,2.332701625,8.939904609374999,2.840680625Q11.209184609375,3.348660625,12.357824609375,5.370590625Q12.406924609375,5.457020625,12.476924609375,5.527680625Q12.546824609375,5.598330625,12.632724609375,5.648330625Q12.718624609375,5.6983306250000005,12.814624609375,5.724230625000001Q12.910524609375,5.750120625,13.010024609375,5.750120625Q13.083824609375,5.750120625,13.156324609375,5.735710624999999Q13.228724609375,5.721300625,13.297024609375,5.6930306250000005Q13.365224609375,5.6647606249999995,13.426624609375,5.623720625Q13.488024609375,5.582690625,13.540324609375,5.530450625Q13.592524609375,5.4782206250000005,13.633624609375,5.4168006250000005Q13.674624609375,5.3553806250000004,13.702924609375,5.287140625Q13.731124609375,5.218890625,13.745524609375,5.146440625Q13.760024609375,5.073990625,13.760024609375,5.000120625Q13.760024609375,4.801890625,13.662024609375,4.629540625000001L13.660524609375,4.626950625Q12.183724609375,2.029682625,9.267574609375,1.3769066250000002Q6.349924609375,0.7237906249999999,3.905684609375,2.445676625Q1.461437609375,4.167560625,1.094188609375,7.134770625Q0.726934609375,10.101990625,2.677625609375,12.367790625Q4.628314609375,14.633690625,7.617144609375,14.711590625Z" fill-rule="evenodd"
                                                                                                                                                                                                                                                                                                                                              fill-opacity="1"/></g></g></svg>