<svg xmlns="http://www.w3.org/2000/svg" xmlns:xlink="http://www.w3.org/1999/xlink"  version="1.1" width="18" height="18" viewBox="0 0 18 18"><g><g><path d="M10.584081374511719,16.8393Q10.972831374511719,16.759700000000002,11.351441374511719,16.642L11.350891374511718,16.6402Q11.40782137451172,16.622500000000002,11.461241374511719,16.596Q11.514661374511718,16.5696,11.56323137451172,16.535Q11.61179137451172,16.5004,11.654281374511719,16.4586Q11.69677137451172,16.4167,11.732121374511719,16.3687Q11.767421374511718,16.320700000000002,11.794821374511718,16.267699999999998Q11.822121374511719,16.2147,11.840721374511718,16.158099999999997Q11.859321374511719,16.101399999999998,11.868721374511718,16.0426Q11.87812137451172,15.9837,11.87812137451172,15.9241Q11.87812137451172,15.8502,11.86372137451172,15.7777Q11.84932137451172,15.7053,11.82102137451172,15.637Q11.79282137451172,15.5688,11.75172137451172,15.5074Q11.71071137451172,15.446,11.65848137451172,15.3937Q11.606241374511718,15.3415,11.544831374511718,15.3005Q11.483401374511718,15.2594,11.415161374511719,15.2311Q11.346911374511718,15.2029,11.27447137451172,15.1885Q11.202021374511718,15.1741,11.128151374511718,15.1741Q11.01420137451172,15.1741,10.905401374511719,15.2079L10.904851374511718,15.2061Q10.597871374511719,15.3016,10.282621374511718,15.3661Q9.637411374511718,15.4981,8.972221374511719,15.4981Q6.280601374511718,15.4981,4.377341374511719,13.5949Q2.4740733745117187,11.69162,2.4740733745117187,9Q2.4740733745117187,6.30838,4.377341374511719,4.40512Q6.280601374511718,2.501852,8.972221374511719,2.501852Q11.663841374511719,2.501852,13.56712137451172,4.40512Q14.466821374511719,5.30486,14.960021374511719,6.47086Q15.20982137451172,7.06135,15.338321374511718,7.6896Q15.403721374511719,8.00912,15.43682137451172,8.33469L15.438621374511719,8.33451Q15.445621374511719,8.40324,15.46502137451172,8.469529999999999Q15.484421374511719,8.53583,15.515621374511719,8.59746Q15.546821374511719,8.659099999999999,15.588821374511719,8.714Q15.630721374511719,8.768889999999999,15.681921374511719,8.81521Q15.733221374511718,8.861519999999999,15.79212137451172,8.89769Q15.850921374511719,8.933869999999999,15.915421374511718,8.958680000000001Q15.979921374511719,8.98349,16.04782137451172,8.99611Q16.11572137451172,9.00873,16.18482137451172,9.00873Q16.25862137451172,9.00873,16.331121374511717,8.99432Q16.40352137451172,8.97991,16.47182137451172,8.951640000000001Q16.540021374511717,8.92337,16.60142137451172,8.88233Q16.66292137451172,8.84129,16.715121374511718,8.78906Q16.767321374511717,8.736830000000001,16.808421374511717,8.67541Q16.84942137451172,8.613990000000001,16.87772137451172,8.54574Q16.90592137451172,8.4775,16.92042137451172,8.40505Q16.93482137451172,8.3326,16.93482137451172,8.25873Q16.93482137451172,8.22074,16.93092137451172,8.18295L16.932821374511718,8.18277Q16.892121374511717,7.78186,16.81152137451172,7.38814Q16.65292137451172,6.61336,16.34492137451172,5.88509Q15.737521374511719,4.44897,14.63042137451172,3.34184Q12.28672137451172,0.998148,8.972221374511719,0.998148Q5.657741374511719,0.998148,3.3140613745117187,3.34184Q0.9703693745117188,5.68552,0.9703693745117188,9Q0.9703693745117188,12.3145,3.3140613745117187,14.6582Q5.657751374511719,17.0019,8.972221374511719,17.0019Q9.78968137451172,17.0019,10.584081374511719,16.8393Z" fill-rule="evenodd"  fill-opacity="1"/></g><g><path d="M12.73326931274414,7.410885625000001Q12.81105931274414,7.594795625,12.87032931274414,7.785365625L12.87209931274414,7.784815625Q12.889809312744141,7.841745625,12.91628931274414,7.895165625000001Q12.94276931274414,7.948585625,12.97735931274414,7.997145625Q13.01193931274414,8.045705625,13.05376931274414,8.088195625Q13.09558931274414,8.130685625,13.14359931274414,8.166035625Q13.191619312744141,8.201385625,13.24460931274414,8.228705625Q13.297609312744141,8.256015625,13.354249312744141,8.274625624999999Q13.41089931274414,8.293225625,13.469769312744141,8.302645625Q13.52863931274414,8.312065624999999,13.58825931274414,8.312065624999999Q13.66212931274414,8.312065624999999,13.73457931274414,8.297655625Q13.80702931274414,8.283235625,13.875269312744141,8.254975625Q13.94351931274414,8.226705625000001,14.00492931274414,8.185665625Q14.06635931274414,8.144625625,14.11858931274414,8.092395625Q14.17078931274414,8.040155625,14.211889312744141,7.9787356250000006Q14.252889312744141,7.917325625,14.281189312744141,7.849075624999999Q14.309389312744141,7.780825625,14.323889312744141,7.708385625Q14.338289312744141,7.635935625,14.338289312744141,7.562065625Q14.338289312744141,7.448115625,14.30438931274414,7.339305625L14.30618931274414,7.338755625Q14.224889312744141,7.0773456249999995,14.118189312744141,6.8251156250000005Q13.694189312744141,5.8226756250000005,12.92154931274414,5.050027625Q11.28567931274414,3.414163625,8.97221931274414,3.414163625Q6.658759312744141,3.414163625,5.022900312744141,5.050026625Q3.3870373127441407,6.685885625,3.3870373127441407,8.999345625Q3.3870373127441407,11.312805625,5.022900312744141,12.948675625Q5.4035093127441405,13.329285625,5.84896931274414,13.630225625Q6.07261931274414,13.781325625,6.30947931274414,13.909985625L6.31035931274414,13.908365625Q6.4778093127441405,13.999325625,6.66836931274414,13.999325625Q6.7422393127441405,13.999325625,6.814689312744141,13.984915625Q6.887139312744141,13.970505625,6.955379312744141,13.942235625Q7.0236293127441405,13.913965625,7.0850493127441405,13.872925625Q7.1464693127441405,13.831885625,7.198699312744141,13.779655625Q7.250929312744141,13.727425625,7.291969312744141,13.666005625Q7.3330093127441405,13.604585625,7.3612793127441405,13.536335625Q7.3895493127441405,13.468095625,7.40395931274414,13.395645625Q7.41836931274414,13.323195625,7.41836931274414,13.249325625Q7.41836931274414,13.148105625,7.391539312744141,13.050515625Q7.364709312744141,12.952915625,7.312959312744141,12.865925625Q7.2612193127441405,12.778925625,7.188269312744141,12.708765625Q7.115319312744141,12.638605625,7.02637931274414,12.590285625L7.027259312744141,12.588655625Q6.854209312744141,12.494655625,6.69074931274414,12.384225625Q6.3647993127441405,12.164015625000001,6.08617931274414,11.885395625000001Q4.89074131274414,10.689955625,4.89074131274414,8.999345625Q4.89074131274414,7.308745625,6.08617931274414,6.113305625Q7.281619312744141,4.9178676249999995,8.97221931274414,4.9178676249999995Q10.66282931274414,4.9178676249999995,11.858269312744142,6.113305625Q12.42352931274414,6.678565625,12.73326931274414,7.410885625000001Z" fill-rule="evenodd"  fill-opacity="1"/></g><g><path d="M12.19444068725586,14.63889C10.116110687255858,14.63889,8.47278068725586,13.699069999999999,7.361110687255859,11.81944C8.47278068725586,9.939815,10.116110687255858,9,12.19444068725586,9C14.27278068725586,9,15.916110687255859,9.939815,17.02778068725586,11.81944C15.916110687255859,13.699069999999999,14.27278068725586,14.63889,12.19444068725586,14.63889ZM12.291110687255859,9.939815C10.84111068725586,9.939815,9.391110687255859,10.55069,8.56944068725586,11.81944C9.391110687255859,13.08819,10.84111068725586,13.699069999999999,12.291110687255859,13.699069999999999C13.741110687255858,13.699069999999999,14.997780687255858,13.08819,15.81944068725586,11.81944C14.997780687255858,10.55069,13.741110687255858,9.939815,12.291110687255859,9.939815ZM12.19444068725586,13.22917C11.372780687255858,13.22917,10.74444068725586,12.61829,10.74444068725586,11.81944C10.74444068725586,11.0206,11.372780687255858,10.40972,12.19444068725586,10.40972C13.01611068725586,10.40972,13.644440687255859,11.0206,13.644440687255859,11.81944C13.644440687255859,12.61829,13.01611068725586,13.22917,12.19444068725586,13.22917ZM12.19444068725586,12.28935C12.484440687255859,12.28935,12.67778068725586,12.10139,12.67778068725586,11.81944C12.67778068725586,11.5375,12.484440687255859,11.349540000000001,12.19444068725586,11.349540000000001C11.90444068725586,11.349540000000001,11.711110687255859,11.5375,11.711110687255859,11.81944C11.711110687255859,12.10139,11.90444068725586,12.28935,12.19444068725586,12.28935Z"  fill-opacity="1"/><path d="M12.19444068725586,14.8Q15.45217068725586,14.8,17.16645068725586,11.90146L17.21496068725586,11.81944L17.16645068725586,11.73743Q15.45218068725586,8.838889,12.19444068725586,8.838888Q8.936720687255859,8.838889,7.2224376872558596,11.73743L7.173931687255859,11.81944L7.2224376872558596,11.90146Q8.936720687255859,14.8,12.19444068725586,14.8ZM16.83990068725586,11.81944Q15.22203068725586,9.161111,12.19444068725586,9.161111Q9.16685068725586,9.161108,7.548989687255859,11.81944Q9.16685068725586,14.47778,12.19444068725586,14.47778Q15.22204068725586,14.47778,16.83990068725586,11.81944ZM16.01139068725586,11.81944L15.95467068725586,11.73187Q14.68975068725586,9.778704,12.291110687255859,9.778704Q11.12147068725586,9.778704,10.12475068725586,10.25869Q9.05448068725586,10.7741,8.43421068725586,11.73187L8.377500687255859,11.81944L8.43421068725586,11.90702Q9.05448068725586,12.86479,10.12475068725586,13.3802Q11.12147068725586,13.86019,12.291110687255859,13.86019Q14.689760687255859,13.86018,15.95467068725586,11.90702L16.01139068725586,11.81944ZM15.62615068725586,11.81944Q14.45997068725586,10.10093,12.291110687255859,10.10093Q11.19501068725586,10.10093,10.26455068725586,10.549Q9.32545068725586,11.00125,8.763110687255859,11.81944Q9.32545068725586,12.637640000000001,10.26455068725586,13.08988Q11.19501068725586,13.53796,12.291110687255859,13.53796Q14.45997068725586,13.53796,15.62615068725586,11.81944ZM13.33988068725586,12.93939Q13.80555068725586,12.48664,13.80555068725586,11.81944Q13.80555068725586,11.15225,13.33987068725586,10.6995Q12.87610068725586,10.24861,12.19444068725586,10.24861Q11.512790687255858,10.24861,11.049010687255858,10.6995Q10.58333068725586,11.15225,10.58333068725586,11.81944Q10.58333068725586,12.48664,11.049010687255858,12.93939Q11.512780687255859,13.39028,12.19444068725586,13.39028Q12.87610068725586,13.39028,13.33988068725586,12.93939ZM13.115260687255859,10.930530000000001Q13.48333068725586,11.28838,13.48333068725586,11.81944Q13.48333068725586,12.35051,13.115260687255859,12.708359999999999Q12.74528068725586,13.06806,12.19444068725586,13.06806Q11.643600687255859,13.06806,11.27362068725586,12.708359999999999Q10.90555068725586,12.35051,10.90555068725586,11.81944Q10.90555068725586,11.28838,11.27362068725586,10.930530000000001Q11.643600687255859,10.57083,12.19444068725586,10.57083Q12.74528068725586,10.57083,13.115260687255859,10.930530000000001ZM12.19444068725586,11.18843Q11.55000068725586,11.18843,11.55000068725586,11.81944Q11.55000068725586,12.45046,12.19444068725586,12.45046Q12.838890687255859,12.45046,12.838890687255859,11.81944Q12.838890687255859,11.18843,12.19444068725586,11.18843ZM12.19444068725586,12.12824Q11.87222068725586,12.12824,11.87222068725586,11.81944Q11.87222068725586,11.51065,12.19444068725586,11.51065Q12.51667068725586,11.51065,12.51667068725586,11.81944Q12.51667068725586,11.96283,12.432550687255858,12.04461Q12.34653068725586,12.12824,12.19444068725586,12.12824Z" fill-rule="evenodd"  fill-opacity="1"/></g></g></svg>