<svg xmlns="http://www.w3.org/2000/svg" xmlns:xlink="http://www.w3.org/1999/xlink" fill="none" version="1.1" width="24" height="24" viewBox="0 0 24 24"><defs><clipPath id="master_svg0_115_00996"><rect x="0" y="0" width="24" height="24" rx="0"/></clipPath><clipPath id="master_svg1_115_00998"><rect x="3" y="3" width="18" height="18.01397705078125" rx="0"/></clipPath><linearGradient x1="0" y1="0.0291315708309412" x2="1" y2="1" id="master_svg2_1_341"><stop offset="0%" stop-color="#4070FD" stop-opacity="1"/><stop offset="100%" stop-color="#757BEB" stop-opacity="1"/></linearGradient><linearGradient x1="0" y1="0.0291315708309412" x2="1" y2="1" id="master_svg3_1_341"><stop offset="0%" stop-color="#4070FD" stop-opacity="1"/><stop offset="100%" stop-color="#757BEB" stop-opacity="1"/></linearGradient><linearGradient x1="0" y1="0.0291315708309412" x2="1" y2="1" id="master_svg4_1_341"><stop offset="0%" stop-color="#4070FD" stop-opacity="1"/><stop offset="100%" stop-color="#757BEB" stop-opacity="1"/></linearGradient><linearGradient x1="0" y1="0.0291315708309412" x2="1" y2="1" id="master_svg5_1_341"><stop offset="0%" stop-color="#4070FD" stop-opacity="1"/><stop offset="100%" stop-color="#757BEB" stop-opacity="1"/></linearGradient><linearGradient x1="0" y1="0.0291315708309412" x2="1" y2="1" id="master_svg6_1_341"><stop offset="0%" stop-color="#4070FD" stop-opacity="1"/><stop offset="100%" stop-color="#757BEB" stop-opacity="1"/></linearGradient><linearGradient x1="0" y1="0.0291315708309412" x2="1" y2="1" id="master_svg7_1_341"><stop offset="0%" stop-color="#4070FD" stop-opacity="1"/><stop offset="100%" stop-color="#757BEB" stop-opacity="1"/></linearGradient></defs><g clip-path="url(#master_svg0_115_00996)"><g clip-path="url(#master_svg1_115_00998)"><g><g><path d="M9.125685604858399,11.30154875L5.800276604858398,9.11793675L6.678494604858399,7.78050075L10.0039056048584,9.96410875L9.125685604858399,11.30154875Z" fill-rule="evenodd" fill="url(#master_svg2_1_341)" fill-opacity="1"/></g><g><path d="M17.567018954467773,11.946300875L15.265144954467774,12.274216875L15.039492954467773,10.690210875L17.341368954467775,10.362292875L17.567018954467773,11.946300875Z" fill-rule="evenodd" fill="url(#master_svg3_1_341)" fill-opacity="1"/></g><g><path d="M12.8107479095459,6.55078125L12.8107479095459,9.31067125L11.210747909545898,9.31067125L11.210747909545898,6.55078125L12.8107479095459,6.55078125Z" fill-rule="evenodd" fill="url(#master_svg4_1_341)" fill-opacity="1"/></g><g><path d="M5.396121495483398,17.38490875L9.284903495483398,13.59504375L10.401603495483398,14.74089375L6.512825495483399,18.53075875L5.396121495483398,17.38490875Z" fill-rule="evenodd" fill="url(#master_svg5_1_341)" fill-opacity="1"/></g><g><path d="M17.460608622436524,18.57306875L13.587950622436523,14.70256175L14.719006622436524,13.57087575L18.591658622436523,17.44137875L17.460608622436524,18.57306875Z" fill-rule="evenodd" fill="url(#master_svg6_1_341)" fill-opacity="1"/></g></g><g><g><path d="M3.002166748046875,7.54022375C3.002166748046875,8.60030375,3.861203748046875,9.45934375,4.921296748046875,9.46042375C5.981376748046875,9.46042375,6.840416748046875,8.60138375,6.841496748046875,7.5412937499999995C6.841496748046875,6.48013075,5.982456748046875,5.62109375,4.9223667480468745,5.62109375C3.862278748046875,5.62109375,3.002166748046875,6.48013075,3.002166748046875,7.54022375Z" fill="#B8B9CE" fill-opacity="1"/></g><g><path d="M6.83825,19.09491125Q6.83825,19.18919125,6.82901,19.28301125Q6.81977,19.37684125,6.80138,19.46931125Q6.78298,19.56178125,6.75561,19.65200125Q6.72825,19.74222125,6.69217,19.82932125Q6.65609,19.91643125,6.6116399999999995,19.99958125Q6.5672,20.08272125,6.51482,20.16111125Q6.46244,20.23951125,6.40263,20.31239125Q6.34282,20.38527125,6.2761499999999995,20.45193125Q6.209490000000001,20.51860125,6.13661,20.57841125Q6.06373,20.63822125,5.985329999999999,20.69060125Q5.9069400000000005,20.74298125,5.82379,20.78742125Q5.7406500000000005,20.83187125,5.65354,20.86795125Q5.56644,20.90403125,5.47622,20.93139125Q5.386,20.95876125,5.2935300000000005,20.97716125Q5.20106,20.99555125,5.1072299999999995,21.00479125Q5.01341,21.01403125,4.91913,21.01403125Q4.82485,21.01403125,4.73102,21.00479125Q4.63719,20.99555125,4.54472,20.97716125Q4.45225,20.95876125,4.36203,20.93139125Q4.27181,20.90403125,4.18471,20.86795125Q4.0976,20.83187125,4.01446,20.78742125Q3.931308,20.74298125,3.852916,20.69060125Q3.774525,20.63822125,3.701645,20.57841125Q3.628765,20.51860125,3.562099,20.45193125Q3.495432,20.38527125,3.435621,20.31239125Q3.37581,20.23951125,3.3234310000000002,20.16111125Q3.271051,20.08272125,3.226608,19.99958125Q3.182164,19.91643125,3.146085,19.82932125Q3.110005,19.74222125,3.0826369,19.65200125Q3.0552687,19.56178125,3.0368755,19.46931125Q3.0184822,19.37684125,3.00924111,19.28301125Q3,19.18919125,3,19.09491125Q3,19.00063125,3.00924111,18.90680125Q3.0184822,18.81297125,3.0368755,18.72050125Q3.0552687,18.62803125,3.0826369,18.53781125Q3.110005,18.44759125,3.146085,18.36049125Q3.182164,18.27338125,3.226608,18.19024125Q3.271051,18.10708925,3.3234310000000002,18.02869825Q3.37581,17.95030625,3.435621,17.87742625Q3.495432,17.80454725,3.562099,17.73788025Q3.628765,17.67121425,3.701645,17.61140325Q3.774525,17.55159225,3.852916,17.49921225Q3.931308,17.44683325,4.01446,17.40238925Q4.0976,17.35794525,4.18471,17.32186625Q4.27181,17.28578625,4.36203,17.25841815Q4.45225,17.23104995,4.54472,17.21265675Q4.63719,17.19426345,4.73102,17.18502237Q4.82485,17.17578125,4.91913,17.17578125Q5.01341,17.17578125,5.1072299999999995,17.18502237Q5.20106,17.19426345,5.2935300000000005,17.21265675Q5.386,17.23104995,5.47622,17.25841815Q5.56644,17.28578625,5.65354,17.32186625Q5.7406500000000005,17.35794525,5.82379,17.40238925Q5.9069400000000005,17.44683325,5.985329999999999,17.49921225Q6.06373,17.55159225,6.13661,17.61140325Q6.209490000000001,17.67121425,6.2761499999999995,17.73788025Q6.34282,17.80454725,6.40263,17.87742625Q6.46244,17.95030625,6.51482,18.02869825Q6.5672,18.10708925,6.6116399999999995,18.19024125Q6.65609,18.27338125,6.69217,18.36049125Q6.72825,18.44759125,6.75561,18.53781125Q6.78298,18.62803125,6.80138,18.72050125Q6.81977,18.81297125,6.82901,18.90680125Q6.83825,19.00063125,6.83825,19.09491125Z" fill="#B8B9CE" fill-opacity="1"/></g><g><path d="M17.1617431640625,19.060825C17.1617431640625,20.120915,18.020781164062498,20.979955,19.0808731640625,20.981025C20.140953164062502,20.982105,20.9999931640625,20.121985,21.0010731640625,19.061905C21.0010731640625,18.000737,20.1420331640625,17.140625,19.0819431640625,17.140625C18.0218551640625,17.140625,17.1628177140625,17.999662999999998,17.1617431640625,19.059755L17.1617431640625,19.060825Z" fill="#B8B9CE" fill-opacity="1"/></g><g><path d="M17.096160888671875,10.873325C17.096160888671875,11.933415,17.955198888671873,12.792455,19.015290888671874,12.793524999999999C20.075370888671877,12.794605,20.934410888671874,11.934485,20.935490888671875,10.874405C20.935490888671875,9.813237,20.076450888671875,8.953125,19.016360888671876,8.953125C17.956272888671876,8.953125,17.097235438671873,9.812163,17.096160888671875,10.872255L17.096160888671875,10.873325Z" fill="#B8B9CE" fill-opacity="1"/></g><g><path d="M10.184089286015626,4.9201999999999995C10.184089286015626,5.98029,11.043125916015626,6.83933,12.103213916015624,6.83933C13.163303916015625,6.83933,14.022343916015625,5.98029,14.022343916015625,4.9201999999999995C14.022343916015625,3.860112,13.163303916015625,3,12.103213916015624,3C11.043125916015626,3,10.184089286015626,3.859037,10.183013916015625,4.91913Q10.183013916015625,4.91913,10.183013916015625,4.9201999999999995L10.184089286015626,4.9201999999999995Z" fill="#B8B9CE" fill-opacity="1"/></g></g><g><path d="M8.677825927734375,12.145430000000001C8.677825927734375,13.986080000000001,10.167965927734375,15.47837,12.008605927734376,15.47945C13.849255927734376,15.47945,15.341545927734375,13.9893,15.342615927734375,12.14866L15.342615927734375,12.145430000000001C15.342615927734375,10.30479,13.851405927734376,8.8125,12.010765927734376,8.8125C10.170125927734375,8.8125,8.677826337868375,10.30372,8.677826337868375,12.144359999999999L8.677825927734375,12.145430000000001Z" fill="#FFFFFF" fill-opacity="1"/><path d="M8.677825927734375,12.145430000000001C8.677825927734375,13.986080000000001,10.167965927734375,15.47837,12.008605927734376,15.47945C13.849255927734376,15.47945,15.341545927734375,13.9893,15.342615927734375,12.14866L15.342615927734375,12.145430000000001C15.342615927734375,10.30479,13.851405927734376,8.8125,12.010765927734376,8.8125C10.170125927734375,8.8125,8.677825927734375,10.30372,8.677825927734375,12.144359999999999L8.677825927734375,12.145430000000001ZM10.011155927734375,12.144359999999999L10.011155927734375,12.14594Q10.011335927734375,12.97437,10.596315927734375,13.559989999999999Q11.181295927734375,14.14563,12.009385927734375,14.14611Q12.837365927734375,14.14611,13.423165927734374,13.56096Q14.008805927734375,12.97598,14.009285927734375,12.14788L14.009285927734375,12.145430000000001Q14.009285927734375,11.31696,13.423915927734374,10.73133Q12.838675927734375,10.14583,12.010765927734376,10.14583Q11.182285927734375,10.14583,10.596655927734375,10.73121Q10.011155927734375,11.31644,10.011155927734375,12.144359999999999Z" fill-rule="evenodd" fill="url(#master_svg7_1_341)" fill-opacity="1"/></g></g></g></svg>