<svg xmlns="http://www.w3.org/2000/svg" xmlns:xlink="http://www.w3.org/1999/xlink" fill="none" version="1.1" width="40" height="40" viewBox="0 0 40 40"><defs><clipPath id="master_svg0_313_28171"><rect x="0" y="0" width="40" height="40" rx="0"/></clipPath><linearGradient x1="0" y1="0.5" x2="1" y2="0.5" id="master_svg1_1_16309"><stop offset="0%" stop-color="#4070FF" stop-opacity="1"/><stop offset="100%" stop-color="#757BEB" stop-opacity="1"/></linearGradient></defs><g style="opacity:0.4000000059604645;" clip-path="url(#master_svg0_313_28171)"><g><g><g><path d="M4.6666259765625,0L27.3333259765625,0L35.9999259765625,8.66667L35.9999259765625,40L4.6666259765625,40L4.6666259765625,0ZM7.9996359765625,36.6693L21.9996259765625,36.6693C23.2462259765625,38.2096,25.4738259765625,39.3359,27.9996259765625,39.3359C32.403225976562496,39.3359,35.9996259765625,35.7692,35.9996259765625,31.3359C35.9996259765625,28.8456,34.8161259765625,26.5964,32.666325976562504,25.3359L32.666325976562504,11.3359L24.6663259765625,11.3359L24.6663259765625,3.33594L7.9996359765625,3.33594L7.9996359765625,36.6693Z" fill-rule="evenodd" fill="#B8B9CE" fill-opacity="1"/></g><g><path d="M10.666601181030273,15.3359375L29.333301181030272,15.3359375L29.333301181030272,18.6692675L10.666601181030273,18.6692675L10.666601181030273,15.3359375ZM10.666601181030273,21.9999975L19.999931181030274,21.9999975L19.999931181030274,25.3333375L10.666601181030273,25.3333375L10.666601181030273,21.9999975ZM16.666601181030273,28.6679375L10.666601181030273,28.6679375L10.666601181030273,32.001337500000005L16.666601181030273,32.001337500000005L16.666601181030273,28.6679375Z" fill-rule="evenodd" fill="#B8B9CE" fill-opacity="1"/></g><g><path d="M32.73090390625,24.5504225C31.25000390625,23.3699325,29.37410390625,22.6640625,27.33317390625,22.6640625C22.546713906249998,22.6640625,18.66650390625,26.5442525,18.66650390625,31.3307325C18.66650390625,33.4275625,19.41122690625,35.3503625,20.65045390625,36.8493625C22.24010390625,38.772062500000004,24.64351390625,39.9973625,27.33317390625,39.9973625C32.11960390625,39.9973625,35.99980390625,36.1171625,35.99980390625,31.3307325C35.99980390625,28.585272500000002,34.72290390625,26.1383625,32.73090390625,24.5504225Z" fill="url(#master_svg1_1_16309)" fill-opacity="1"/></g><g><path d="M28.666748046875,30.580145L30.381898046875,32.213175L32.000078046875004,30.587155L27.333418046875,25.921875L22.666748046875,30.867565L24.284978046875,32.493575L26.000078046875,30.580145L26.000078046875,37.332575L28.666748046875,37.332575L28.666748046875,30.580145Z" fill="#FFFFFF" fill-opacity="1"/></g></g></g></g></svg>