<svg xmlns="http://www.w3.org/2000/svg" xmlns:xlink="http://www.w3.org/1999/xlink"  version="1.1" width="16" height="16" viewBox="0 0 16 16"><defs><clipPath id="master_svg0_115_06287"><rect x="0" y="0" width="16" height="16" rx="0"/></clipPath><clipPath id="master_svg1_115_06287/32_9433"><rect x="1" y="1" width="14.59000015258789" height="14.59000015258789" rx="0"/></clipPath></defs><g clip-path="url(#master_svg0_115_06287)"><g clip-path="url(#master_svg1_115_06287/32_9433)"></g><g><path d="M7.5016403125,0.9999997412109375Q4.8063103125,0.9941767412109375,2.8998503125,2.8995147412109374Q0.6369703124999999,5.161064741210938,1.0526343125,8.333204741210938Q1.4683013125,11.505344741210937,4.2374703125,13.107484741210937Q7.0066403125,14.709684741210937,9.9638803125,13.488984741210938Q12.9210703125,12.268284741210937,13.7538703125,9.179364741210938Q14.5866703125,6.090394741210938,12.6437703125,3.5486547412109375Q10.7008903125,1.0069117412109376,7.5016403125,0.9999997412109375ZM2.5399203125,8.138314741210937Q2.2203233125,5.699334741210937,3.9602003125,3.9604847412109376Q5.4260303125,2.4955187412109376,7.4984003125,2.4999967412109374Q9.9582303125,2.5053107412109377,11.4520703125,4.459594741210937Q12.9458703125,6.413874741210938,12.3055703125,8.788904741210938Q11.6652903125,11.163944741210937,9.3915503125,12.102484741210937Q7.1178103125,13.040984741210938,4.9886603125,11.809184741210938Q2.8595203125,10.577294741210938,2.5399203125,8.138314741210937Z" fill-rule="evenodd" fill-opacity="1"/></g><g><path d="M4.75,7L10.25,7C10.66196,7.00538588,10.99461,7.338038,11,7.75C10.99461,8.16196,10.66196,8.49461,10.25,8.5L4.75,8.5C4.338037,8.49461,4.0053854,8.16196,4,7.75C4.00538588,7.338038,4.338038,7.00538588,4.75,7Z" fill-rule="evenodd"  fill-opacity="1"/></g><g><path d="M12.46006734375,11.050557625L15.29006734375,13.880555625C15.677797343750001,14.270595625,15.677797343750001,14.900515625,15.29006734375,15.290555625C14.90002734375,15.678285625000001,14.27010734375,15.678285625000001,13.88006734375,15.290555625L11.05006934375,12.460555625C10.66234684375,12.070515625,10.66234684375,11.440595625,11.05006934375,11.050557625C11.44010734375,10.662835125,12.07002734375,10.662835125,12.46006734375,11.050557625Z" fill-rule="evenodd"  fill-opacity="1"/></g></g></svg>